<svg clip-rule="evenodd" fill-rule="evenodd" height="512" image-rendering="optimizeQuality" shape-rendering="geometricPrecision" text-rendering="geometricPrecision" viewBox="0 0 512 512" width="512" xmlns="http://www.w3.org/2000/svg"><g id="Layer_x0020_1"><path d="m255.999 331.998c-41.8986 0-75.9983-34.0997-75.9983-75.9994 0-41.8986 34.0997-75.9983 75.9983-75.9983 41.8997 0 75.9994 34.0997 75.9994 75.9983.00118111 41.8997-34.0997 75.9994-75.9994 75.9994zm0 145.001c-99.6416 0-186.331-66.8305-212.416-162h-36.5824c-5.82994 0-9.14412-6.7075-5.50041-11.2996l42.0001-53.999c2.68347-3.47954 8.14491-3.75592 11.0008.100394l40.9997 53.999c3.4571 4.5449.243308 11.1992-5.50041 11.1992h-31.8509c25.6879 87.6203 105.768 148 197.849 148 95.1003 0 177.4-64.3998 200.2-156.7 2.14489-8.86538 15.8044-5.70474 13.6004 3.4004-23.4922 97.0515-112.122 167.3-213.8 167.3zm197.851-280c-25.6879-87.6215-105.768-148-197.851-148-95.0991 0-177.399 64.401-200.199 156.701-2.14489 8.86538-15.8044 5.70474-13.6004-3.4004 23.4922-97.0515 112.122-167.3 213.799-167.3 99.6416 0 186.332 66.8305 212.417 162h36.5836c5.82994 0 9.14412 6.7075 5.50041 11.2996l-42.0001 53.999c-2.79686 3.626-8.34806 3.61655-11.1-.100394l-40.9997-53.999c-3.52088-4.62875-.145276-11.2004 5.59962-11.2004h31.8497zm-432.549 104h54.6002l-27.0001-35.5005zm414.799-89.9991 27.0001 35.5005 27.6001-35.5005zm-154.1 188.998h-51.9982c-3.90001 0-7.00042-3.1004-7.00042-7.00042v-26.4001c-7.90042-2.10001-15.1004-5.40002-21.9001-9.00003l-19.3005 18.4997c-2.8004 2.59961-7.09963 2.59961-9.79964-.100394l-36.0001-36.0001c-2.70001-2.70001-2.70001-7.00042-.100394-9.79964l18.4997-19.3005c-3.60001-6.79963-6.90002-13.9996-9.00003-21.9001l-26.3989.00236221c-3.90001 0-7.00042-3.1004-7.00042-7.00042v-51.9994c0-3.90001 3.1004-7.00042 7.00042-7.00042l26.4001.00118111c2.10001-7.90042 5.40002-15.1004 9.00003-21.9001l-18.4997-19.3005c-2.59961-2.8004-2.59961-7.09963.100394-9.79964l36.0001-36.0001c2.70001-2.70001 7.00042-2.70001 9.79964-.100394l19.3005 18.4997c6.79963-3.60001 13.9996-6.90002 21.9001-9.00003l-.00118111-26.3989c0-3.90001 3.1004-7.00042 7.00042-7.00042h51.9982c3.90001 0 7.00042 3.1004 7.00042 7.00042v26.4001c7.90042 2.10001 15.1004 5.40002 21.9001 9.00003l19.3005-18.4997c2.8004-2.59961 7.09963-2.59961 9.79964.100394l36.0001 36.0001c2.70001 2.70001 2.70001 7.00042.100394 9.79964l-18.4997 19.3005c3.60001 6.79963 6.90002 13.9996 9.00003 21.9001l26.3989-.00118111c3.90001 0 7.00042 3.1004 7.00042 7.00042v51.9994c0 3.90001-3.1004 7.00042-7.00042 7.00042l-26.4001-.00118111c-2.10001 7.90042-5.40002 15.1004-9.00003 21.9001l18.4997 19.3005c2.59961 2.8004 2.59961 7.09963-.100394 9.79964l-36.0001 36.0001c-2.70001 2.70001-7.00042 2.70001-9.79964.100394l-19.3005-18.4997c-6.79963 3.60001-13.9996 6.90002-21.9001 9.00003l.00118111 26.3989c0 3.90001-3.1004 6.99923-7.00042 6.99923zm-44.9978-13.9996h37.9985c0-44.5667-4.70671-21.991 33.6001-43.1009 2.70001-1.5 6.00002-1.09961 8.20042 1.09961l18.1004 17.2997 26.2997-26.2997-17.2997-18.1004c-6.77482-7.09372 6.08506-13.9016 10.1008-36.1005.600002-3.30001 3.49962-5.70002 6.90002-5.70002l24.9981.00236221v-37.9985c-44.5667 0-21.991 4.70671-43.1009-33.6001-1.5-2.70001-1.09961-6.00002 1.09961-8.20042l17.2997-18.1004-26.2997-26.2997-18.1004 17.2997c-7.09372 6.77482-13.9016-6.08506-36.1005-10.1008-3.30001-.600002-5.70002-3.49962-5.70002-6.90002l.00236221-25.1989h-37.9985c0 44.5667 4.70671 21.991-33.6001 43.1009-2.70001 1.5-6.00002 1.09961-8.20042-1.09961l-18.1004-17.2997-26.2997 26.2997 17.2997 18.1004c6.77482 7.09372-6.08506 13.9016-10.1008 36.1005-.600002 3.30001-3.49962 5.70002-6.90002 5.70002l-24.9981-.00118111v37.9985c44.5655 0 21.9898-4.70671 43.0997 33.6001 1.5 2.70001 1.09961 6.00002-1.09961 8.20042l-17.2997 18.1004 26.2997 26.2997 18.1004-17.2997c7.09372-6.77482 13.9016 6.08506 36.1005 10.1008 3.30001.600002 5.70002 3.49962 5.70002 6.90002l-.00118111 25.1977zm18.9981-191.998c-34.1989 0-61.9986 27.7997-61.9986 61.9986 0 34.2001 27.7997 61.9998 61.9986 61.9998 34.2001 0 61.9998-27.7997 61.9998-61.9998 0-34.1989-27.7997-61.9986-61.9998-61.9986z" fill="#52050d"/><path d="m255.999 180.001c41.8997 0 75.9994 34.0997 75.9994 75.9983.00118111 41.8997-34.0997 75.9994-75.9994 75.9994-41.8986 0-75.9983-34.0997-75.9983-75.9994 0-41.8986 34.0997-75.9983 75.9983-75.9983zm-129.898 56.8998v37.9985c44.5655 0 21.9898-4.70671 43.0997 33.6001 1.5 2.70001 1.09961 6.00002-1.09961 8.20042l-17.2997 18.1004 26.2997 26.2997 18.1004-17.2997c7.09372-6.77482 13.9016 6.08506 36.1005 10.1008 3.30001.600002 5.70002 3.49962 5.70002 6.90002l-.00118111 25.1977h37.9985c0-44.5667-4.70671-21.991 33.6001-43.1009 2.70001-1.5 6.00002-1.09961 8.20042 1.09961l18.1004 17.2997 26.2997-26.2997-17.2997-18.1004c-6.77482-7.09372 6.08506-13.9016 10.1008-36.1005.600002-3.30001 3.49962-5.70002 6.90002-5.70002l24.9981.00236221v-37.9985c-44.5667 0-21.991 4.70671-43.1009-33.6001-1.5-2.70001-1.09961-6.00002 1.09961-8.20042l17.2997-18.1004-26.2997-26.2997-18.1004 17.2997c-7.09372 6.77482-13.9016-6.08506-36.1005-10.1008-3.30001-.600002-5.70002-3.49962-5.70002-6.90002l.00236221-25.1989h-37.9985c0 44.5667 4.70671 21.991-33.6001 43.1009-2.70001 1.5-6.00002 1.09961-8.20042-1.09961l-18.1004-17.2997-26.2997 26.2997 17.2997 18.1004c6.77482 7.09372-6.08506 13.9016-10.1008 36.1005-.600002 3.30001-3.49962 5.70002-6.90002 5.70002l-24.9981-.00118111z" fill="#ff4500"/><g fill="#ffd300"><path d="m436.099 211 27 35.5 27.6-35.5z"/><path d="m75.9002 300.999-27-35.501-27.6001 35.501z"/></g></g></svg>