<?xml version="1.0" encoding="utf-8"?>
<!-- Generator: Adobe Illustrator 27.5.0, SVG Export Plug-In . SVG Version: 6.00 Build 0)  -->
<svg version="1.1" id="_x3C_Layer_x3E_" xmlns="http://www.w3.org/2000/svg" xmlns:xlink="http://www.w3.org/1999/xlink" x="0px"
	 y="0px" viewBox="0 0 2450 2450" style="enable-background:new 0 0 2450 2450;" xml:space="preserve">
<g>
	<path style="fill:#113958;" d="M455.903,1486.536c-0.452,0-0.912-0.048-1.372-0.153c-23.166-5.27-56.516-5.229-79.416-0.032
		c-2.542,0.573-5.059-0.452-6.495-2.558c-1.428-2.106-1.428-4.874,0-6.98c4.002-5.866,6.1-12.838,6.076-20.173
		c0-7.383-2.114-14.379-6.124-20.253c-1.428-2.106-1.428-4.874,0-6.98c1.428-2.106,3.986-3.139,6.495-2.558
		c11.474,2.606,25.031,3.978,39.248,3.978c0.307-0.008,0.605-0.008,0.912,0c14.193,0,27.75-1.364,39.272-3.946
		c2.478-0.564,5.051,0.452,6.48,2.566c1.436,2.106,1.428,4.866-0.008,6.972c-3.978,5.834-6.084,12.822-6.068,20.189
		c0.016,7.383,2.13,14.387,6.124,20.237c1.428,2.106,1.428,4.874,0,6.979C459.857,1485.543,457.92,1486.536,455.903,1486.536z
		 M414.815,1469.978c10.53,0,20.754,0.702,30.154,2.057c-1.614-4.89-2.453-10.078-2.461-15.411
		c-0.008-5.334,0.815-10.522,2.428-15.42c-9.449,1.356-19.737,2.114-30.17,2.017c-10.046,0.073-20.713-0.67-30.13-2.025
		c1.622,4.898,2.453,10.094,2.453,15.42c0.016,5.31-0.807,10.498-2.421,15.404C394.037,1470.671,404.261,1469.978,414.815,1469.978z
		"/>
</g>
<g>
	<g>
		<path style="fill:#113958;" d="M1263.358,1963.885c-3.421,0-6.197-2.776-6.197-6.197l-0.049-67.086
			c0-3.421,2.768-6.197,6.189-6.197c0.008,0,0.008,0,0.008,0c3.421,0,6.197,2.776,6.197,6.197l0.048,67.086
			c0,3.421-2.767,6.197-6.189,6.197C1263.358,1963.885,1263.358,1963.885,1263.358,1963.885z"/>
	</g>
	<g>
		<path style="fill:#113958;" d="M1321.439,1930.366L1321.439,1930.366l-116.211-0.032c-3.421,0-6.197-2.776-6.197-6.197
			c0-3.421,2.776-6.197,6.197-6.197l0,0l116.211,0.032c3.421,0,6.197,2.776,6.197,6.197
			C1327.636,1927.59,1324.86,1930.366,1321.439,1930.366z"/>
	</g>
</g>
<g>
	<path style="fill:#113958;" d="M1968.708,1615.866c-5.116,0-10.635-1.646-16.251-4.874c-18.228-10.538-32.502-35.246-32.502-56.257
		c-0.008-11.362,4.14-20.028,11.684-24.385c7.553-4.373,17.163-3.639,27.015,2.074c18.228,10.514,32.502,35.222,32.502,56.25
		c0,11.361-4.156,20.027-11.7,24.369C1976.204,1614.93,1972.573,1615.866,1968.708,1615.866z M1942.394,1539.969
		c-1.718,0-3.26,0.363-4.551,1.114c-3.502,2.017-5.503,6.996-5.495,13.653c0,16.444,12.047,37.279,26.305,45.509
		c5.761,3.341,11.071,4.115,14.605,2.066c3.494-2.017,5.503-6.988,5.503-13.637c0-16.445-12.047-37.295-26.305-45.518
		C1948.801,1541.05,1945.331,1539.969,1942.394,1539.969z"/>
</g>
<g>
	<g>
		<path style="fill:#113958;" d="M1217.582,525.186c-2.146,0-4.228-1.113-5.374-3.098c-1.711-2.969-0.694-6.762,2.267-8.465
			l58.113-33.503c2.969-1.711,6.762-0.694,8.464,2.268c1.71,2.969,0.694,6.762-2.267,8.464l-58.113,33.503
			C1219.696,524.92,1218.631,525.186,1217.582,525.186z"/>
	</g>
	<g>
		<path style="fill:#113958;" d="M1275.712,558.721c-2.147,0-4.228-1.113-5.374-3.098l-58.129-100.605
			c-1.711-2.961-0.694-6.754,2.267-8.464c2.977-1.719,6.762-0.686,8.464,2.267l58.13,100.605c1.711,2.961,0.694,6.754-2.267,8.464
			C1277.826,558.456,1276.761,558.721,1275.712,558.721z"/>
	</g>
</g>
<g>
	<g>
		<path style="fill:#C65CFF;" d="M1965.819,1216.9l85.871-49.576c10.586-15.283,18.849-33.535,24.61-54.516
			c-25.158-21.108-44.298-64.68-44.298-103.962c-0.017-11.845,1.92-21.85,5.019-30.112l39.279-22.691
			c-5.761-27.596-14.007-55.385-24.595-82.885c-21.85,3.308-55.337-23.401-79.448-65.117
			c-24.11-41.719-30.468-84.015-16.702-101.252c-18.51-22.932-38.49-43.975-59.55-62.729l-39.152,22.593
			c-8.778-1.436-18.462-4.778-28.806-10.748c-34.052-19.655-62.213-58.001-67.942-90.341c-21.06-5.519-41.039-7.535-59.581-6.003
			l-67.409,38.926c-0.017-0.033-0.05-0.064-0.081-0.098l-114.484,66.102c-10.588,15.268-18.85,33.535-24.628,54.483
			c25.177,21.141,44.331,64.682,44.331,103.962c0,11.862-1.904,21.818-5.035,30.114l-39.279,22.689
			c5.761,27.598,14.007,55.42,24.595,82.902c21.835-3.308,55.337,23.402,79.448,65.086c24.111,41.733,30.468,84.032,16.702,101.282
			c18.527,22.901,38.489,43.961,59.534,62.745l39.151-22.593c8.811,1.405,18.462,4.778,28.824,10.732
			c34.051,19.673,62.245,58.018,67.941,90.358c21.06,5.503,41.039,7.504,59.583,5.971l96.005-55.418
			C1965.771,1216.835,1965.803,1216.867,1965.819,1216.9z M1877.625,1075.885c-15.478-2.389-32.116-8.262-49.577-18.333
			c-79.69-46.027-144.292-157.831-144.308-249.754c0.017-20.043,3.244-37.344,8.878-51.868c7.197,1.098,14.684,3.051,22.367,5.746
			c-0.017-0.033,0-0.065,0.015-0.098c0.274,0.114,0.549,0.259,0.825,0.355c3.163,1.13,6.405,2.518,9.618,3.938
			c1.098,0.485,2.147,0.84,3.228,1.355c4.454,2.066,8.957,4.374,13.525,7.02c79.705,46.01,144.307,157.848,144.323,249.738
			c-0.016,5.245-0.259,10.264-0.679,15.122c-0.129,1.307-0.354,2.517-0.499,3.793c-0.372,3.356-0.758,6.681-1.324,9.844
			c-0.048,0.306-0.081,0.645-0.129,0.935c-0.016,0-0.049-0.031-0.081-0.031C1882.305,1061.635,1880.253,1069.089,1877.625,1075.885z
			"/>
		<path style="fill:#113958;" d="M1857.475,1278.918c-15.533,0-31.929-2.235-48.906-6.673c-2.348-0.613-4.115-2.534-4.535-4.922
			c-5.52-31.316-32.833-67.514-64.94-86.065c-8.392-4.825-16.655-8.045-24.578-9.602l-37.198,21.463
			c-2.316,1.34-5.229,1.041-7.222-0.742c-21.197-18.922-41.467-40.281-60.227-63.471c-1.832-2.259-1.839-5.487-0.024-7.763
			c10.473-13.128,7.996-50.649-17.227-94.319c-25.256-43.662-56.475-64.536-73.155-62.059c-2.88,0.443-5.664-1.186-6.714-3.897
			c-10.675-27.717-19.043-55.935-24.877-83.862c-0.549-2.622,0.654-5.293,2.969-6.633l37.312-21.553
			c2.59-7.666,3.905-16.364,3.905-25.885c0-36.997-17.712-78.722-42.12-99.218c-1.856-1.557-2.631-4.059-1.985-6.391
			c5.947-21.577,14.532-40.539,25.506-56.371c0.516-0.75,1.202-1.372,1.993-1.832l114.484-66.102
			c0.363-0.21,0.742-0.379,1.129-0.509l66.36-38.32c0.791-0.46,1.678-0.734,2.59-0.807c19.172-1.581,39.942,0.492,61.664,6.181
			c2.34,0.613,4.107,2.534,4.527,4.914c5.551,31.348,32.865,67.538,64.94,86.057c8.295,4.785,16.55,8.012,24.578,9.61l37.182-21.456
			c2.324-1.339,5.221-1.032,7.222,0.734c21.287,18.954,41.556,40.313,60.252,63.471c1.824,2.259,1.832,5.487,0.016,7.755
			c-10.482,13.128-8.005,50.625,17.227,94.287c25.264,43.694,56.564,64.439,73.154,62.091c2.921-0.411,5.665,1.186,6.714,3.897
			c10.683,27.766,19.059,55.975,24.877,83.846c0.548,2.622-0.654,5.293-2.969,6.633l-37.304,21.553
			c-2.598,7.722-3.913,16.413-3.897,25.877c0,37.037,17.695,78.762,42.088,99.225c1.856,1.557,2.63,4.05,1.993,6.382
			c-5.923,21.553-14.5,40.531-25.498,56.403c-0.517,0.758-1.202,1.38-1.993,1.84l-85.871,49.576
			c-0.371,0.218-0.767,0.387-1.17,0.524l-94.932,54.797c-0.791,0.46-1.678,0.734-2.59,0.807
			C1866.045,1278.741,1861.792,1278.918,1857.475,1278.918z M1815.436,1261.199c18.454,4.47,36.012,6.1,52.401,4.954l94.787-54.716
			c0.379-0.218,0.767-0.395,1.17-0.525l83.579-48.253c9.207-13.58,16.566-29.63,21.9-47.785
			c-25.369-23.408-43.468-67.191-43.468-106.028c-0.016-11.797,1.807-22.666,5.414-32.292c0.5-1.34,1.461-2.47,2.703-3.187
			l35.375-20.439c-5.317-24.369-12.628-48.987-21.762-73.3c-24.61-0.315-56.935-27.467-80.642-68.49
			c-23.691-40.991-31.058-82.514-19.018-103.978c-16.486-20.076-34.173-38.707-52.667-55.483l-35.254,20.342
			c-1.235,0.71-2.687,0.977-4.099,0.751c-10.175-1.663-20.568-5.536-30.904-11.498c-33.64-19.423-62.535-56.984-70.144-90.656
			c-18.478-4.486-36.101-6.165-52.401-4.987l-66.191,38.223c-0.363,0.21-0.742,0.379-1.13,0.508l-112.216,64.795
			c-9.191,13.54-16.55,29.581-21.908,47.761c25.378,23.433,43.492,67.215,43.492,106.02c0,11.878-1.832,22.746-5.43,32.3
			c-0.509,1.34-1.461,2.461-2.703,3.179l-35.375,20.439c5.325,24.417,12.636,49.044,21.762,73.316
			c24.603,0.315,56.927,27.451,80.642,68.45c23.683,40.999,31.05,82.539,19.027,104.01c16.541,20.108,34.221,38.756,52.643,55.507
			l35.254-20.342c1.219-0.718,2.655-1.025,4.075-0.751c10.062,1.598,20.471,5.463,30.937,11.474
			C1778.971,1189.981,1807.859,1227.551,1815.436,1261.199z M1877.624,1082.081c-0.307,0-0.63-0.024-0.944-0.073
			c-16.88-2.606-34.277-9.029-51.731-19.091c-81.264-46.938-147.39-161.382-147.406-255.12c0.016-20.044,3.147-38.247,9.295-54.111
			c1.057-2.703,3.849-4.301,6.714-3.881c7.085,1.081,14.621,2.977,22.408,5.648c0.476,0.073,0.944,0.202,1.396,0.395
			c3.849,1.428,7.238,2.872,10.595,4.357c1.905,0.775,2.639,1.074,3.389,1.428c4.559,2.114,9.223,4.503,13.959,7.254
			c81.264,46.906,147.398,161.341,147.414,255.095c-0.016,5.438-0.267,10.635-0.702,15.654l-0.315,2.461
			c-0.589,4.978-0.993,8.44-1.582,11.732c-0.056,0.315-0.137,0.638-0.242,0.952l0.025,0.008c-1.59,8.456-3.776,16.308-6.496,23.328
			C1882.465,1080.532,1880.15,1082.081,1877.624,1082.081z M1696.667,762.95c-4.454,13.298-6.713,28.363-6.73,44.856
			c0.016,89.785,63.359,199.419,141.209,244.38c14.363,8.287,28.605,13.887,42.411,16.679c1.67-5.051,3.066-10.538,4.156-16.364
			c0.056-0.299,0.137-0.581,0.226-0.864c0.581-3.566,0.912-6.479,1.243-9.416l0.492-3.72c0.396-4.623,0.63-9.465,0.646-14.532
			c-0.016-89.784-63.366-199.41-141.225-244.355c-4.406-2.55-8.747-4.777-13.032-6.762l-1.533-0.654
			c-0.073-0.024-1.525-0.629-1.59-0.654c-3.074-1.364-6.173-2.695-9.199-3.776v-0.024c-0.274-0.049-0.541-0.129-0.807-0.218
			C1707.31,765.548,1701.864,764.023,1696.667,762.95z"/>
	</g>
	<g>
		<g>
			<path style="fill:#FFFFFF;" d="M1990.445,1005.619c-5.777-27.596-14.023-55.385-24.609-82.902
				c-21.852,3.309-55.355-23.383-79.433-65.1c-24.142-41.702-30.485-83.999-16.703-101.235
				c-18.526-22.932-38.506-43.992-59.566-62.745c-5.729,25.692-33.874,31.503-67.941,11.846
				c-34.084-19.672-62.23-58.001-67.959-90.341c-21.06-5.52-41.037-7.536-59.581-6.004c13.797,33.132,7.423,68.103-16.671,81.983
				c-24.127,13.878-57.581,1.871-79.431-26.629c-10.588,15.268-18.85,33.535-24.628,54.483
				c25.177,21.141,44.331,64.682,44.331,103.962c0,39.298-19.14,60.728-44.315,52.803c5.761,27.598,14.007,55.42,24.595,82.902
				c21.835-3.308,55.337,23.402,79.448,65.086c24.111,41.733,30.468,84.032,16.702,101.282
				c18.527,22.901,38.489,43.961,59.534,62.745c5.744-25.692,33.906-31.533,67.974-11.862
				c34.051,19.673,62.245,58.018,67.941,90.358c21.06,5.503,41.039,7.504,59.583,5.971c-13.799-33.132-7.425-68.087,16.669-81.964
				c24.111-13.864,57.581-1.889,79.433,26.644c10.603-15.283,18.849-33.535,24.626-54.516
				c-25.158-21.124-44.315-64.681-44.315-103.961C1946.13,1019.143,1965.27,997.711,1990.445,1005.619z M1886.517,1023.983
				c-0.016,91.956-64.651,129.171-144.323,83.145c-79.724-46.01-144.308-157.831-144.308-249.754
				c0-91.922,64.584-129.136,144.308-83.128C1821.899,820.256,1886.5,932.094,1886.517,1023.983z"/>
		</g>
		<g>
			<g>
				<path style="fill:#113958;" d="M1857.475,1278.918c-15.533,0-31.929-2.235-48.906-6.673c-2.348-0.613-4.115-2.534-4.535-4.922
					c-5.52-31.316-32.833-67.514-64.94-86.065c-18.034-10.417-34.85-13.572-46.139-8.618c-6.625,2.905-10.893,8.448-12.693,16.469
					c-0.476,2.138-2.057,3.873-4.147,4.543c-2.066,0.678-4.382,0.186-6.02-1.275c-21.197-18.922-41.467-40.281-60.227-63.471
					c-1.832-2.259-1.839-5.487-0.024-7.763c10.473-13.128,7.996-50.649-17.227-94.319c-25.256-43.662-56.475-64.536-73.155-62.059
					c-2.88,0.443-5.664-1.186-6.714-3.897c-10.675-27.717-19.043-55.935-24.877-83.862c-0.452-2.155,0.274-4.382,1.912-5.858
					c1.622-1.485,3.905-1.961,6.02-1.323c7.875,2.51,14.831,1.557,20.665-2.719c9.909-7.271,15.589-23.368,15.589-44.17
					c0-36.997-17.712-78.722-42.12-99.218c-1.856-1.557-2.631-4.059-1.985-6.391c5.947-21.577,14.532-40.539,25.506-56.371
					c1.129-1.622,2.961-2.614,4.946-2.663c2.235,0.153,3.857,0.863,5.059,2.429c20.383,26.587,50.44,37.094,71.427,25.022
					c21.004-12.095,26.911-43.314,14.04-74.227c-0.759-1.824-0.605-3.914,0.428-5.6c1.032-1.695,2.808-2.792,4.785-2.954
					c19.196-1.573,39.95,0.5,61.663,6.181c2.34,0.613,4.107,2.533,4.527,4.914c5.551,31.348,32.873,67.538,64.956,86.057
					c18.051,10.409,34.867,13.564,46.147,8.618c6.609-2.905,10.861-8.44,12.645-16.444c0.484-2.147,2.057-3.873,4.147-4.551
					c2.131-0.67,4.39-0.177,6.028,1.267c21.238,18.914,41.507,40.273,60.26,63.479c1.832,2.267,1.84,5.495,0.024,7.77
					c-10.506,13.129-8.037,50.625,17.228,94.255c25.216,43.694,56.435,64.512,73.138,62.083c2.913-0.42,5.665,1.186,6.714,3.897
					c10.676,27.758,19.051,55.967,24.893,83.862c0.452,2.146-0.274,4.382-1.905,5.858c-1.622,1.469-3.946,1.961-6.02,1.323
					c-7.867-2.477-14.847-1.566-20.681,2.736c-9.9,7.27-15.581,23.36-15.581,44.154c0,37.005,17.703,78.73,42.104,99.217
					c1.856,1.557,2.63,4.051,1.985,6.391c-5.947,21.601-14.525,40.579-25.506,56.403c-1.129,1.622-2.969,2.614-4.946,2.663
					c-1.832,0.097-3.857-0.847-5.068-2.429c-20.35-26.579-50.383-37.126-71.42-25.038c-21.003,12.096-26.91,43.307-14.04,74.211
					c0.759,1.824,0.605,3.914-0.428,5.6c-1.033,1.694-2.808,2.792-4.785,2.953
					C1866.045,1278.741,1861.792,1278.918,1857.475,1278.918z M1815.436,1261.199c15.912,3.857,31.155,5.664,45.558,5.277
					c-10.998-34.043-2.227-67.457,22.303-81.586c24.514-14.105,57.904-4.955,81.909,21.593c7.48-12.257,13.588-26.354,18.212-42.032
					c-25.377-23.432-43.484-67.215-43.484-106.027c0-25.143,7.334-44.372,20.64-54.143c6.464-4.737,13.855-6.907,21.819-6.439
					c-5.228-22.868-12.184-45.897-20.729-68.652c-24.635-0.306-56.951-27.451-80.626-68.474
					c-23.715-40.966-31.09-82.49-19.027-103.962c-15.477-18.841-31.97-36.384-49.157-52.28c-3.558,7.085-9.126,12.394-16.429,15.606
					c-15.154,6.657-35.496,3.349-57.331-9.231c-33.648-19.423-62.552-56.992-70.161-90.656c-15.92-3.873-31.13-5.729-45.558-5.31
					c11.006,34.052,2.235,67.474-22.303,81.603c-24.49,14.113-57.871,4.971-81.909-21.585c-7.48,12.265-13.588,26.345-18.212,42.016
					c25.385,23.433,43.5,67.215,43.5,106.02c0,25.159-7.335,44.388-20.649,54.159c-6.455,4.737-13.903,6.875-21.819,6.431
					c5.229,22.884,12.176,45.921,20.721,68.644c24.603,0.315,56.927,27.451,80.642,68.45c23.683,40.999,31.05,82.539,19.027,104.01
					c15.484,18.825,31.97,36.367,49.132,52.28c3.567-7.084,9.15-12.402,16.461-15.613c15.161-6.633,35.512-3.357,57.323,9.231
					C1778.971,1189.981,1807.859,1227.551,1815.436,1261.199z M1806.705,1133.126c-20.867,0-43.88-6.923-67.611-20.633
					c-81.28-46.905-147.406-161.357-147.406-255.119c0-46.728,16.09-81.756,45.292-98.62
					c29.242-16.897,67.723-13.298,108.311,10.127c81.271,46.914,147.406,161.349,147.422,255.103l0,0
					c-0.008,46.752-16.114,81.788-45.34,98.653C1835.229,1129.649,1821.503,1133.126,1806.705,1133.126z M1677.705,760.666
					c-12.676,0-24.312,2.929-34.52,8.82c-25.216,14.565-39.102,45.776-39.102,87.888c0,89.817,63.342,199.451,141.209,244.388
					c36.577,21.125,70.62,24.732,95.885,10.143c25.232-14.565,39.135-45.784,39.143-87.921
					c-0.016-89.8-63.366-199.427-141.225-244.371C1717.292,767.033,1696.384,760.666,1677.705,760.666z"/>
			</g>
		</g>
	</g>
	<g>
		<path style="fill:#113958;" d="M1622.98,965.612c-15.831-35.827-25.095-73.461-25.095-108.239
			c0.016-71.798,39.474-109.997,94.732-101.445c-5.634,14.524-8.861,31.825-8.878,51.868c0,34.794,9.281,72.397,25.112,108.239
			L1622.98,965.612z"/>
		<path style="fill:#113958;" d="M1622.98,971.81c-0.646,0-1.299-0.105-1.921-0.307c-1.678-0.549-3.033-1.775-3.744-3.389
			c-16.768-37.933-25.627-76.229-25.627-110.74c0.008-40.12,11.724-71.363,33.874-90.341c17.946-15.388,41.5-21.383,67.998-17.227
			c1.856,0.291,3.486,1.396,4.422,3.026c0.936,1.622,1.089,3.591,0.412,5.342c-5.6,14.427-8.44,31.13-8.456,49.633
			c0,32.753,8.497,69.313,24.586,105.729c1.275,2.889,0.17,6.286-2.574,7.867l-85.871,49.577
			C1625.127,971.527,1624.054,971.81,1622.98,971.81z M1677.713,760.948c-17.082,0-32.131,5.253-44.081,15.493
			c-19.051,16.324-29.541,45.066-29.549,80.933c0,30.896,7.537,65.125,21.835,99.387l75.058-43.331
			c-15.347-36.294-23.432-72.702-23.432-105.632c0.016-16.953,2.251-32.583,6.665-46.607
			C1682.014,761.029,1679.843,760.948,1677.713,760.948z"/>
	</g>
	<g>
		<path style="fill:#113958;" d="M1990.453,1011.816c-2.146,0-4.228-1.113-5.374-3.098c-1.711-2.961-0.694-6.754,2.267-8.464
			l85.855-49.577c2.961-1.711,6.753-0.685,8.464,2.268c1.711,2.961,0.694,6.754-2.267,8.464l-85.855,49.576
			C1992.568,1011.55,1991.503,1011.816,1990.453,1011.816z"/>
	</g>
	<g>
		<path style="fill:#113958;" d="M1965.843,928.915c-2.147,0-4.228-1.114-5.374-3.099c-1.711-2.962-0.694-6.754,2.268-8.464
			l85.871-49.56c2.977-1.711,6.761-0.694,8.464,2.268c1.71,2.961,0.694,6.754-2.267,8.464l-85.871,49.56
			C1967.957,928.648,1966.892,928.915,1965.843,928.915z"/>
	</g>
	<g>
		<path style="fill:#113958;" d="M1990.453,1168.582c-2.146,0-4.228-1.114-5.374-3.099c-1.711-2.961-0.694-6.754,2.267-8.464
			l85.855-49.576c2.961-1.711,6.753-0.694,8.464,2.267c1.711,2.961,0.694,6.754-2.267,8.464l-85.855,49.577
			C1992.568,1168.315,1991.503,1168.582,1990.453,1168.582z"/>
	</g>
	<g>
		<path style="fill:#113958;" d="M1869.708,762.579c-2.146,0-4.228-1.114-5.374-3.099c-1.711-2.961-0.694-6.754,2.267-8.464
			l85.855-49.592c2.978-1.719,6.762-0.686,8.464,2.267c1.711,2.961,0.694,6.754-2.267,8.464l-85.855,49.593
			C1871.823,762.312,1870.757,762.579,1869.708,762.579z"/>
	</g>
	<g>
		<path style="fill:#113958;" d="M1810.142,699.834c-2.146,0-4.228-1.114-5.374-3.099c-1.711-2.961-0.694-6.754,2.267-8.464
			l85.871-49.577c2.969-1.718,6.754-0.685,8.464,2.268c1.711,2.961,0.694,6.754-2.267,8.464l-85.871,49.576
			C1812.257,699.567,1811.191,699.834,1810.142,699.834z"/>
	</g>
	<g>
		<path style="fill:#113958;" d="M1674.243,621.338c-2.147,0-4.228-1.114-5.374-3.099c-1.711-2.961-0.694-6.754,2.268-8.464
			l85.871-49.576c2.969-1.727,6.77-0.694,8.464,2.267c1.71,2.962,0.694,6.754-2.267,8.465l-85.871,49.576
			C1676.357,621.071,1675.292,621.338,1674.243,621.338z"/>
	</g>
	<g>
		<path style="fill:#113958;" d="M1886.386,1190.256c24.111-13.864,57.581-1.889,79.433,26.644
			c-0.017-0.033-0.048-0.065-0.098-0.098l-96.005,55.418C1855.918,1239.089,1862.292,1204.134,1886.386,1190.256z"/>
		<path style="fill:#113958;" d="M1869.716,1278.418c-0.67,0-1.34-0.105-1.985-0.331c-1.686-0.565-3.05-1.84-3.736-3.486
			c-15.299-36.73-7.182-74.461,19.301-89.712c0-0.008,0-0.008,0-0.008c26.483-15.235,63.237-3.34,87.444,28.25h-0.008
			c0.242,0.322,0.46,0.654,0.629,1.001c1.428,2.856,0.452,6.326-2.259,8.02c-0.436,0.274-0.888,0.484-1.364,0.637l-94.925,54.797
			C1871.863,1278.136,1870.79,1278.418,1869.716,1278.418z M1889.477,1195.629c-19.495,11.232-25.982,38.933-16.517,67.562
			l83.322-48.1C1936.189,1192.668,1908.948,1184.405,1889.477,1195.629L1889.477,1195.629z"/>
	</g>
	<g>
		<path style="fill:#C65CFF;" d="M1946.13,1058.422c0-39.279,19.14-60.711,44.315-52.804l46.576-26.885
			c-3.098,8.263-5.035,18.267-5.019,30.112c0,39.281,19.14,82.854,44.298,103.962l-85.855,49.576
			C1965.287,1141.26,1946.13,1097.703,1946.13,1058.422z"/>
		<path style="fill:#113958;" d="M1990.446,1168.582c-1.428,0-2.841-0.493-3.986-1.452c-26.959-22.634-46.526-68.353-46.526-108.707
			c0-25.143,7.334-44.372,20.64-54.143c8.384-6.141,18.357-7.964,29.033-5.334l44.316-25.579c2.283-1.291,5.116-1.049,7.109,0.637
			c1.993,1.694,2.711,4.454,1.791,6.907c-3.082,8.214-4.639,17.615-4.623,27.927c0,37.037,17.695,78.762,42.088,99.225
			c1.549,1.299,2.364,3.268,2.187,5.285c-0.178,2.009-1.323,3.817-3.074,4.825l-85.855,49.577
			C1992.584,1168.307,1991.511,1168.582,1990.446,1168.582z M1980.343,1010.178c-4.559,0-8.723,1.364-12.435,4.091
			c-9.9,7.27-15.581,23.368-15.581,44.154c0,35.358,16.17,75.034,38.893,96.36l74.719-43.145
			c-23.61-24.046-40.135-65.674-40.135-102.792c-0.008-6.019,0.46-11.797,1.404-17.292l-33.664,19.43
			c-1.501,0.863-3.301,1.073-4.955,0.549C1985.717,1010.63,1982.966,1010.178,1980.343,1010.178z"/>
	</g>
	<g>
		<path style="fill:#113958;" d="M1990.445,1162.384l85.855-49.576c-5.761,20.981-14.023,39.233-24.61,54.516l-85.871,49.576
			C1976.422,1201.617,1984.668,1183.365,1990.445,1162.384z"/>
		<path style="fill:#113958;" d="M1965.819,1223.096c-1.686,0-3.356-0.686-4.559-2.001c-1.969-2.13-2.187-5.342-0.533-7.73
			c10.175-14.67,18.164-32.373,23.747-52.626c0.428-1.565,1.461-2.905,2.872-3.72l85.855-49.576c2.162-1.267,4.897-1.074,6.882,0.46
			c1.993,1.542,2.857,4.123,2.195,6.544c-5.923,21.553-14.5,40.531-25.498,56.403c-0.517,0.758-1.202,1.38-1.993,1.84
			l-85.871,49.576C1967.949,1222.822,1966.884,1223.096,1965.819,1223.096z M1995.731,1166.492
			c-3.445,11.974-7.706,23.118-12.749,33.341l64.391-37.174c7.254-10.7,13.354-22.932,18.228-36.521L1995.731,1166.492z"/>
	</g>
</g>
<g>
	<g>
		<polygon style="fill:#FFFFFF;" points="1700.2,1998.083 1619.219,1951.314 1619.219,1924.136 1827.967,1803.649 
			1908.932,1850.386 1908.932,1877.562 		"/>
		<path style="fill:#113958;" d="M1700.202,2004.279c-1.074,0-2.138-0.275-3.099-0.823l-80.981-46.768
			c-1.92-1.114-3.098-3.163-3.098-5.374v-27.177c0-2.211,1.178-4.26,3.098-5.374l208.747-120.488c1.92-1.097,4.277-1.097,6.197,0
			l80.965,46.736c1.92,1.113,3.099,3.163,3.099,5.374v27.177c0,2.211-1.178,4.261-3.099,5.374l-208.731,120.52
			C1702.339,2004.004,1701.275,2004.279,1700.202,2004.279z M1625.417,1947.731l74.784,43.202l202.533-116.953v-20.011
			l-74.768-43.169l-202.55,116.921V1947.731z"/>
	</g>
	<g>
		<polygon style="fill:#C65CFF;" points="1700.2,1998.083 1619.219,1951.314 1619.219,1924.136 1700.2,1970.905 		"/>
		<path style="fill:#113958;" d="M1700.202,2004.279c-1.074,0-2.138-0.275-3.099-0.823l-80.981-46.768
			c-1.92-1.114-3.098-3.163-3.098-5.374v-27.177c0-2.211,1.178-4.26,3.098-5.374c1.921-1.098,4.277-1.098,6.197,0l80.981,46.768
			c1.92,1.114,3.099,3.163,3.099,5.374v27.176c0,2.211-1.178,4.261-3.099,5.374
			C1702.339,2004.004,1701.275,2004.279,1700.202,2004.279z M1625.417,1947.731l68.587,39.619v-12.862l-68.587-39.619V1947.731z"/>
	</g>
	<g>
		<polygon style="fill:#113958;" points="1700.2,1970.905 1908.932,1850.386 1908.932,1877.562 1700.2,1998.083 		"/>
		<path style="fill:#113958;" d="M1700.202,2004.279c-1.074,0-2.138-0.275-3.099-0.823c-1.92-1.114-3.098-3.163-3.098-5.374v-27.176
			c0-2.211,1.178-4.26,3.098-5.374l208.731-120.519c1.92-1.098,4.277-1.098,6.197,0c1.92,1.113,3.099,3.163,3.099,5.374v27.177
			c0,2.211-1.178,4.261-3.099,5.374l-208.731,120.52C1702.339,2004.004,1701.275,2004.279,1700.202,2004.279z M1706.398,1974.488
			v12.862l196.336-113.37v-12.862L1706.398,1974.488z"/>
	</g>
</g>
<g>
	<g>
		
			<ellipse transform="matrix(0.7071 -0.7071 0.7071 0.7071 -279.8216 662.1472)" style="fill:#FFFFFF;" cx="659.372" cy="668.848" rx="99.153" ry="99.152"/>
		<path style="fill:#113958;" d="M659.372,774.198c-58.089,0-105.35-47.26-105.35-105.35c0-58.089,47.26-105.349,105.35-105.349
			c58.089,0,105.35,47.26,105.35,105.349C764.722,726.938,717.461,774.198,659.372,774.198z M659.372,575.893
			c-51.255,0-92.956,41.701-92.956,92.955c0,51.255,41.701,92.956,92.956,92.956c51.255,0,92.956-41.701,92.956-92.956
			C752.328,617.594,710.627,575.893,659.372,575.893z"/>
	</g>
	<g>
		<path style="fill:#C65CFF;" d="M659.371,569.696c-3.936,0-7.793,0.29-11.619,0.742c40.362,6.779,71.185,41.638,71.185,83.951
			c0,47.124-38.23,85.371-85.387,85.371c-25.804,0-48.672-11.716-64.325-29.823c15.638,34.246,50.076,58.065,90.146,58.065
			c54.774,0,99.153-44.412,99.153-99.153C758.524,614.076,714.145,569.696,659.371,569.696z"/>
		<path style="fill:#113958;" d="M659.372,774.198c-41.072,0-78.673-24.215-95.788-61.688c-1.275-2.808-0.298-6.125,2.292-7.787
			c2.582-1.67,6.004-1.194,8.037,1.162c15.21,17.591,36.948,27.677,59.638,27.677c43.661,0,79.19-35.52,79.19-79.174
			c0-38.683-27.766-71.419-66.013-77.842c-3.042-0.509-5.245-3.179-5.172-6.262c0.08-3.082,2.404-5.64,5.47-6.003
			c4.067-0.476,8.158-0.783,12.346-0.783c58.089,0,105.35,47.26,105.35,105.349C764.722,726.938,717.461,774.198,659.372,774.198z
			 M598.144,738.646c16.663,14.629,38.336,23.158,61.228,23.158c51.255,0,92.956-41.701,92.956-92.956
			c0-41.685-27.58-77.043-65.448-88.8c23.409,16.662,38.256,43.912,38.256,74.34c0,50.488-41.088,91.568-91.584,91.568
			C621.278,745.956,609.264,743.423,598.144,738.646z"/>
	</g>
</g>
<g>
	<g>
		<path style="fill:#C65CFF;" d="M955.797,1725.766h-0.015c-0.098-22.947-15.316-45.896-45.655-63.421
			c-60.809-35.085-159.253-35.15-219.914-0.131c-30.372,17.527-45.495,40.54-45.397,63.552l0,0v33.148h0.017
			c0.143,22.884,15.347,45.8,45.655,63.294c60.807,35.083,159.234,35.181,219.881,0.16c30.341-17.525,45.478-40.474,45.428-63.454
			l0,0V1725.766z"/>
		<path style="fill:#113958;" d="M800.702,1854.646c-41.007,0-82.047-9.021-113.314-27.064
			c-31.276-18.058-48.584-42.427-48.754-68.635l-0.016-33.18c-0.113-26.321,17.115-50.803,48.495-68.926
			c62.269-35.94,163.697-35.875,226.112,0.129c31.332,18.107,48.64,42.524,48.753,68.765c0,0.016,0.016,0.016,0.016,0.032v33.148
			c0.057,26.273-17.179,50.706-48.527,68.829C882.409,1845.673,841.572,1854.646,800.702,1854.646z M799.951,1642.139
			c-38.643,0-77.261,8.489-106.641,25.45c-27.37,15.783-42.387,36.44-42.298,58.146v33.18c0.153,21.577,15.275,42.169,42.573,57.92
			c59.017,34.067,154.878,34.132,213.685,0.161c27.346-15.783,42.379-36.407,42.33-58.065v-33.164
			c-0.121-21.657-15.234-42.266-42.572-58.049C877.487,1650.66,838.699,1642.139,799.951,1642.139z"/>
	</g>
	<g>
		<path style="fill:#113958;" d="M955.782,1725.766c-0.098-22.947-15.316-45.896-45.655-63.421
			c-7.117-4.1-14.848-7.65-22.885-10.781v181.715c8.134-3.196,15.929-6.779,23.126-10.91c30.341-17.525,45.478-40.474,45.428-63.454
			v-33.148H955.782z"/>
		<path style="fill:#113958;" d="M887.243,1839.476c-1.227,0-2.445-0.371-3.494-1.081c-1.687-1.146-2.703-3.066-2.703-5.116
			v-181.715c0-2.049,1.009-3.954,2.703-5.116c1.694-1.146,3.849-1.371,5.745-0.661c8.957,3.486,16.719,7.149,23.723,11.184
			c31.34,18.107,48.649,42.524,48.761,68.765c0,0.016,0,0.016,0,0.032l0.016,33.148c0.057,26.273-17.179,50.706-48.527,68.829
			c-7.053,4.05-14.888,7.746-23.957,11.297C888.776,1839.331,888.009,1839.476,887.243,1839.476z M893.44,1660.843v163.141
			c5.027-2.243,9.602-4.551,13.846-6.988c27.33-15.783,42.363-36.407,42.314-58.065l-0.016-33.132
			c-0.089-21.657-15.202-42.282-42.556-58.081C902.849,1665.297,898.362,1663.038,893.44,1660.843z"/>
	</g>
	<g>
		<path style="fill:#FFFFFF;" d="M910.369,1789.318c60.663-35.019,60.551-91.857-0.242-126.973
			c-60.809-35.085-159.253-35.15-219.914-0.131c-60.648,35.021-60.519,91.858,0.274,126.944
			C751.294,1824.242,849.722,1824.339,910.369,1789.318z"/>
		<path style="fill:#113958;" d="M800.702,1821.595c-41.007,0-82.047-9.021-113.314-27.064
			c-31.453-18.155-48.77-42.653-48.778-68.974c0-26.24,17.22-50.642,48.503-68.716c62.269-35.94,163.697-35.875,226.112,0.129
			c31.453,18.171,48.769,42.685,48.769,69.007c-0.008,26.24-17.244,50.641-48.527,68.716l0,0
			C882.409,1812.622,841.572,1821.595,800.702,1821.595z M799.951,1642.139c-38.643,0-77.261,8.489-106.641,25.45
			c-27.282,15.75-42.306,36.327-42.306,57.968c0.008,21.706,15.129,42.395,42.581,58.227
			c59.017,34.051,154.878,34.148,213.685,0.161l0,0c27.289-15.75,42.322-36.343,42.33-57.968c0-21.722-15.121-42.411-42.572-58.259
			C877.487,1650.66,838.699,1642.139,799.951,1642.139z"/>
	</g>
	<g>
		<path style="fill:#C65CFF;" d="M858.71,1759.464c32.18-18.558,32.116-48.737-0.129-67.361
			c-32.276-18.622-84.514-18.656-116.694-0.064c-32.18,18.591-32.116,48.737,0.146,67.361
			C774.291,1778.023,826.515,1778.055,858.71,1759.464z"/>
		<path style="fill:#113958;" d="M800.476,1779.475c-22.279,0-44.566-4.906-61.543-14.702
			c-17.623-10.183-27.33-24.078-27.338-39.119c0-15.009,9.659-28.855,27.193-38.974c33.85-19.543,88.978-19.511,122.892,0.049
			c17.623,10.183,27.33,24.078,27.321,39.151c-0.008,15.009-9.667,28.839-27.193,38.957
			C844.912,1774.585,822.698,1779.475,800.476,1779.475z M800.113,1684.244c-19.979,0-39.942,4.389-55.128,13.169
			c-13.54,7.811-20.996,17.849-20.996,28.242c0,10.425,7.513,20.511,21.141,28.371c30.509,17.639,80.069,17.655,110.482,0.064l0,0
			c13.54-7.795,20.995-17.816,20.995-28.226c0-10.441-7.496-20.528-21.125-28.387
			C840.208,1688.649,820.148,1684.244,800.113,1684.244z"/>
	</g>
	<g>
		<path style="fill:#113958;" d="M779.15,1679.87c-13.637,2.099-26.58,6.004-37.264,12.168
			c-32.18,18.591-32.116,48.737,0.146,67.361c10.651,6.133,23.562,10.07,37.118,12.168V1679.87z"/>
		<path style="fill:#113958;" d="M779.149,1777.764c-0.315,0-0.629-0.016-0.944-0.081c-15.267-2.356-28.475-6.697-39.264-12.911
			c-17.631-10.183-27.338-24.078-27.346-39.119c0-15.009,9.659-28.855,27.193-38.974c10.756-6.213,24.021-10.57,39.417-12.943
			c1.791-0.274,3.599,0.242,4.979,1.436c1.372,1.178,2.162,2.889,2.162,4.696v91.697c0,1.808-0.791,3.534-2.162,4.712
			C782.054,1777.248,780.618,1777.764,779.149,1777.764z M772.953,1687.278c-10.821,2.259-20.205,5.648-27.967,10.135
			c-13.54,7.811-20.996,17.849-20.996,28.242c0,10.425,7.513,20.511,21.141,28.371c7.77,4.486,17.106,7.875,27.822,10.118V1687.278z
			"/>
	</g>
	<g>
		<path style="fill:#FFFFFF;" d="M742.032,1759.399c32.259,18.624,84.483,18.656,116.678,0.065
			c8.651-4.971,14.784-10.844,18.77-17.074c-4.002-6.262-10.168-12.201-18.898-17.236c-32.276-18.623-84.514-18.656-116.694-0.065
			c-8.649,5.004-14.767,10.846-18.768,17.074C727.136,1748.424,733.302,1754.364,742.032,1759.399z"/>
		<path style="fill:#113958;" d="M800.484,1779.475c-22.279,0-44.573-4.906-61.551-14.702c-9.134-5.277-16.211-11.748-21.028-19.269
			c-1.315-2.034-1.315-4.648,0-6.697c4.753-7.391,11.781-13.814,20.883-19.075c33.809-19.543,88.953-19.527,122.892,0.049
			c9.15,5.277,16.227,11.764,21.02,19.269c1.299,2.033,1.299,4.648,0,6.681c-4.769,7.44-11.797,13.879-20.898,19.108
			C844.905,1774.585,822.698,1779.475,800.484,1779.475z M730.76,1742.163c3.599,4.454,8.416,8.44,14.371,11.862l0,0
			c30.509,17.639,80.069,17.655,110.482,0.064c5.906-3.389,10.683-7.31,14.234-11.7c-3.591-4.455-8.4-8.425-14.363-11.862
			c-30.509-17.623-80.085-17.655-110.497-0.064C739.087,1733.868,734.318,1737.79,730.76,1742.163z"/>
	</g>
</g>
<g>
	<g>
		<path style="fill:#113958;" d="M944.371,794.952l-46.929,27.079v422.013c0.031,37.343,26.272,82.723,58.646,101.412
			l682.288,393.899c16.203,9.36,30.84,10.264,41.476,4.195l0,0l47.268-27.305l-0.048-0.065c10.409-6.197,16.848-19.139,16.848-37.57
			v-422.044L944.371,794.952z"/>
		<path style="fill:#113958;" d="M1664.657,1753.621c-9.15,0-19.148-2.986-29.379-8.892L952.99,1350.822
			c-34.011-19.632-61.712-67.53-61.745-106.77v-422.02c0-2.211,1.178-4.261,3.099-5.366l46.93-27.08c1.92-1.113,4.277-1.113,6.197,0
			l799.548,461.615c1.92,1.105,3.098,3.155,3.098,5.366v422.045c0,19.543-6.721,34.535-18.962,42.33
			c-0.291,0.258-0.597,0.484-0.936,0.678l-47.269,27.306C1677.446,1752.056,1671.274,1753.621,1664.657,1753.621z M903.639,825.614
			v418.43c0.032,35.294,24.95,78.383,55.548,96.046l682.288,393.891c13.669,7.908,26.217,9.425,35.302,4.18l46.389-26.79
			c0.234-0.193,0.476-0.355,0.735-0.516c8.916-5.31,13.822-16.752,13.822-32.244v-418.47L944.372,802.109L903.639,825.614z"/>
	</g>
	<g>
		<path style="fill:#FFFFFF;" d="M897.442,822.031v422.013c0.031,37.343,26.272,82.723,58.646,101.412l682.288,393.899
			c32.39,18.72,58.63,3.616,58.63-33.664v-422.045L897.442,822.031z"/>
		<path style="fill:#113958;" d="M1664.633,1753.621c-9.134,0-19.124-2.986-29.355-8.908L952.99,1350.822
			c-34.011-19.632-61.712-67.53-61.745-106.77v-422.02c0-2.211,1.178-4.261,3.099-5.366c1.92-1.113,4.277-1.113,6.197,0
			l799.564,461.615c1.92,1.105,3.098,3.155,3.098,5.366v422.044c0,20.318-7.182,35.649-20.229,43.169
			C1677.471,1752.04,1671.282,1753.621,1664.633,1753.621z M903.639,832.763v411.281c0.032,35.294,24.95,78.383,55.548,96.046
			l682.288,393.891c13.685,7.924,26.233,9.377,35.31,4.148c9.045-5.213,14.024-16.735,14.024-32.438v-418.47L903.639,832.763z"/>
	</g>
	<g>
		<path style="fill:#C65CFF;" d="M1685.256,1023.823l-682.271-393.901c-16.154-9.327-30.775-10.231-41.378-4.163l-0.017-0.033
			l-47.139,27.242l0,0c-10.49,6.164-16.978,19.171-16.978,37.731l-0.031,131.331l799.564,461.615l46.913-27.079v-131.332
			C1743.935,1087.923,1717.663,1042.51,1685.256,1023.823z"/>
		<path style="fill:#113958;" d="M1697.006,1289.844c-1.073,0-2.138-0.274-3.098-0.831L894.344,827.397
			c-1.92-1.105-3.099-3.155-3.099-5.366l0.032-131.332c0-20.181,7.117-35.479,20.036-43.073l47.18-27.266
			c0.218-0.129,0.444-0.242,0.678-0.339c12.991-7.044,29.597-5.463,46.914,4.534l682.272,393.9
			c34.068,19.648,61.777,67.546,61.76,106.778v131.332c0,2.211-1.178,4.26-3.098,5.366l-46.914,27.08
			C1699.144,1289.569,1698.079,1289.844,1697.006,1289.844z M903.639,818.457l793.367,458.032l40.717-23.497v-127.758
			c0.016-35.286-24.909-78.367-55.564-96.046l0,0l-682.272-393.9c-13.637-7.875-26.128-9.352-35.206-4.147
			c-0.186,0.105-0.371,0.202-0.573,0.282l-46.559,26.91c-8.932,5.253-13.879,16.752-13.879,32.365L903.639,818.457z
			 M1743.919,1256.567h0.153H1743.919z"/>
	</g>
	<g>
		<path style="fill:#113958;" d="M1697.006,1283.646l46.913-27.079v-131.332c0-18.463-6.455-38.861-16.864-57.064l-201.645,116.42
			L1697.006,1283.646z"/>
		<path style="fill:#113958;" d="M1697.006,1289.844c-1.073,0-2.138-0.274-3.098-0.831l-171.597-99.056
			c-1.92-1.105-3.098-3.155-3.098-5.366s1.178-4.261,3.098-5.366l201.646-116.421c1.42-0.831,3.107-1.049,4.712-0.613
			c1.59,0.428,2.945,1.469,3.768,2.905c11.402,19.938,17.679,41.298,17.679,60.139v131.332c0,2.211-1.178,4.26-3.098,5.366
			l-46.914,27.08C1699.144,1289.569,1698.079,1289.844,1697.006,1289.844z M1537.803,1184.591l159.202,91.899l40.717-23.497
			v-127.758c0-15.041-4.615-32.074-13.08-48.519L1537.803,1184.591z"/>
	</g>
	<g>
		<path style="fill:#C65CFF;" d="M1697.023,1152.315c-0.017-37.311-26.257-82.725-58.662-101.38L956.088,657.003
			c-32.388-18.72-58.614-3.614-58.614,33.697l-0.031,131.331l799.564,461.615L1697.023,1152.315z"/>
		<path style="fill:#113958;" d="M1697.006,1289.844c-1.073,0-2.138-0.274-3.098-0.831L894.344,827.397
			c-1.92-1.105-3.099-3.155-3.099-5.366l0.032-131.332c0-20.334,7.181-35.681,20.229-43.21c13.056-7.544,30.001-6.076,47.681,4.147
			l682.272,393.932c34.035,19.592,61.744,67.482,61.76,106.746l0,0l-0.016,131.332c0,2.211-1.178,4.261-3.098,5.366
			C1699.144,1289.569,1698.079,1289.844,1697.006,1289.844z M903.639,818.457l787.17,454.458l0.016-120.6
			c-0.016-35.31-24.941-78.383-55.555-96.006l-682.28-393.94c-13.685-7.9-26.209-9.392-35.286-4.14
			c-9.053,5.213-14.032,16.752-14.032,32.47L903.639,818.457z"/>
	</g>
	<g>
		<path style="fill:#FFFFFF;" d="M1338.255,977.087c0,28.951-20.351,40.668-45.493,26.143l-157.865-91.148
			c-25.143-14.525-45.493-49.771-45.493-78.691l0,0c-0.017-28.951,20.335-40.668,45.493-26.175l157.865,91.148
			C1317.889,912.89,1338.239,948.102,1338.255,977.087L1338.255,977.087z"/>
		<path style="fill:#113958;" d="M1313.144,1015.689c-7.326,0-15.315-2.372-23.481-7.093L1131.8,917.448
			c-27.25-15.743-48.592-52.659-48.592-84.056c-0.008-16.283,5.802-28.613,16.356-34.721c10.611-6.125,24.24-4.987,38.425,3.179
			l157.871,91.148c27.233,15.743,48.576,52.674,48.592,84.087l0,0c0,16.292-5.818,28.629-16.388,34.721
			C1323.578,1014.406,1318.535,1015.689,1313.144,1015.689z M1114.573,807.184c-3.268,0-6.237,0.735-8.803,2.219
			c-6.56,3.792-10.175,12.313-10.167,23.989c0,26.926,19.019,59.816,42.395,73.324l157.863,91.148
			c10.167,5.874,19.406,7.02,26.007,3.212c6.576-3.792,10.191-12.313,10.191-23.989c-0.016-26.943-19.035-59.848-42.395-73.356
			L1131.8,812.583C1125.579,809,1119.704,807.184,1114.573,807.184z"/>
	</g>
	<g>
		<g>
			<path style="fill:#113958;" d="M1296.409,976.28c-3.486,0-7.206-1.074-10.869-3.195c-11.394-6.609-20.31-22.077-20.31-35.214
				c-0.008-7.471,2.945-13.475,8.118-16.469c5.18-2.977,11.902-2.566,18.405,1.194c11.426,6.576,20.374,22.053,20.374,35.222
				c0,7.496-2.977,13.516-8.158,16.501C1301.694,975.626,1299.12,976.28,1296.409,976.28z M1280.965,931.811
				c-0.557,0-1.041,0.105-1.412,0.323c-1.194,0.686-1.937,2.881-1.929,5.729c0,8.836,6.471,20.06,14.137,24.506
				c2.51,1.452,4.818,1.928,6.02,1.21c1.202-0.694,1.953-2.905,1.953-5.761c0-8.698-6.616-20.141-14.161-24.49
				C1283.837,932.336,1282.208,931.811,1280.965,931.811z"/>
		</g>
		<g>
			<path style="fill:#113958;" d="M1263.35,968.598c-2.146,0-4.236-1.114-5.382-3.107c-1.703-2.969-0.686-6.754,2.283-8.465
				l13.136-7.552c2.977-1.687,6.762-0.686,8.464,2.283c1.703,2.969,0.686,6.754-2.283,8.464l-13.136,7.553
				C1265.456,968.332,1264.399,968.598,1263.35,968.598z"/>
		</g>
	</g>
	<g>
		<g>
			<path style="fill:#113958;" d="M991.955,818.384c-2.138,0-4.22-1.105-5.374-3.09l-30.437-52.61
				c-0.823-1.428-1.049-3.123-0.621-4.712c0.428-1.59,1.469-2.945,2.897-3.768l30.421-17.494c2.969-1.687,6.754-0.686,8.464,2.283
				c1.703,2.969,0.686,6.754-2.283,8.465l-25.039,14.395l27.33,47.228c1.711,2.969,0.702,6.754-2.259,8.473
				C994.077,818.118,993.004,818.384,991.955,818.384z"/>
		</g>
		<g>
			<path style="fill:#113958;" d="M1021.262,800.245c-1.049,0-2.114-0.266-3.09-0.831l-59.759-34.471
				c-2.962-1.711-3.978-5.495-2.268-8.465c1.703-2.953,5.479-3.978,8.465-2.267l59.759,34.471c2.962,1.711,3.978,5.495,2.267,8.464
				C1025.49,799.131,1023.408,800.245,1021.262,800.245z"/>
		</g>
	</g>
	<g>
		<g>
			<path style="fill:#113958;" d="M1469.208,1058.875c-1.049,0-2.114-0.267-3.09-0.831l-59.727-34.471
				c-2.962-1.711-3.979-5.503-2.268-8.465c1.703-2.953,5.495-3.978,8.465-2.267l59.727,34.471c2.961,1.711,3.978,5.503,2.267,8.464
				C1473.436,1057.761,1471.354,1058.875,1469.208,1058.875z"/>
		</g>
		<g>
			<path style="fill:#113958;" d="M1439.345,1076.046L1439.345,1076.046c-3.421,0-6.197-2.776-6.197-6.197l0.016-68.845
				c0-3.421,2.775-6.197,6.197-6.197l0,0c3.421,0,6.197,2.776,6.197,6.197l-0.016,68.845
				C1445.542,1073.27,1442.766,1076.046,1439.345,1076.046z"/>
		</g>
	</g>
	<g>
		<g>
			<path style="fill:#113958;" d="M1591.575,1163.934c-1.073,0-2.138-0.274-3.098-0.831l-54.725-31.598
				c-1.92-1.106-3.098-3.155-3.098-5.366l0.016-46.058c0-2.219,1.178-4.26,3.098-5.366c1.921-1.113,4.277-1.113,6.197,0
				l54.725,31.566c1.92,1.105,3.098,3.155,3.098,5.366l-0.016,46.09c0,2.219-1.186,4.261-3.098,5.366
				C1593.714,1163.66,1592.648,1163.934,1591.575,1163.934z M1543.048,1122.564l42.33,24.441l0.016-31.776l-42.33-24.425
				L1543.048,1122.564z"/>
		</g>
		<g>
			<path style="fill:#113958;" d="M1611.635,1152.766c-1.065,0-2.138-0.274-3.098-0.831l-20.043-11.555
				c-2.962-1.703-3.978-5.495-2.268-8.465c1.711-2.953,5.503-3.986,8.465-2.267l10.74,6.189l-0.024-31.776l-42.339-24.441
				l0.008,11.974c0,3.429-2.767,6.205-6.189,6.205c-0.008,0-0.008,0-0.008,0c-3.421,0-6.197-2.768-6.197-6.189l-0.016-22.722
				c0-2.219,1.178-4.268,3.099-5.374c1.92-1.114,4.276-1.114,6.197,0l54.74,31.598c1.912,1.105,3.099,3.147,3.099,5.358l0.032,46.09
				c0,2.219-1.178,4.26-3.099,5.374C1613.782,1152.492,1612.709,1152.766,1611.635,1152.766z"/>
		</g>
	</g>
</g>
<g>
	<g>
		<path style="fill:#C65CFF;" d="M1060.099,1571.696L502.01,1249.467c-23.724-13.685-42.945-46.945-42.928-74.3l-0.017-214.525
			c0-13.701,4.794-23.286,12.573-27.772l0,0l42.959-24.805l0,0c7.762-4.454,18.494-3.793,30.339,3.05l558.122,322.213
			l-0.017,313.597L1060.099,1571.696z"/>
		<path style="fill:#113958;" d="M1060.098,1577.893c-1.073,0-2.138-0.274-3.099-0.823l-558.089-322.238
			c-25.829-14.896-46.042-49.891-46.026-79.666l-0.016-214.524c0-15.541,5.567-27.314,15.67-33.14l42.96-24.804
			c10.11-5.802,23.094-4.721,36.536,3.05l558.121,322.214c1.921,1.105,3.099,3.155,3.099,5.366l-0.016,313.596
			c0,2.219-1.186,4.261-3.099,5.374l-42.943,24.772C1062.237,1577.619,1061.164,1577.893,1060.098,1577.893z M525.757,911.421
			c-2.994,0-5.721,0.67-8.077,2.017l-42.944,24.796c-6.108,3.526-9.473,11.483-9.473,22.408l0.016,214.524
			c-0.016,25.337,17.849,56.258,39.829,68.934l554.991,320.447l36.747-21.205l0.016-306.439L541.838,916.48
			C536.02,913.123,530.542,911.421,525.757,911.421z"/>
	</g>
	<g>
		<path style="fill:#FFFFFF;" d="M502.01,1249.467c-23.724-13.685-42.945-46.945-42.928-74.3l-0.017-214.525
			c0-27.386,19.221-38.425,42.945-24.738l558.104,322.229l-0.015,313.564L502.01,1249.467z"/>
		<path style="fill:#113958;" d="M1060.098,1577.893c-1.073,0-2.138-0.274-3.099-0.823l-558.089-322.238
			c-25.829-14.896-46.042-49.891-46.026-79.666l-0.016-214.524c0-15.533,5.56-27.298,15.646-33.124
			c10.087-5.834,23.102-4.793,36.593,3.018l558.105,322.23c1.921,1.105,3.099,3.155,3.099,5.366l-0.016,313.564
			c0,2.211-1.178,4.26-3.099,5.374C1062.237,1577.619,1061.171,1577.893,1060.098,1577.893z M482.829,936.209
			c-3.018,0-5.754,0.678-8.118,2.041c-6.092,3.518-9.449,11.474-9.449,22.392l0.016,214.524
			c-0.016,25.337,17.849,56.258,39.829,68.934l0,0l548.794,316.864l0.016-299.258L498.911,941.268
			C493.093,937.911,487.606,936.209,482.829,936.209z"/>
	</g>
	<g>
		<path style="fill:#C65CFF;" d="M1469.329,1793.435L1469.329,1793.435c-7.794,4.47-18.51,3.824-30.372-3.017L1060.13,1571.68
			l-0.016-313.564l42.945-24.789l378.843,218.736c23.706,13.686,42.927,46.931,42.912,74.285l0.015,214.572
			c0,13.864-4.986,23.481-12.974,27.872l0.048,0.064L1469.329,1793.435z"/>
		<path style="fill:#113958;" d="M1458.153,1802.504c-6.971,0-14.557-2.259-22.295-6.714l-378.827-218.736
			c-1.92-1.114-3.098-3.163-3.098-5.374l-0.016-313.564c0-2.211,1.178-4.261,3.098-5.366l42.944-24.788
			c1.921-1.114,4.277-1.114,6.197,0l378.843,218.736c25.821,14.903,46.026,49.891,46.01,79.65l0.016,214.573
			c0,15.251-5.398,26.822-15.226,32.744c-0.25,0.21-0.516,0.387-0.799,0.565l-42.573,24.578c-0.008,0-0.008,0-0.016,0
			C1468.111,1801.277,1463.302,1802.504,1458.153,1802.504z M1469.329,1793.434h0.153H1469.329z M1066.328,1568.098l375.728,216.945
			c9.481,5.487,18.058,6.519,24.183,3.017l41.717-24.078c0.282-0.242,0.589-0.436,0.912-0.629
			c6.293-3.453,9.763-11.426,9.763-22.432l-0.016-214.573c0.016-25.321-17.849-56.233-39.813-68.918l-375.744-216.945
			l-36.747,21.206L1066.328,1568.098z"/>
	</g>
	<g>
		<path style="fill:#113958;" d="M1524.813,1526.349l0.015,214.572c0,13.864-4.986,23.481-12.974,27.872l0.048,0.064l-42.573,24.578
			c-7.794,4.47-18.51,3.824-30.372-3.017l-229.725-132.623l302.429-174.615C1519.728,1496.864,1524.828,1512.373,1524.813,1526.349z
			"/>
		<path style="fill:#113958;" d="M1458.153,1802.504c-6.98,0-14.557-2.259-22.295-6.714l-229.727-132.623
			c-1.92-1.114-3.098-3.163-3.098-5.374c0-2.211,1.178-4.26,3.098-5.374l302.429-174.607c2.953-1.695,6.705-0.702,8.44,2.219
			c9.045,15.355,14.024,31.8,14.008,46.325l0.016,214.564c0,15.251-5.398,26.822-15.226,32.744c-0.25,0.21-0.516,0.387-0.799,0.565
			l-42.573,24.578C1468.119,1801.277,1463.302,1802.504,1458.153,1802.504z M1221.625,1657.793l220.431,127.25
			c9.481,5.487,18.083,6.519,24.191,3.017l41.709-24.078c0.282-0.242,0.589-0.436,0.912-0.629
			c6.293-3.453,9.763-11.426,9.763-22.432l-0.016-214.573v-0.008c0.016-10.7-3.276-22.819-9.328-34.633L1221.625,1657.793z"/>
	</g>
	<g>
		<path style="fill:#C65CFF;" d="M1438.957,1790.417L1060.13,1571.68l-0.016-313.564l378.827,218.735
			c23.722,13.687,42.943,46.931,42.943,74.3v214.542C1481.885,1793.031,1462.68,1804.118,1438.957,1790.417z"/>
		<path style="fill:#113958;" d="M1458.169,1802.52c-6.972,0-14.564-2.259-22.311-6.73l-378.827-218.736
			c-1.92-1.114-3.098-3.163-3.098-5.374l-0.016-313.564c0-2.211,1.178-4.261,3.098-5.366c1.921-1.113,4.277-1.113,6.197,0
			l378.827,218.736c25.821,14.896,46.042,49.883,46.042,79.666v214.541c0,15.525-5.56,27.29-15.654,33.115
			C1468.135,1801.277,1463.318,1802.52,1458.169,1802.52z M1066.328,1568.098l375.728,216.945l0,0
			c9.473,5.503,18.051,6.536,24.175,3.034c6.101-3.518,9.457-11.474,9.457-22.383v-214.541c0-25.337-17.873-56.257-39.845-68.934
			l-369.531-213.37L1066.328,1568.098z"/>
	</g>
	<g>
		<path style="fill:#113958;" d="M609.328,1110.646c-21.077-12.168-38.167-2.357-38.167,21.964s17.09,53.854,38.167,66.037
			c21.076,12.168,38.151,2.34,38.167-21.964C647.495,1152.38,630.404,1122.814,609.328,1110.646z M766.772,1201.536
			c-21.093-12.168-38.2-2.356-38.184,21.981c0,24.304,17.074,53.836,38.151,66.004c21.093,12.184,38.184,2.357,38.184-21.947
			C804.923,1243.27,787.849,1213.703,766.772,1201.536z M924.184,1292.426c-21.076-12.168-38.184-2.356-38.167,21.98
			c0,24.288,17.091,53.853,38.167,66.021c21.06,12.168,38.149,2.34,38.149-21.964
			C962.333,1334.159,945.258,1304.594,924.184,1292.426z"/>
		<path style="fill:#113958;" d="M941.257,1391.869c-6.318,0-13.177-2.034-20.173-6.076c-23.142-13.354-41.265-44.719-41.265-71.387
			c-0.008-14.048,5.051-24.716,14.242-30.025c9.207-5.326,21.003-4.374,33.22,2.679c23.134,13.354,41.249,44.719,41.249,71.403
			c0,14.048-5.068,24.707-14.258,30.017C950.343,1390.747,945.953,1391.869,941.257,1391.869z M907.133,1293.386
			c-2.558,0-4.874,0.573-6.875,1.727c-5.197,3.002-8.053,9.853-8.045,19.286c0,21.915,16.058,49.689,35.068,60.663
			c8.207,4.745,15.598,5.697,20.794,2.679c5.196-2.993,8.061-9.844,8.061-19.277c0-21.916-16.049-49.698-35.052-60.671
			C916.017,1294.871,911.264,1293.386,907.133,1293.386z M783.838,1300.979c-6.318,0-13.193-2.041-20.197-6.092
			c-23.134-13.354-41.249-44.703-41.249-71.371c-0.008-14.048,5.043-24.716,14.234-30.025c9.223-5.31,21.02-4.374,33.245,2.679l0,0
			c23.134,13.354,41.249,44.719,41.249,71.403c0,14.048-5.059,24.699-14.25,30.008
			C792.94,1299.849,788.542,1300.979,783.838,1300.979z M749.714,1202.496c-2.566,0-4.882,0.573-6.883,1.727
			c-5.196,3.002-8.053,9.852-8.045,19.285c0,21.907,16.049,49.673,35.052,60.647c8.222,4.753,15.597,5.688,20.834,2.695
			c5.188-3.002,8.053-9.844,8.053-19.277c0-21.916-16.049-49.697-35.052-60.671l0,0
			C758.606,1203.981,753.845,1202.496,749.714,1202.496z M626.41,1210.089c-6.318,0-13.185-2.033-20.181-6.076
			c-23.142-13.379-41.265-44.743-41.265-71.403c0-14.048,5.059-24.708,14.25-30.017c9.231-5.31,21.02-4.349,33.212,2.687
			c23.142,13.354,41.265,44.719,41.265,71.403c-0.008,14.056-5.076,24.716-14.266,30.017
			C635.496,1208.967,631.098,1210.089,626.41,1210.089z M592.286,1111.606c-2.566,0-4.874,0.565-6.875,1.718
			c-5.196,3.002-8.053,9.852-8.053,19.285c0,22.278,15.735,49.495,35.068,60.671c8.214,4.736,15.589,5.681,20.802,2.687
			c5.196-3.002,8.061-9.852,8.069-19.293c0-21.908-16.058-49.689-35.068-60.663C601.162,1113.091,596.409,1111.606,592.286,1111.606
			z"/>
	</g>
	<g>
		<path style="fill:#FFFFFF;" d="M1414.201,1649.176l-19.834-71.121l-23.045,2.824l-15.17-24.918l-24.158-2.454l-19.689-22.818
			l-61.68-35.65c-9.974-31.71-32.423-62.858-58.647-78.011c-35.439-20.447-64.181-3.922-64.181,36.972
			c0,40.879,28.742,90.6,64.198,111.062c26.208,15.154,48.656,9.909,58.63-10.328L1414.201,1649.176z M1222.255,1508.547
			c0.015,19.269-13.589,27.097-30.291,17.463c-16.736-9.684-30.276-33.165-30.276-52.45c0-19.3,13.541-27.112,30.291-17.429
			C1208.699,1465.75,1222.27,1489.214,1222.255,1508.547z"/>
		<path style="fill:#113958;" d="M1414.201,1655.372c-1.065,0-2.138-0.274-3.098-0.823l-158.243-91.374
			c-5.084,7.407-12.015,12.588-20.334,15.105c-12.903,3.905-27.984,1.21-43.63-7.859c-37.11-21.407-67.296-73.638-67.296-116.42
			c0-22.061,7.763-38.691,21.859-46.833c14.137-8.182,32.445-6.568,51.618,4.495c25.991,15.016,49.625,45.929,60.711,79.206
			l59.614,34.455c0.605,0.347,1.138,0.791,1.59,1.315l18.083,20.955l21.706,2.203c1.929,0.193,3.655,1.291,4.664,2.937
			l13.088,21.512l19.083-2.34c3.001-0.322,5.89,1.533,6.721,4.486l19.834,71.121c0.678,2.421-0.186,5.019-2.171,6.552
			C1416.888,1654.937,1415.549,1655.372,1414.201,1655.372z M1250.625,1548.538c1.082,0,2.147,0.282,3.099,0.823l150.432,86.855
			l-14.323-51.368l-17.76,2.179c-2.428,0.306-4.785-0.856-6.044-2.921l-13.564-22.287l-21.1-2.146
			c-1.573-0.162-3.026-0.92-4.059-2.114l-19.011-22.028l-60.768-35.125c-1.347-0.775-2.348-2.025-2.816-3.51
			c-9.861-31.357-31.776-60.599-55.83-74.502c-15.178-8.763-29.13-10.344-39.216-4.494c-10.102,5.834-15.67,18.656-15.67,36.101
			c0,38.836,27.411,86.25,61.099,105.689c12.612,7.294,24.32,9.651,33.833,6.73c6.948-2.098,12.524-7.085,16.138-14.428
			c0.758-1.533,2.122-2.695,3.76-3.187C1249.415,1548.627,1250.02,1548.538,1250.625,1548.538z M1205.487,1536.354
			c-5.229,0-10.877-1.662-16.622-4.979c-18.72-10.828-33.373-36.222-33.373-57.815c0-11.635,4.244-20.496,11.95-24.941
			c7.738-4.454,17.558-3.688,27.636,2.146c18.728,10.772,33.39,36.157,33.374,57.783c0.008,11.611-4.237,20.463-11.951,24.925
			C1213.168,1535.402,1209.449,1536.354,1205.487,1536.354z M1178.407,1458.181c-1.799,0-3.413,0.387-4.769,1.17
			c-3.655,2.106-5.753,7.286-5.753,14.209c0,17.002,12.45,38.562,27.185,47.083c5.995,3.461,11.538,4.212,15.226,2.098
			c3.663-2.122,5.769-7.295,5.761-14.186c0-0.008,0-0.008,0-0.016c0.016-17.018-12.426-38.554-27.169-47.035
			C1185.088,1459.302,1181.473,1458.181,1178.407,1458.181z"/>
	</g>
</g>
</svg>
