<svg clip-rule="evenodd" fill-rule="evenodd" height="512" image-rendering="optimizeQuality" shape-rendering="geometricPrecision" text-rendering="geometricPrecision" viewBox="0 0 512 512" width="512" xmlns="http://www.w3.org/2000/svg"><g id="Layer_x0020_1"><path d="m476.992 254.602c-2.59961 0-4.99962-1.39843-6.30002-3.89883l-7.00042-13.9996c-4.02875-8.17562 8.51459-14.2725 12.5008-6.30002 4.69135 9.38034 12.0898 18.9095 3.90001 23.3989-1.0004.598821-1.99961.799609-3.1004.799609zm-42.0001 43.9997c-2.78741 0-5.42246-1.68071-6.49963-4.29923l-7.33939-17.8394-10.102 5.25238 5.14135 5.28427c15.8044 16.7528 6.66616 44.4887-15.8138 48.8576 12.978 24.0993-13.0713 49.9691-37.8887 39.4029-3.64844 24.9981-33.8753 32.3989-50.7628 15.1524-6.05789 21.7052-32.4237 29.4001-48.6356 13.1882l-27.4973-27.4973-18.3969 18.3969c-14.3457 15.3815-41.4261 4.72088-41.4261-16.6004-13.2437.0885829-24.1087-11.889-24.0875-24.7997-14.5229.0897641-24.3709-9.59176-24.2375-24.1997-16.6548.377954-29.1946-17.0941-22.9902-32.6765l-17.1438-9.7146c-3.74647 7.25199-7.71735 20.8394-16.5178 16.2922l-66.9994-34.9997c-3.43111-1.80473-4.6949-6.1323-2.9008-9.49964l81.0002-150.998c1.86615-3.39686 6.16655-4.64765 9.60003-2.8004l64.0006 34.9997c3.30001 1.80001 4.60041 6.00002 2.89962 9.40042l-9.27759 17.9599 14.876 7.43742c17.0351-30.5304 43.5864-42.3143 70.1636-27.7985 24.2233-17.4851 40.3454-11.2489 42.6344-10.2 6.40041 2.8004 56.4002 24.7997 68.1002 30.1005 2.29725.0921263 9.0957-4.96065 25.4245-13.513l-6.82325-16.5863c-1.4504-3.52324.250394-7.75514 3.79962-9.19963l66.9994-27.0001c3.49962-1.39961 7.50002.199607 9.00003 3.70041l67.9998 155.999c1.59804 3.52678-.151182 7.73506-3.69922 9.19963-8.29963 3.42639-69.4124 29.5985-72.6002 29.5985zm-19.1694-35.0954-40.1186-97.5204c-26.517 15.4288-30.2021 16.3205-34.8119 14.0162l-69.7998-30.9001c-12.6449-5.22403-40.2462 15.0012-47.099 26.2005l-13.8 25.6997c-10.0666 18.3957 18.3367 28.5048 25.6005 13.6996 10.0973-20.5808 7.43979-17.8465 28.3985-27.4005 1.99961-.900003 4.30041-.799609 6.19963.199607 30.9001 16.9997 62.4002 33.1997 92.7995 48.9002 0 0 .100394 0 .100394.100394 7.91105 4.27324 21.6107 17.9741 37.7151 34.7092l14.8158-7.70435zm-36.6296-126.004 59.5998 144.998 56.8998-23.5997-62.4002-143.299-54.0994 21.9001zm2.81339 178.412c4.80946 1.42205 5.15907 6.29057 12.7867 6.48663 12.8327.329529 20.5536-15.7914 11.1-25.9997-11.8134-12.7571-40.0371-42.6745-49.2002-47.5986-29.5005-15.1997-60.0002-31.0005-90.0003-47.4001-15.156 6.99215-11.1036 4.04529-18.3993 19.3005-15.1347 31.6466-69.7561 9.03428-50.5005-26.4001l14.2997-26.5005c2.60434-3.85159 6.38506-7.84963 10.0819-11.3244-21.1394-7.59687-37.5403 6.30002-48.9805 30.2221-1.65591 3.463-5.87482 4.91576-9.30121 3.20198l-21.2009-10.6004-48.9816 94.8239 19.1245 10.8366c7.16577-7.16577 13.4209-13.9052 24.4595-13.5603 9.28467.290552 18.0957 7.00868 21.4359 15.5634 6.32837-6.32837 12.0744-11.5642 21.6638-11.5642 12.0059 0 21.7229 8.6953 23.6576 20.3339 21.3119-4.77285 38.0186 17.1969 26.6706 35.9907 13.2674 4.65828 20.8843 21.1276 14.1154 33.8245l28.154 28.1505c14.5997 14.5997 35.1875-8.48979 21.3993-20.7993l-28.4989-29.2997c-6.32837-6.51262 3.72521-16.2591 10.0004-9.79964l46.8001 47.8005c6.30002 5.40002 15.9 5.50041 22.2001.100394 5.5571-5.56419 5.30789-14.967-.646065-21.8481l-47.2537-47.2537c-6.37561-6.37561 3.52442-16.2756 9.90003-9.90003l57.0002 57.0002c12.6036 12.6036 35.9092-6.19136 21.0001-21.1005l-57.0002-57.0002c-6.37561-6.37561 3.52442-16.2756 9.90003-9.90003l44.2135 44.2135zm-110.914-166.912s.100394 0 0 0zm-254.5982129 109.698606 54.4998 28.5001 71.5998-138.698-51.7998-28.3005-74.2998 138.499zm177.142 111.157c-3.11694 4.15631-6.53978 9.37916-1.04174 14.543 4.08663 3.83859 10.0973 5.16734 14.2004.799609 5.07285-5.40002 20.5075-19.519 23.8005-23.8005 3.49844-4.54726 4.16576-9.12641-.399214-13.8-5.33742-5.4638-10.1126-3.23623-15.1831.881105l-21.3768 21.3768zm-34.0288-33.7867 28.2863-29.3706c8.78034-8.94688-5.28899-24.0768-15.1997-14.1l-29.7308 30.1288c-2.55355 4.24726-2.33623 10.004.731105 13.9713 4.29804 4.29686 11.6776 2.50276 15.913-.629529zm43.3856-24.5705c-10.2449 10.5461-24.6261 26.2985-34.8615 35.7391-8.60554 7.93703 5.30198 23.1213 14.9623 13.4611l33.9993-33.9993c4.20001-4.20001 4.20001-10.6996.199607-14.8997-4.29923-3.5008-10.9996-3.60119-14.2997-.301182zm-70.3349 1.76693c6.08151-8.0764 20.2843-14.2666 10.1374-25.0666-8.03743-8.55475-17.4957 4.09371-22.8013 9.39924-9.02601 9.02601 3.74056 22.5745 12.6638 15.6674zm-96.6653-56.6671c-5.26537 0-8.87601-5.89018-6.00002-10.5992 5.14962-8.43073 9.67916-20.1001 17.5997-15.3 7.97483 4.83309-.766538 14.6067-5.70002 22.6005-1.29922 2.09883-3.59883 3.29883-5.89962 3.29883z" fill="#52050d"/><path d="m327.893 281.6c-6.37561-6.37561 3.52442-16.2756 9.90003-9.90003l44.2135 44.2135c4.80946 1.42205 5.15907 6.29057 12.7867 6.48663 12.8327.329529 20.5536-15.7914 11.1-25.9997-11.8134-12.7571-40.0371-42.6745-49.2002-47.5986-29.5005-15.1997-60.0002-31.0005-90.0003-47.4001-15.156 6.99215-11.1036 4.04529-18.3993 19.3005-15.1347 31.6466-69.7561 9.03428-50.5005-26.4001l14.2997-26.5005c2.60434-3.85159 6.38506-7.84963 10.0819-11.3244-21.1394-7.59687-37.5403 6.30002-48.9805 30.2221-1.65591 3.463-5.87482 4.91576-9.30121 3.20198l-21.2009-10.6004-48.9816 94.8239 19.1245 10.8366c7.16577-7.16577 13.4209-13.9052 24.4595-13.5603 9.28467.290552 18.0957 7.00868 21.4359 15.5634 6.32837-6.32837 12.0744-11.5642 21.6638-11.5642 12.0059 0 21.7229 8.6953 23.6576 20.3339 21.3119-4.77285 38.0186 17.1969 26.6706 35.9907 13.2674 4.65828 20.8843 21.1276 14.1154 33.8245l28.154 28.1505c14.5997 14.5997 35.1875-8.48979 21.3993-20.7993l-28.4989-29.2997c-6.32837-6.51262 3.72521-16.2591 10.0004-9.79964l46.8001 47.8005c6.30002 5.40002 15.9 5.50041 22.2001.100394 5.5571-5.56419 5.30789-14.967-.646065-21.8481l-47.2537-47.2537c-6.37561-6.37561 3.52442-16.2756 9.90003-9.90003l57.0002 57.0002c12.6036 12.6036 35.9092-6.19136 21.0001-21.1005l-57.0002-57.0002z" fill="#ff4500"/><path d="m270.392 187.501c30.9001 16.9997 62.4002 33.1997 92.7995 48.9002 0 0 .100394 0 .100394.100394 7.91105 4.27324 21.6107 17.9741 37.7151 34.7092l14.8158-7.70435-40.1186-97.5204c-26.517 15.4288-30.2021 16.3205-34.8119 14.0162l-69.7998-30.9001c-12.6449-5.22403-40.2462 15.0012-47.099 26.2005l-13.8 25.6997c-10.0666 18.3957 18.3367 28.5048 25.6005 13.6996 10.0973-20.5808 7.43979-17.8465 28.3985-27.4005 1.99961-.900003 4.30041-.799609 6.19963.199607z" fill="#ff4500"/><path d="m379.193 137.502 59.5998 144.998 56.8998-23.5997-62.4002-143.299-54.0994 21.9001zm84.4987 99.2011c-4.02875-8.17562 8.51459-14.2725 12.5008-6.30002 4.69135 9.38034 12.0898 18.9095 3.90001 23.3989-1.0004.598821-1.99961.799609-3.1004.799609-2.59961 0-4.99962-1.39843-6.30002-3.89883l-7.00042-13.9996z" fill="#ffd300"/><g fill="#ff4500"><path d="m230.596 361.401c3.49844-4.54726 4.16576-9.12641-.399214-13.8-5.33742-5.4638-10.1126-3.23623-15.1831.881105l-21.3768 21.3768c-3.11694 4.15631-6.53978 9.37916-1.04174 14.543 4.08663 3.83859 10.0973 5.16734 14.2004.799609 5.07285-5.40002 20.5075-19.519 23.8005-23.8005z"/><path d="m183.094 360.702 33.9993-33.9993c4.20001-4.20001 4.20001-10.6996.199607-14.8997-4.29923-3.5008-10.9996-3.60119-14.2997-.301182-10.2449 10.5461-24.6261 26.2985-34.8615 35.7391-8.60554 7.93703 5.30198 23.1213 14.9623 13.4611z"/><path d="m159.608 336.072 28.2863-29.3706c8.78034-8.94688-5.28899-24.0768-15.1997-14.1l-29.7308 30.1288c-2.55355 4.24726-2.33623 10.004.731105 13.9713 4.29804 4.29686 11.6776 2.50276 15.913-.629529z"/><path d="m132.658 313.268c6.08151-8.0764 20.2843-14.2666 10.1374-25.0666-8.03743-8.55475-17.4957 4.09371-22.8013 9.39924-9.02601 9.02601 3.74056 22.5745 12.6638 15.6674z"/></g><path d="m70.9939 287.201 71.5998-138.698-51.7998-28.3005-74.2998 138.499 54.4998 28.5001zm-23.4013-56.4994c7.97483 4.83309-.766538 14.6067-5.70002 22.6005-1.29922 2.09883-3.59883 3.29883-5.89962 3.29883-5.26537 0-8.87601-5.89018-6.00002-10.5992 5.14962-8.43073 9.67916-20.1001 17.5997-15.3z" fill="#ffd300"/></g></svg>