<svg clip-rule="evenodd" fill-rule="evenodd" height="7.111in" image-rendering="optimizeQuality" shape-rendering="geometricPrecision" text-rendering="geometricPrecision" viewBox="0 0 7111 7111" width="7.111in" xmlns="http://www.w3.org/2000/svg"><g id="Layer_x0020_1"><path d="m3555 5958c-53 0-105-6-153-18v20c0 465-374 846-833 846-366 0-688-234-803-569-46 7-92 12-138 12-458 0-877-373-975-895-31-130-36-271-11-415-361-46-643-356-643-731 0-186 138-509 216-664-21-70-55-131-89-197-59-111-127-237-127-416 0-382 282-698 645-745-25-146-22-287 11-428 107-573 603-968 1112-883 114-336 436-569 802-569 459 0 833 380 833 847v8c100-11 205-11 306 0v-8c0-467 373-847 833-847 365 0 687 233 803 568 508-84 1005 309 1112 883 32 142 36 282 11 428 363 46 645 362 645 744 0 179-68 306-128 417-35 64-67 126-89 197 79 154 215 478 215 664 0 375-282 685-644 731 25 144 21 284-11 415-97 522-517 894-975 894-46 0-92-4-138-11-114 336-436 570-801 570-460 0-833-381-833-848v-18c-49 12-100 18-153 18zm-347-106c-93-67-159-161-184-269h-205c-122 0-222-100-222-222v-167c0-46 14-89 38-125-24-35-38-78-38-125v-166c0-46 14-90 38-125-24-36-38-79-38-125v-167c0-77 40-146 100-185-50-334-169-490-294-657-150-201-306-409-306-908 0-684 474-1260 1111-1416v-42c0-360-286-653-639-653-311 0-581 218-641 519-11 61-73 95-138 69-5-2-12-5-18-6-13-3-28-8-45-17-403-61-796 263-882 731 0 1 0 3-1 4-34 143-30 288 9 440 5 12 7 24 7 38 0 266 198 478 459 498 97-127 234-218 391-259 52-14 106 18 118 69 14 52-18 106-69 118-263 67-446 339-375 604 17 65-36 123-93 123-43 0-82-30-94-73-36-134-28-272 21-400-286-58-503-286-545-578-270 31-481 266-481 552 0 228 162 359 220 603 5 23 3 47-10 69-86 158-208 468-208 604 0 278 210 508 479 538 42-277 258-512 532-576-42-119-52-252-24-385 11-53 64-86 116-75s86 62 75 115c-27 122-8 243 45 346 21 15 35 37 39 64 68 94 168 166 289 197 119 31 82 218-48 190-167-43-304-141-398-271-240 31-434 241-438 487 1 12 0 24-3 36-43 155-48 302-14 437 0 1 1 4 1 6 86 468 479 791 882 730 17-8 32-12 45-16 37-10 58-29 104-6 27 14 47 39 52 68 60 301 330 519 641 519 353 0 639-293 639-652zm139-4486c-18 8-31 7-50 9-574 118-1007 628-1007 1238 0 433 125 600 269 791 127 168 270 358 329 735h570v-480l-324-249c-43-34-50-95-18-136 33-43 94-50 136-18l206 158v-81c0-54 43-97 97-97s97 43 97 97v81l204-157c43-33 104-25 136 18 34 43 25 104-18 136l-322 248v480h567c59-377 202-567 329-735 144-191 269-358 269-791 0-610-432-1119-1007-1238-24-2-23-2-46-9-68-11-139-17-211-17-70 0-139 5-206 17zm-17 4333c17 4 32 13 44 25 52 26 114 40 181 40 66 0 126-14 178-39 13-14 31-24 50-28 44-30 78-69 98-114h-652c21 46 55 85 101 116zm-1533-4010c-41 0-80-3-120-10-53-10-89-60-79-112 10-53 60-89 112-79 270 48 539-134 582-406 9-53 59-89 113-81 53 9 89 59 80 113-54 338-351 575-688 575zm2105-494c637 156 1111 732 1111 1416 0 900-490 819-603 1563 62 39 103 109 103 187v167c0 46-14 89-39 125 25 35 39 79 39 125v166c0 47-14 90-39 125 25 36 39 79 39 125v167c0 122-100 222-222 222h-205c-25 108-91 202-184 269v106c0 360 286 653 639 653 311 0 581-218 640-519 13-66 81-92 139-68 4 1 11 4 18 5 13 3 28 8 45 17 402 61 795-263 882-731 0-1 1-4 1-5 33-135 29-282-14-438-3-12-4-24-3-36-5-245-199-454-438-485-93 130-231 230-399 274-7-1-15 0-24 0-43 0-82-29-94-72-14-52 18-106 69-118 122-32 222-104 290-199 4-27 19-51 40-66 52-102 70-222 44-342-11-53 22-104 75-116 53-11 104 23 115 75 29 133 19 264-23 383 274 63 490 298 532 575 270-31 480-260 480-538 0-136-122-446-210-606-11-20-15-45-9-69 58-244 219-375 219-603 0-285-210-520-479-552-41 294-259 524-547 581 48 129 56 268 22 402-13 51-68 79-118 68-52-14-84-67-70-118 72-270-111-534-375-604-51-14-83-67-69-118 14-52 67-84 118-70 158 41 294 131 391 258 259-19 456-227 460-490-1-12 0-24 3-36 43-157 47-306 13-453 0-1 0-3-2-4-86-468-479-792-882-730-16 8-32 12-44 16-38 10-59 28-104 6-28-14-48-39-53-68-58-299-328-517-639-517-353 0-639 293-639 653zm1411 494c-337 0-634-240-689-576-8-53 27-103 81-113 53-8 103 26 112 81 48 272 309 454 582 405 53-10 103 27 113 79 10 53-27 103-79 113-39 8-80 11-120 11zm-1758 2644h-736c-16 0-28 13-28 28v167c0 15 12 28 28 28h1472c15 0 28-13 28-28v-167c0-15-13-28-28-28zm-736 417c-16 0-28 12-28 28v166c0 16 12 28 28 28h1472c15 0 28-12 28-28v-166c0-16-13-28-28-28zm0 417c-16 0-28 12-28 27v167c0 15 12 28 28 28h1472c15 0 28-13 28-28v-167c0-15-13-27-28-27z" fill="#4d4d4d"/><path d="m3555 3236c54 0 97 43 97 97v81l204-157c43-33 104-25 136 18 34 43 25 104-18 136l-322 248v480h567c59-377 202-567 329-735 144-191 269-358 269-791 0-610-432-1119-1007-1238-24-2-23-2-46-9-68-11-139-17-211-17-70 0-139 5-206 17-18 8-31 7-50 9-574 118-1007 628-1007 1238 0 433 125 600 269 791 127 168 270 358 329 735h570v-480l-324-249c-43-34-50-95-18-136 33-43 94-50 136-18l206 158v-81c0-54 43-97 97-97z" fill="#ffe600"/><g fill="#99a4ac"><path d="m4291 5167h-1472c-16 0-28 12-28 27v167c0 15 12 28 28 28h1472c15 0 28-13 28-28v-167c0-15-13-27-28-27z"/><path d="m2819 4972h1472c15 0 28-12 28-28v-166c0-16-13-28-28-28h-1472c-16 0-28 12-28 28v166c0 16 12 28 28 28z"/><path d="m2819 4556h1472c15 0 28-13 28-28v-167c0-15-13-28-28-28h-736-736c-16 0-28 13-28 28v167c0 15 12 28 28 28z"/><path d="m3881 5583h-652c21 46 55 85 101 116 17 4 32 13 44 25 52 26 114 40 181 40 66 0 126-14 178-39 13-14 31-24 50-28 44-30 78-69 98-114z"/></g><path d="m4086 5583c-25 108-91 202-184 269v106c0 360 286 653 639 653 311 0 581-218 640-519 13-66 81-92 139-68 4 1 11 4 18 5 13 3 28 8 45 17 402 61 795-263 882-731 0-1 1-4 1-5 33-135 29-282-14-438-3-12-4-24-3-36-5-245-199-454-438-485-93 130-231 230-399 274-7-1-15 0-24 0-43 0-82-29-94-72-14-52 18-106 69-118 122-32 222-104 290-199 4-27 19-51 40-66 52-102 70-222 44-342-11-53 22-104 75-116 53-11 104 23 115 75 29 133 19 264-23 383 274 63 490 298 532 575 270-31 480-260 480-538 0-136-122-446-210-606-11-20-15-45-9-69 58-244 219-375 219-603 0-285-210-520-479-552-41 294-259 524-547 581 48 129 56 268 22 402-13 51-68 79-118 68-52-14-84-67-70-118 72-270-111-534-375-604-51-14-83-67-69-118 14-52 67-84 118-70 158 41 294 131 391 258 259-19 456-227 460-490-1-12 0-24 3-36 43-157 47-306 13-453 0-1 0-3-2-4-86-468-479-792-882-730-16 8-32 12-44 16-38 10-59 28-104 6-28-14-48-39-53-68-58-299-328-517-639-517-353 0-639 293-639 653v42c637 156 1111 732 1111 1416 0 900-490 819-603 1563 62 39 103 109 103 187v167c0 46-14 89-39 125 25 35 39 79 39 125v166c0 47-14 90-39 125 25 36 39 79 39 125v167c0 122-100 222-222 222zm1227-3894c-337 0-634-240-689-576-8-53 27-103 81-113 53-8 103 26 112 81 48 272 309 454 582 405 53-10 103 27 113 79 10 53-27 103-79 113-39 8-80 11-120 11z" fill="#f3a766"/><path d="m3208 5852c-93-67-159-161-184-269h-205c-122 0-222-100-222-222v-167c0-46 14-89 38-125-24-35-38-78-38-125v-166c0-46 14-90 38-125-24-36-38-79-38-125v-167c0-77 40-146 100-185-50-334-169-490-294-657-150-201-306-409-306-908 0-684 474-1260 1111-1416v-42c0-360-286-653-639-653-311 0-581 218-641 519-11 61-73 95-138 69-5-2-12-5-18-6-13-3-28-8-45-17-403-61-796 263-882 731 0 1 0 3-1 4-34 143-30 288 9 440 5 12 7 24 7 38 0 266 198 478 459 498 97-127 234-218 391-259 52-14 106 18 118 69 14 52-18 106-69 118-263 67-446 339-375 604 17 65-36 123-93 123-43 0-82-30-94-73-36-134-28-272 21-400-286-58-503-286-545-578-270 31-481 266-481 552 0 228 162 359 220 603 5 23 3 47-10 69-86 158-208 468-208 604 0 278 210 508 479 538 42-277 258-512 532-576-42-119-52-252-24-385 11-53 64-86 116-75s86 62 75 115c-27 122-8 243 45 346 21 15 35 37 39 64 68 94 168 166 289 197 119 31 82 218-48 190-167-43-304-141-398-271-240 31-434 241-438 487 1 12 0 24-3 36-43 155-48 302-14 437 0 1 1 4 1 6 86 468 479 791 882 730 17-8 32-12 45-16 37-10 58-29 104-6 27 14 47 39 52 68 60 301 330 519 641 519 353 0 639-293 639-652zm-1411-4163c-41 0-80-3-120-10-53-10-89-60-79-112 10-53 60-89 112-79 270 48 539-134 582-406 9-53 59-89 113-81 53 9 89 59 80 113-54 338-351 575-688 575z" fill="#f3a766"/></g></svg>