<svg id="Capa_1" enable-background="new 0 0 512 512" viewBox="0 0 512 512" xmlns="http://www.w3.org/2000/svg"><g><g clip-rule="evenodd" fill-rule="evenodd"><circle cx="256" cy="342.249" fill="#fff" r="112.5"/><path d="m152.861 387.249c-6.021-13.78-9.361-29-9.361-45 0-32.596 13.863-61.954 36.014-82.5h-130.263v127.5z" fill="#ee795f"/><path d="m49.251 259.748h130.263c2.861-2.654 5.861-5.161 8.987-7.509v-22.49h-139.25z" fill="#fff"/><path d="m121 154.748h105v45.001h-105z" fill="#ee795f"/><path d="m121 124.748h105v30h-105z" fill="#fff"/><path d="m285.998 154.749h105v45h-105z" fill="#ee795f"/><path d="m285.998 124.748h105v30.001h-105z" fill="#fff"/><path d="m338.498 229.749h124.251v30h-124.251z" fill="#fff"/><path d="m462.749 259.748h-124.251v6.012c8.533 9.2 15.547 19.829 20.641 31.489h103.609v-37.501z" fill="#ee795f"/><path d="m49.251 259.748h22.5v127.5h-22.5z" fill="#d34f30"/><path d="m49.251 229.749h22.5v30h-22.5z" fill="#abe6fc"/><path d="m121 124.748h22.5v30h-22.5z" fill="#abe6fc"/><path d="m121 154.748h22.5v45.001h-22.5z" fill="#d34f30"/><path d="m285.998 124.748h22.5v30h-22.5z" fill="#abe6fc"/><path d="m285.998 154.748h22.5v45.001h-22.5z" fill="#d34f30"/><path d="m338.498 229.749h22.5v30h-22.5z" fill="#abe6fc"/><path d="m360.998 259.748h-22.5v6.012c8.533 9.2 15.547 19.829 20.641 31.489h1.859z" fill="#d34f30"/><path d="m143.5 342.249c0 61.771 50.013 112.5 112.5 112.5 3.795 0 7.545-.191 11.243-.558-57.13-5.659-101.243-53.929-101.243-111.942 0-58.552 44.596-106.311 101.264-111.942-3.703-.367-7.459-.558-11.264-.558-61.896 0-112.5 50.128-112.5 112.5z" fill="#abe6fc"/></g><g><path d="m512 177.25v-15h-41.751v-15h-15v15h-41.751v15h41.751v14.999h-41.751v15h41.751v15h-124.251v26.398c-18.732-15.039-42.053-24.58-67.498-26.157v-34.634l14.998-14.998v34.391h120v-90.001h-105v-22.499h30v-15h-30v-15h-15v15h-30v15h30v56.895l-22.498 22.498-22.5-22.5v-34.394h-120v90.001h120v-34.393l15 15v34.635c-19.03 1.18-36.874 6.809-52.498 15.867v-16.108h-109.251v-142.499h71.75v-15h-71.75v-15h-15v15h-71.751v15h71.751v142.498h-30v67.499h15v-22.5h15v112.501h-15v-75.001h-15v90.001h30v52.5h-52.708v15h130.723l27.153-29.825c21.133 18.556 48.814 29.825 79.081 29.825s57.948-11.269 79.081-29.825l27.153 29.825h58.764v-15h-15v-142.499h49.251v142.499h-19.251v15h56.75v-15h-22.499v-240h41.751v-15h-41.751v-14.999zm-218.502 14.999v-30.001h90v30.001zm90-60.001v15h-90v-15zm-164.998 0v15h-90v-15zm-90 60.001v-30.001h90v30.001zm326.749 45v14.999h-109.251v-14.999zm-274.247 0v11.398c-1.455 1.168-2.882 2.368-4.28 3.601h-89.971v-14.999zm-124.251 14.999v-14.999h15v14.999zm30 15h75.649c-16.507 20.559-26.4 46.645-26.4 75.001 0 13.091 2.115 25.696 6.008 37.5h-55.257zm0 127.501h19.251v52.5h-19.251zm56.386 52.5h-22.135v-52.5h27.109c4.818 9.86 10.949 18.963 18.163 27.087zm7.863-105c0-57.897 47.103-105 105-105s105 47.103 105 105-47.103 105-105 105-105-47.103-105-105zm239.998 105h-22.135l-23.137-25.413c18.823-21.196 30.274-49.077 30.274-79.587 0-13.091-2.115-25.695-6.007-37.499h21.005zm-27.108-157.499c-3.931-8.045-8.736-15.585-14.29-22.502h105.649v22.502z"/><path d="m271 259.748h15v15h-15z"/><path d="m300.999 274.749h15v15h-15z"/></g></g><g/><g/><g/><g/><g/><g/><g/><g/><g/><g/><g/><g/><g/><g/><g/></svg>