<svg id="Layer_30" enable-background="new 0 0 496.016 496.015" height="512" viewBox="0 0 496.016 496.015" width="512" xmlns="http://www.w3.org/2000/svg"><g><g><g><path d="m488.016 440.015-34.88 41.85c-1.62 1.95-3.63 3.49-5.87 4.54-2.25 1.05-4.71 1.61-7.25 1.61-5.07 0-9.88-2.25-13.12-6.15l-34.88-41.85z" fill="#969faa"/></g><g><path d="m104.016 440.015-34.88 41.85c-1.62 1.95-3.63 3.49-5.87 4.54-2.25 1.05-4.71 1.61-7.25 1.61-5.07 0-9.88-2.25-13.12-6.15l-34.88-41.85z" fill="#969faa"/></g><g><path d="m104.016 408.015h288v32h-288z" fill="#aab2bd"/></g><g><path d="m488.016 248.015v192h-96v-32-160l33.75-27c2.03-1.62 4.29-2.87 6.7-3.72 2.41-.84 4.96-1.28 7.55-1.28 5.18 0 10.2 1.76 14.25 5z" fill="#ccd1d9"/></g><g><path d="m104.016 408.015v32h-96v-192l33.75-27c2.03-1.62 4.29-2.87 6.7-3.72 2.41-.84 4.96-1.28 7.55-1.28 5.18 0 10.2 1.76 14.25 5l33.75 27z" fill="#ccd1d9"/></g><g><circle cx="440.016" cy="392.015" fill="#fcd770" r="16"/></g><g><circle cx="56.016" cy="272.015" fill="#fcd770" r="16"/></g><g><circle cx="408.016" cy="88.015" fill="#dfb28b" r="80"/></g><g><path d="m479.616 123.685.02.01c-5.58 11.19-13.71 20.88-23.62 28.33v-.01c-13.25 0-24-10.75-24-24s10.75-24 24-24c11.78 0 21.57 8.49 23.6 19.67z" fill="#d3a06c"/></g><g><circle cx="408.016" cy="56.015" fill="#d3a06c" r="16"/></g><g><path d="m384.016 136.015c0 9.91-6.01 18.42-14.59 22.08-13.24-7.3-24.19-18.25-31.49-31.49 3.66-8.58 12.17-14.59 22.08-14.59 13.25 0 24 10.75 24 24z" fill="#d3a06c"/></g><g><path d="m104.016 248.015h288v160h-288z" fill="#69d6f4"/></g><g><path d="m335.746 288.285c5.11 5.11 8.27 12.16 8.27 19.95 0 10.96-3.1 21.46-8.65 30.44-5.55 8.97-13.55 16.44-23.35 21.34 0-17.25-7.86-33.4-21.09-44.04h-.01c3.31-7.34 5.1-15.41 5.1-23.74v-12.22h19.78c7.79 0 14.84 3.16 19.95 8.27z" fill="#ff826e"/></g><g><path d="m296.016 280.015v12.22c0 8.33-1.79 16.4-5.1 23.74-5.37 11.95-14.75 21.96-26.9 28.04v-16c0-4.42-1.79-8.42-4.68-11.32-2.9-2.89-6.9-4.68-11.32-4.68-8.84 0-16 7.16-16 16v16c-10.41-5.21-18.79-13.3-24.36-23.03-4.91-8.6-7.64-18.47-7.64-28.75v-12.22-32-25.52c0-13.08 1.7-26.01 5.01-38.48h85.98c3.31 12.47 5.01 25.4 5.01 38.48v25.52z" fill="#e6e9ed"/></g><g><circle cx="280.016" cy="80.015" fill="#69d6f4" r="16"/></g><g><path d="m291.006 184.015h-85.98c5.57-21.08 15.71-40.86 29.87-57.85 1.62-1.95 3.63-3.49 5.87-4.54 2.25-1.05 4.71-1.61 7.25-1.61s5 .56 7.25 1.61c2.24 1.05 4.25 2.59 5.87 4.54 11.27 13.52 19.99 28.8 25.89 45.11 1.52 4.18 2.85 8.44 3.98 12.74z" fill="#ff826e"/></g><g><path d="m264.016 344.015v16c0 8.84-7.16 16-16 16s-16-7.16-16-16v-16-16c0-8.84 7.16-16 16-16 4.42 0 8.42 1.79 11.32 4.68 2.89 2.9 4.68 6.9 4.68 11.32z" fill="#ccd1d9"/></g><g><circle cx="248.016" cy="232.015" fill="#69d6f4" r="16"/></g><g><circle cx="208.016" cy="40.015" fill="#69d6f4" r="16"/></g><g><path d="m200.016 292.235c0 10.28 2.73 20.15 7.64 28.75-9.91 10.38-15.64 24.3-15.64 39.03-9.8-4.9-17.8-12.37-23.35-21.34-5.55-8.98-8.65-19.48-8.65-30.44 0-7.79 3.16-14.84 8.27-19.95s12.16-8.27 19.95-8.27h11.78z" fill="#ff826e"/></g><g><circle cx="136.016" cy="200.015" fill="#69d6f4" r="16"/></g><g><circle cx="88.016" cy="88.015" fill="#69d6f4" r="64"/></g></g><g><path d="m440.016 208.015c-6.968 0-13.803 2.397-19.245 6.75l-31.562 25.25h-85.193v-17.518c0-37.001-13.045-73.033-36.732-101.457-4.779-5.735-11.802-9.025-19.268-9.025s-14.489 3.29-19.267 9.024c-23.688 28.424-36.733 64.456-36.733 101.458v17.518h-85.194l-31.562-25.25c-5.441-4.353-12.276-6.75-19.244-6.75s-13.803 2.397-19.245 6.75l-36.755 29.405v198.742l36.732 44.079c4.779 5.735 11.802 9.025 19.268 9.025s14.489-3.29 19.268-9.024l32.479-38.976h280.506l32.479 38.975c4.779 5.735 11.802 9.025 19.268 9.025s14.489-3.29 19.268-9.024l36.732-44.079v-198.743l-36.756-29.404c-5.441-4.353-12.276-6.751-19.244-6.751zm-56 224h-272v-16h272zm-80-144h11.777c11.151 0 20.223 9.072 20.223 20.223 0 14.901-6.488 28.624-17.479 37.958-2.679-12.324-8.926-23.586-18.089-32.46 2.325-6.788 3.567-14.029 3.567-21.498v-4.223zm-56 16c-13.233 0-24 10.767-24 24v.871c-10.091-9.284-16-22.428-16-36.648v-69.741c0-10.304 1.128-20.523 3.314-30.482h73.372c2.186 9.959 3.314 20.178 3.314 30.482v69.741c0 14.22-5.909 27.364-16 36.648v-.871c0-13.233-10.767-24-24-24zm8 24v32c0 4.411-3.589 8-8 8s-8-3.589-8-8v-32c0-4.411 3.589-8 8-8s8 3.589 8 8zm-14.976-196.733c1.73-2.076 4.272-3.267 6.976-3.267s5.246 1.191 6.976 3.268c11.109 13.331 19.609 28.526 25.204 44.732h-64.359c5.595-16.206 14.094-31.401 25.203-44.733zm-43.005 188.585c-6.179 7.754-10.447 16.74-12.537 26.332-10.994-9.334-17.482-23.058-17.482-37.961 0-11.151 9.072-20.223 20.223-20.223h3.777v4.223c0 9.768 2.119 19.147 6.019 27.629zm-6.019-47.852h-3.777c-19.973 0-36.223 16.25-36.223 36.223 0 25.118 13.956 47.7 36.422 58.932l11.578 5.789v-12.944c0-9.133 2.541-17.921 7.261-25.529 4.667 5.574 10.296 10.407 16.739 14.257v11.273c0 13.233 10.767 24 24 24s24-10.767 24-24v-11.273c8.456-5.052 15.513-11.799 20.828-19.692 7.173 8.622 11.172 19.488 11.172 30.965v12.944l11.578-5.789c22.466-11.232 36.422-33.814 36.422-58.933 0-19.973-16.25-36.223-36.223-36.223h-11.777v-16h80v144h-272v-144h80zm-145.25-44.755c2.616-2.092 5.901-3.245 9.25-3.245s6.634 1.152 9.25 3.245l30.75 24.601v180.155h-80v-180.155zm16.226 249.488c-1.73 2.076-4.272 3.267-6.976 3.267s-5.246-1.191-6.976-3.268l-23.944-28.732h61.839zm384 0c-1.73 2.076-4.272 3.267-6.976 3.267s-5.246-1.191-6.976-3.268l-23.944-28.732h61.839zm33.024-44.733h-80v-180.154l30.75-24.601c2.616-2.092 5.901-3.245 9.25-3.245s6.634 1.152 9.25 3.245l30.75 24.601z"/><path d="m440.016 368.015c-13.234 0-24 10.766-24 24s10.766 24 24 24 24-10.766 24-24-10.766-24-24-24zm0 32c-4.411 0-8-3.589-8-8s3.589-8 8-8 8 3.589 8 8-3.589 8-8 8z"/><circle cx="440.016" cy="296.015" r="8"/><circle cx="440.016" cy="264.015" r="8"/><circle cx="424.016" cy="280.015" r="8"/><circle cx="456.016" cy="280.015" r="8"/><path d="m56.016 296.015c13.234 0 24-10.766 24-24s-10.766-24-24-24-24 10.766-24 24 10.766 24 24 24zm0-32c4.411 0 8 3.589 8 8s-3.589 8-8 8-8-3.589-8-8 3.589-8 8-8z"/><path d="m48.016 408.015h16v-16h16v-16h-16v-16h-16v16h-16v16h16z"/><path d="m248.016 208.015c-13.234 0-24 10.766-24 24s10.766 24 24 24 24-10.766 24-24-10.766-24-24-24zm0 32c-4.411 0-8-3.589-8-8s3.589-8 8-8 8 3.589 8 8-3.589 8-8 8z"/><path d="m408.016 80.015c13.234 0 24-10.766 24-24s-10.766-24-24-24-24 10.766-24 24 10.766 24 24 24zm0-32c4.411 0 8 3.589 8 8s-3.589 8-8 8-8-3.589-8-8 3.589-8 8-8z"/><path d="m408.016 176.015c48.523 0 88-39.477 88-88s-39.477-88-88-88-88 39.477-88 88 39.477 88 88 88zm-60.831-49.555c2.977-3.999 7.695-6.445 12.831-6.445 8.822 0 16 7.178 16 16 0 5.135-2.446 9.854-6.445 12.831-9.012-5.716-16.67-13.373-22.386-22.386zm106.296 17.335c-7.619-1.221-13.465-7.822-13.465-15.779 0-8.822 7.178-16 16-16 6.878 0 12.862 4.366 15.077 10.673-4.479 8.116-10.477 15.28-17.612 21.106zm-45.465-127.78c39.701 0 72 32.299 72 72 0 5.774-.702 11.385-1.992 16.769-5.776-5.469-13.556-8.769-22.008-8.769-17.645 0-32 14.355-32 32 0 10.592 5.177 19.994 13.129 25.821-8.913 3.96-18.764 6.179-29.129 6.179-8.101 0-15.886-1.365-23.159-3.843 4.532-5.585 7.159-12.645 7.159-20.157 0-17.645-14.355-32-32-32-7.512 0-14.571 2.627-20.157 7.159-2.478-7.273-3.843-15.058-3.843-23.159 0-39.7 32.299-72 72-72z"/><circle cx="360.016" cy="80.015" r="8"/><circle cx="408.016" cy="104.015" r="8"/><circle cx="456.016" cy="72.015" r="8"/><path d="m15.049 178.077c8.237 0 19.488-4.736 34.323-14.335 4.011-2.595 8.192-5.507 12.487-8.666 8.114 3.176 16.931 4.939 26.157 4.939 39.701 0 72-32.299 72-72 0-9.226-1.763-18.043-4.939-26.157 3.16-4.295 6.071-8.476 8.666-12.487 14.831-22.921 18.052-37.283 10.136-45.199-8.26-8.259-22.314-2.056-26.932-.018-8.262 3.648-18.478 9.864-29.732 18.071-8.931-3.98-18.807-6.21-29.199-6.21-39.701 0-72 32.299-72 72 0 10.392 2.231 20.267 6.21 29.199-8.207 11.255-14.424 21.47-18.071 29.732-2.039 4.618-8.242 18.671.019 26.932 2.792 2.793 6.385 4.2 10.875 4.199zm128.967-90.062c0 30.878-25.122 56-56 56-3.654 0-7.224-.363-10.685-1.035 11.195-9.239 22.839-19.844 34.323-31.328s22.089-23.127 31.328-34.323c.671 3.462 1.034 7.032 1.034 10.686zm17.998-71.992c-.384 3.518-3.336 12.469-14.411 28.73-.329.484-.678.978-1.016 1.466-4.058-5.67-8.913-10.726-14.407-15.007 16.806-11.61 26.134-14.818 29.834-15.189zm-73.998 15.992c20.65 0 38.712 11.244 48.421 27.922-10.16 12.961-22.556 26.862-36.097 40.402s-27.442 25.937-40.402 36.097c-16.678-9.709-27.922-27.771-27.922-48.421 0-30.878 25.122-56 56-56zm-56.803 100.164c4.281 5.494 9.337 10.35 15.007 14.407-.488.338-.983.687-1.466 1.016-16.262 11.076-25.213 14.027-28.73 14.411.371-3.7 3.579-13.028 15.189-29.834z"/><path d="m208.016 64.015c13.234 0 24-10.766 24-24s-10.766-24-24-24-24 10.766-24 24 10.766 24 24 24zm0-32c4.411 0 8 3.589 8 8s-3.589 8-8 8-8-3.589-8-8 3.589-8 8-8z"/><path d="m112.016 200.015c0 13.234 10.766 24 24 24s24-10.766 24-24-10.766-24-24-24-24 10.766-24 24zm32 0c0 4.411-3.589 8-8 8s-8-3.589-8-8 3.589-8 8-8 8 3.589 8 8z"/><path d="m280.016 104.015c13.234 0 24-10.766 24-24s-10.766-24-24-24-24 10.766-24 24 10.766 24 24 24zm0-32c4.411 0 8 3.589 8 8s-3.589 8-8 8-8-3.589-8-8 3.589-8 8-8z"/><path d="m320.016 192.015h16v16h-16z"/><path d="m336.016 208.015h16v16h-16z"/><path d="m336.016 176.015h16v16h-16z"/><path d="m352.016 192.015h16v16h-16z"/></g></g></svg>