<svg id="Layer_1" enable-background="new 0 0 512 512" viewBox="0 0 512 512" xmlns="http://www.w3.org/2000/svg"><g><g><g><path d="m496.8 178.4h-10.6c-.3-4.1 1.6-11.9-4-13.3-32.3-9.4-65.7-14.8-99.4-16-5.6-10-14-17.9-24.5-21.9 3-25.7-16.4-49.8-40.5-49.3-10.9-35.2-58-25.6-57 11-3.2-.1-6.3-.2-9.4 0 1-36.6-46.2-46.2-57-11-23.5-.4-42.7 22.3-40.6 47.6-26.3-7.9-96-24-94.7-9.1 0 0-.3 41.5-.3 41.5-9.6 2-19.2 4.4-28.7 7.1-2.4.7-4 2.9-4 5.4v7.9h-10.9c-6.5 0-11.8 5.3-11.8 11.8v309.1c0 6.5 5.2 11.8 11.8 11.8h481.6c6.5 0 11.8-5.3 11.8-11.8v-309.1c0-6.4-5.3-11.7-11.8-11.7zm-109.2-17.9c29.6 1.5 58.9 6.3 87.3 14.2v287.3c-70.1-19-144.9-19.1-215 0v-58h9.6c11.4 0 20.7-9.2 20.7-20.7 0 0 0-1.2.1-1.2 15.8.4 25-20.3 13.7-31.5 4.1-4.3 5.9-10.3 4.8-16.1-.1-.1-.1-.2-.1-.2-1-5.8-5-10.9-10.4-13.5.1-3-.2-17.8.2-20.5 10.4-3.6 17.9-12.5 20-23.8 25.2.2 43.5-26.4 39.6-50.8 24-8.7 37.4-39.7 29.5-65.2zm-141.7 184.5c-.6-.2-28.7.7-28.2-.8-6.3-3.7-3.5-14.1 4-13.9h68.6c4.1 0 7.6 3.4 7.5 7.5 0 3.4-2.3 6.3-5.5 7.2h-10.2c-3.1 0-5.6 2.5-5.6 5.6s2.5 5.6 5.6 5.6h10.1c8.5 2.4 6.7 14.3-1.9 14.7h-5.7-62.9c-8.5-.3-10.5-12.4-1.9-14.7h26.1c7.4-.1 7.4-11.1 0-11.2zm-13 37.1h46c.5 5.6-3.7 10.7-9.4 10.6h-27.1c-5.6.1-10-5-9.5-10.6zm241.1 92.9c-142.5.5-285.6 1.4-427.9.4-12-2.8 13.9-7.3 15.2-7.6 56.8-11.7 117.6-12.6 173.9 2.6 6.5 1.6 13 3.4 19.7 3.3 72-16.1 148.5-23.3 219.1 1.3zm-189.9-406.8c18.1-5.6 31.1 16.6 18.8 30.5-1.6 1.8-3.5 3.4-4.9 5.5-3.4 4.6 0 10.4 5.7 8.8 8.9-4 13.7-14.8 15.1-24 24.9 2.7 37.4 33.9 21.3 53-1.6 2-3.6 3.9-4.6 6.4s-.6 5.7 1.7 7.1c7.9 3 16-11.1 18.6-17.3 30.4 15.9 30 61.2-.7 76.5-4.8-14.5-24.3-28.1-39.2-20.7-2.3 1.8-3.3 5.6-1.3 7.8 2.1 2.5 6.2 1.7 9.6 1.7 34.7 2.1 27.6 62.3-5.3 61.5-2.1-8.7-8.5-19.3-18.2-20.2-2.8.1-5.6 2.4-5.3 5.2.2 2.7 2.8 4.4 4.9 6.1 7.5 6.2 9.8 18 4.4 26.1-5.3 8.1-18 10.3-25.4 4-6.9-6-7.4-16.4-7.4-25.5 0-35.1.1-70.2.1-105.3 0-17.5 0-35.1.1-52.7-.1-11.7-2.4-29.6 12-34.5zm-36.5 216.2c3.9-9.2 3.9-19.6 3.9-29.6-.2-51.6-.3-103.2-.4-154.8h9.6c0 53.5-.1 106.9-.1 160.3-1.5 18.5 5.9 38.4 26.3 41.3.1 5.8.1 11.5.1 17.3h-62c0-4.2-1-9.4-.1-13.5 1.2-5.5 1.5-3.7 6.9-5.4 7.2-2.3 12.9-8.7 15.8-15.6zm-91.4-146c2.5 6.2 10.7 20 18.6 17 2.2-1.3 2.6-4.6 1.7-7-1-2.4-2.9-4.3-4.6-6.4-16.2-19.2-3.7-50.5 21.3-53.1.1 8.1 11.5 30.2 21.1 22.5 3.1-4.5-1.9-9.1-4.8-12.3-14.7-17.6 5.9-42.3 24.5-27.1 5.7 5.8 6.1 15 6.1 23.1v167.3c0 7.8-.3 16.4-5.4 22.3-6.7 7.6-20.4 6.7-26.5-1.3-6.2-8-4.2-20.8 3.6-27.2 2.1-1.7 4.7-3.3 5-6 .3-2.8-2.5-5.1-5.3-5.3-9.7.7-16.2 11.5-18.3 20.2-18.8-.4-31-20.5-28-38.1 1.1-11.6 9.7-23.8 22.2-23.5 3.5.1 7.8 1 10.1-1.7 1.9-2.2.8-6-1.5-7.8-14.8-7.4-34.3 6.1-39.1 20.6-.6 1.6-15.4-12.9-16.4-14.4-13.6-20.2-6.6-51 15.7-61.8zm-86.4 24.1.2-40.5c17.7-.4 41.9 3.7 72 12-30.9 23.9-24.1 78.4 11.9 91.7-4 24.4 14.5 51 39.6 50.8 2.1 10.4 9.7 20.3 20 23.9.4 2.6.2 17.6.2 20.5-11.2 4.9-14.4 21.2-5.8 29.8-11.2 11.3-2 31.9 13.8 31.5-.6 11.8 8.9 21.9 20.7 21.9h6.1c-.1 18.5-.1 37-.1 55.5-54-31.2-117.3-50.7-180.2-47.5 0-.1 1.6-249.6 1.6-249.6zm-32.5 12.5c1.7-2.2 21.3-3.8 21.3-5.6-.5 82.1-1.1 164.2-1.6 246.4 0 1.9 0 4 1.2 5.5 1.7 2 4.7 2.1 7.3 2 50.9-2.3 102.3 8.4 148 30.9-58.4-10.3-119.1-7.6-176.4 7.9v-263.6c0-4.7-2.6-20 .2-23.5zm460 324.2c-.3 1.1-482.3.9-482.6 0v-309.1c0-.3.2-.5.5-.5h10.6v280.9c0 9.1 7.4 16.4 16.4 16.4h427.7c9 0 16.4-7.3 16.4-16.4v-280.9h10.6c.3 0 .5.2.5.5v309.1z" fill="#231f20"/></g></g><g><g><path d="m287 319h-62c0-4.2-1-9.4-.1-13.5 1.2-5.5 1.5-3.7 6.9-5.4 18.2-6.6 20.3-28.4 19.8-45.3-.2-51.6-.3-103.2-.4-154.8h9.6c0 53.5-.1 106.9-.1 160.3-1.5 18.5 5.9 38.4 26.3 41.3z" fill="#f8d5b7"/></g></g><g><g><path d="m234 72c-18.6-15.1-39.2 9.5-24.5 27.3 3 3.2 7.9 7.7 4.8 12.3-9.7 7.6-21-14.3-21.1-22.5-25 2.7-37.5 33.9-21.3 53.1 1.6 2 3.6 3.9 4.6 6.4s.6 5.7-1.7 7c-2.6 1.5-5.9-.2-8.2-2.2-4.6-4-8.2-9.1-10.4-14.8-22.3 10.8-29.3 41.6-15.7 61.7 1 1.5 15.9 16.1 16.4 14.4 4.8-14.4 24.3-28 39.1-20.6 2.3 1.8 3.3 5.5 1.5 7.8-2.2 2.8-6.5 1.8-10.1 1.7-23.1.7-28.1 33.2-16.6 49 5.1 7.3 13.5 12.4 22.4 12.6 2-8.8 8.6-19.5 18.3-20.2 2.8.2 5.6 2.5 5.3 5.3-.3 2.7-2.9 4.3-5 6-7.8 6.4-9.8 19.2-3.6 27.2s19.8 8.9 26.5 1.3c5.1-5.9 5.4-14.4 5.4-22.3v-167.4c0-8.2-.4-17.3-6.1-23.1zm-37.4 68c-2.2 2.2-5.7 2.2-7.9 0s-2.2-5.7-.1-7.9c7.4-7.4 18.7-8.2 26.4-2 6.3 3.6 13.5 26 1.1 25.8-3.1-.5-5.2-3.3-4.7-6.4 1.7-9.1-7.6-16.7-14.8-9.5zm35.1 70.9c-2.1 2.2-5.7 2.3-7.9.1-2.6-2.5-6-3.4-8.8-2.1-3.9 1.7-6.3 7.1-5.5 12.5.6 3.4-2.1 6.6-5.5 6.5-2.8 0-5.1-2-5.6-4.7-1.7-10.5 3.4-20.7 12-24.6 7-3.1 15.3-1.3 21.1 4.4 2.3 2.1 2.3 5.7.2 7.9z" fill="#f4c0bd"/></g></g><g><g><path d="m355.9 138.2c-2.5 6.2-10.6 20.3-18.6 17.3-2.3-1.4-2.7-4.6-1.7-7.1s2.9-4.4 4.6-6.4c16.1-19.1 3.6-50.4-21.3-53-.4 7.9-11.6 31.3-21.4 22.1-2.8-4.7 2.5-9.2 5.5-12.3 12.3-13.8-.8-36.1-18.8-30.5-14.4 4.8-12 22.7-12 34.6-.1 17.5-.1 35.1-.1 52.7-.1 35.1-.1 70.2-.1 105.3 0 9.2.5 19.6 7.4 25.5 7.3 6.3 20 4 25.4-4 5.3-8.1 3-20-4.4-26.1-2.1-1.7-4.7-3.4-4.9-6.1-.2-2.8 2.6-5.1 5.3-5.2 9.6.9 16.1 11.5 18.2 20.2 32.9.8 40.1-59.3 5.3-61.5-3.4.1-7.4.8-9.6-1.7-1.9-2.2-1-6 1.3-7.8 14.8-7.4 34.4 6.2 39.2 20.7 30.7-15.5 31.1-60.8.7-76.7zm-42.3 85c-1.3 7.3-12.2 5.5-11.1-1.8.8-5.3-1.5-10.7-5.5-12.5-2.8-1.2-6.2-.4-8.8 2.1-2.2 2.1-5.8 2.1-7.9-.1-2.2-2.2-2.1-5.8.1-7.9 5.8-5.7 14.2-7.5 21.1-4.4 8.8 3.8 13.8 14.1 12.1 24.6zm9.8-83.2c-2.2 2.2-5.7 2.2-7.9 0-3.3-3.3-8-3.8-11.2-1.2-2.8 2.2-4.1 6.4-3.5 10.6.5 3.4-2.1 6.5-5.6 6.5-11.3-1.3-4.2-22.1 1.9-25.8 7.6-6.2 18.9-5.4 26.4 2 2.1 2.2 2.1 5.7-.1 7.9z" fill="#f4c0bd"/></g></g><g><g><path d="m279 382.1c.5 5.6-3.7 10.7-9.4 10.6h-27.1c-5.7.1-10-5-9.5-10.6z" fill="#94d4f7"/></g></g><g><g><path d="m297.8 363.4c0 4.1-3.6 7.4-7.5 7.5h-5.7c-.1 0-62.9 0-62.9 0-8.5-.3-10.5-12.4-1.9-14.7h26.1c7.4-.1 7.4-11.1 0-11.2h-26.2c-8.3-2-6.6-14.9 2-14.7h68.6c8.5-.1 10.3 12.5 2 14.7h-10.2c-7.4.1-7.4 11.1 0 11.2h10.1c3.2.9 5.6 3.8 5.6 7.2z" fill="#94d4f7"/></g></g><g><g><path d="m497.3 190.1c-.5.5 1 309.7-.5 309.6h-481.6c-1.6.2.1-309.2-.5-309.6 0-.3.2-.5.5-.5h10.6v280.9c0 9.1 7.4 16.4 16.4 16.4h427.7c9 0 16.4-7.3 16.4-16.4v-280.9h10.6c.2 0 .4.3.4.5z" fill="#94d4f7"/></g></g><g><g><path d="m474 475c-142.5.5-285.6 1.4-427.9.4-12-2.8 13.9-7.3 15.2-7.6 56.8-11.7 117.6-12.6 173.9 2.6 6.5 1.6 13 3.4 19.7 3.3 72-16.1 148.5-23.3 219.1 1.3z" fill="#edeff1"/></g></g><g><g><path d="m213.5 454.1c-58.4-10.3-119.1-7.6-176.4 7.9v-263.5c0-4.7-2.5-20 .2-23.5 1.7-2.2 21.3-3.8 21.3-5.6-.5 82.1-1.1 164.2-1.6 246.4 0 1.9 0 4 1.2 5.5 1.7 2 4.7 2.1 7.3 2 50.8-2.4 102.3 8.4 148 30.8z" fill="#edeff1"/></g></g><g><g><path d="m242.5 404c-11.9 0-21.3-10.1-20.7-21.9-15.8.4-25-20.2-13.8-31.5-8.6-8.6-5.4-24.9 5.8-29.8-.1-3 .2-17.8-.2-20.5-10.3-3.6-17.9-13.5-20-23.9-25.1.2-43.6-26.4-39.6-50.8-36-13.3-42.7-67.8-11.9-91.7-30-8.3-54.3-12.4-72-12-.1 18.9-1.7 263.8-1.9 290.1 62.9-3.2 126.2 16.3 180.2 47.5 0-18.5.1-37 .1-55.5zm-142.1-216.8h-19.4c-7.4 0-7.4-11.2 0-11.2h19.4c7.4.1 7.4 11.1 0 11.2zm49.6 108.4-13.7 13.8c-5.3 5.1-13.1-2.8-7.9-8 0 0 13.7-13.7 13.7-13.7 5.1-5.2 13 2.6 7.9 7.9z" fill="#edeff1"/></g></g><g><g><path d="m387.6 160.5c7.9 25.5-5.5 56.5-29.5 65.1 3.9 24.4-14.4 51-39.6 50.8-2.1 11.4-9.7 20.2-20 23.8-.4 2.6-.1 17.6-.2 20.5 5.4 2.6 9.4 7.7 10.4 13.5.1.1.1.2.1.2 1 5.8-.8 11.8-4.8 16.1 11.4 11.2 2.2 32-13.7 31.5-.1 0-.1 1.2-.1 1.2 0 11.4-9.3 20.7-20.7 20.7h-9.6v58c70.1-19.1 144.9-19 215 0v-287.2c-28.4-7.9-57.7-12.7-87.3-14.2zm-3.9 148.8c-2.2 2.2-5.7 2.1-7.9 0l-13.8-13.7c-2.2-2.2-2.2-5.7 0-7.9s5.7-2.2 7.9 0l13.7 13.7c2.3 2.1 2.3 5.7.1 7.9zm47.3-122.1h-19.4c-7.4-.1-7.4-11.1 0-11.2h19.4c7.3 0 7.3 11.2 0 11.2z" fill="#edeff1"/></g></g><g><g><path d="m231.7 210.9c-2.1 2.2-5.7 2.3-7.9.1-2.6-2.5-6-3.4-8.8-2.1-3.9 1.7-6.3 7.1-5.5 12.5.6 3.4-2.1 6.6-5.5 6.5-2.8 0-5.1-2-5.6-4.7-1.7-10.5 3.4-20.7 12-24.6 7-3.1 15.3-1.3 21.1 4.4 2.3 2.1 2.3 5.7.2 7.9z" fill="#231f20"/></g></g><g><g><path d="m222.4 151.1c-1.1 7.3-12.1 5.7-11.1-1.6 1.8-9.1-7.5-16.7-14.7-9.4-5.2 5.2-13.2-2.7-8-7.9 14.8-14.9 37.4-.8 33.8 18.9z" fill="#231f20"/></g></g><g><g><path d="m313.6 223.2c-1.3 7.3-12.2 5.5-11.1-1.8.8-5.3-1.5-10.7-5.5-12.5-2.8-1.2-6.2-.4-8.8 2.1-2.2 2.1-5.8 2.1-7.9-.1-2.2-2.2-2.1-5.8.1-7.9 5.8-5.7 14.2-7.5 21.1-4.4 8.8 3.8 13.8 14.1 12.1 24.6z" fill="#231f20"/></g></g><g><g><path d="m323.4 140c-2.2 2.2-5.7 2.2-7.9 0-3.3-3.3-8-3.8-11.2-1.2-2.8 2.2-4.1 6.4-3.5 10.6.5 3.4-2.1 6.5-5.6 6.5-11.3-1.3-4.2-22.1 1.9-25.8 7.6-6.2 18.9-5.4 26.4 2 2.1 2.2 2.1 5.7-.1 7.9z" fill="#231f20"/></g></g><g><g><path d="m150 295.6-13.7 13.8c-5.3 5.1-13.1-2.8-7.9-8 0 0 13.7-13.7 13.7-13.7 5.1-5.2 13 2.6 7.9 7.9z" fill="#231f20"/></g></g><g><g><path d="m366 77.2c1.4 0 2.9-.5 4-1.6l13.7-13.7c2.2-2.2 2.2-5.8 0-8s-5.8-2.2-8 0l-13.7 13.7c-3.6 3.4-.8 9.8 4 9.6z" fill="#231f20"/></g></g><g><g><path d="m106.1 181.6c0 3.1-2.5 5.6-5.6 5.6h-19.5c-3.1 0-5.6-2.5-5.6-5.6s2.5-5.6 5.6-5.6h19.4c3.1 0 5.7 2.5 5.7 5.6z" fill="#231f20"/></g></g><g><g><path d="m436.6 181.6c0 3.1-2.5 5.6-5.6 5.6h-19.4c-3.1 0-5.6-2.5-5.6-5.6s2.5-5.6 5.6-5.6h19.4c3.1 0 5.6 2.5 5.6 5.6z" fill="#231f20"/></g></g><g><g><path d="m142 75.6c5.2 5.2 13.1-2.7 8-8 0 0-13.7-13.7-13.7-13.7-5.2-5.2-13.1 2.7-8 8 0-.1 13.7 13.7 13.7 13.7z" fill="#231f20"/></g></g><g><g><path d="m383.7 309.3c-2.2 2.2-5.7 2.1-7.9 0l-13.8-13.7c-2.2-2.2-2.2-5.7 0-7.9s5.7-2.2 7.9 0l13.7 13.7c2.3 2.1 2.3 5.7.1 7.9z" fill="#231f20"/></g></g><g><g><path d="m256 31.7c3.1 0 5.6-2.5 5.6-5.6v-19.5c0-3.1-2.5-5.6-5.6-5.6s-5.6 2.5-5.6 5.6v19.4c0 3.1 2.5 5.7 5.6 5.7z" fill="#231f20"/></g></g></g></svg>