<svg clip-rule="evenodd" fill-rule="evenodd" height="1.707in" image-rendering="optimizeQuality" shape-rendering="geometricPrecision" text-rendering="geometricPrecision" viewBox="0 0 1707 1707" width="1.707in" xmlns="http://www.w3.org/2000/svg"><g id="Layer_x0020_1"><g id="_360977872"><path d="m1683 1534h-1659c-13 0-24-10-24-23v-840c0-13 11-23 24-23h1659c13 0 23 10 23 23v840c0 13-10 23-23 23z" fill="#cf986c"/><g fill="#d9d7da"><path d="m320 1328c-131 0-237-106-237-237s106-237 237-237 237 106 237 237-106 237-237 237z"/><path d="m1387 1328c-131 0-238-106-238-237s107-237 238-237 237 106 237 237-106 237-237 237z"/><path d="m1114 1534h-521v-863c0-13 10-23 23-23 12 0 21 8 23 19 78-11 440-19 451-19 13 0 24 10 24 23z"/></g><path d="m593 908v-47l521-1v46z" fill="#594e5c"/><path d="m593 1116v-126h521v124z" fill="#594e5c"/><path d="m1683 694h-1659c-8 0-16-4-20-10-4-7-5-15-2-22l98-217c3-9 12-14 21-14h1465c9 0 17 5 21 14l97 217c3 7 3 15-1 22-5 6-12 10-20 10z" fill="#b47e5f"/><path d="m1542 627h-83c-13 0-23-11-23-24v-282c-380 0-761 0-1141 0v282c0 13-10 24-23 24h-83c-13 0-24-11-24-24v-388c0-13 11-24 24-24h1353c13 0 24 11 24 24v388c0 13-11 24-24 24z" fill="#d9d7da"/><path d="m1190 340h-649c-46 0-84-37-84-84 0-46 38-84 84-84h649c46 0 84 38 84 84 0 47-38 84-84 84z" fill="#b47e5f"/><path d="m1014 1335h-321c-13 0-24-10-24-23v-134c0-12 11-23 24-23h321c13 0 23 11 23 23v134c0 13-10 23-23 23z" fill="#594e5c"/><path d="m320 1226c-75 0-135-60-135-135 0-74 60-135 135-135s135 61 135 135c0 75-60 135-135 135z" fill="#594e5c"/><path d="m1387 1226c-75 0-136-60-136-135 0-74 61-135 136-135 74 0 135 61 135 135 0 75-61 135-135 135z" fill="#594e5c"/><path d="m810 1268h-35c-13 0-23-10-23-23s10-23 23-23h35c12 0 23 10 23 23s-11 23-23 23z" fill="#d9d7da"/><path d="m931 1268h-34c-13 0-23-10-23-23s10-23 23-23h34c13 0 24 10 24 23s-11 23-24 23z" fill="#d9d7da"/></g></g></svg>