<svg id="Capa_1" enable-background="new 0 0 512 512" height="512" viewBox="0 0 512 512" width="512" xmlns="http://www.w3.org/2000/svg"><g><g id="Filled_41_"><path d="m393 150-89 118-146-116-158 119v233h512v-184z" fill="#afd2d7"/><path d="m0 474h512v30h-512z" fill="#87bcc4"/><g fill="#d4b981"><path d="m196 464h30v40h-30z"/><path d="m126 464h30v40h-30z"/><path d="m56 464h30v40h-30z"/></g><path d="m228 128c-15.464 0-28-12.536-28-28s12.536-28 28-28c1.883 0 3.721.189 5.499.543 6.046-14.416 20.29-24.543 36.901-24.543 13.021 0 24.584 6.225 31.888 15.857 2.8-.94 5.795-1.457 8.912-1.457 14.663 0 26.685 11.273 27.892 25.623.301-.014.604-.023.908-.023 11.046 0 20 8.954 20 20s-8.954 20-20 20z" fill="#cbdcfb"/><path d="m353.198 93c-3.523 3.103-8.134 5-13.198 5h-112c-9.944 0-18.67-5.188-23.638-13-2.758 4.337-4.362 9.48-4.362 15 0 15.464 12.536 28 28 28h112c11.046 0 20-8.954 20-20 0-5.982-2.64-11.335-6.802-15z" fill="#94b7f7"/><path d="m250 410h-218l-21 54h260z" fill="#d8fc7e"/><path d="m22.667 434-11.667 30h260l-11.667-30z" fill="#c3f839"/><path d="m241 360h-60l-5 11.364-5-11.364h-60l-5 11.364-5-11.364h-60l-22 50h244z" fill="#d8fc7e"/><path d="m32.2 380-13.2 30h244l-13.2-30z" fill="#c3f839"/><path d="m211 270-35 73.256-35-73.256-35 73.256-35-73.256-43 90h226z" fill="#d8fc7e"/><path d="m182.333 330-6.333 13.256-6.333-13.256h-57.334l-6.333 13.256-6.333-13.256h-57.334l-14.333 30h226l-14.333-30z" fill="#c3f839"/><path d="m481.813 428.16c-3.268-1.849-7.04-2.91-11.063-2.91-4.036 0-7.821 1.067-11.096 2.928-4.757-7.991-13.002-13.663-22.639-14.91-4.319-11.266-15.23-19.268-28.015-19.268-11.209 0-20.737 6.576-24.258 15.748-.485-.015-.968-.034-1.457-.034-23.669 0-42.857 17.589-42.857 39.286-14.202 0-25.714 10.553-25.714 23.571 0 .33.013.658.027.984-14.801 3.481-25.741 15.792-25.741 30.445h223v-94.5c-13.214 0-24.647 7.598-30.187 18.66z" fill="#d8fc7e"/><path d="m289 504h223v-30h-198.945c-13.937 3.99-24.055 15.91-24.055 30z" fill="#c3f839"/><path d="m128 108c-33.137 0-60-26.863-60-60 0-15.272 5.716-29.203 15.112-39.794-1.69-.122-3.391-.206-5.112-.206-38.66 0-70 31.34-70 70s31.34 70 70 70c28.569 0 53.125-17.124 64.005-41.661-4.495 1.076-9.18 1.661-14.005 1.661z" fill="#ff905b"/></g><g fill="#fff"><path d="m380 437.5h15v15h-15z"/><path d="m403 257.5h15v15h-15z"/><path d="m487 449.5h15v15h-15z"/></g><g id="Outline_41_"><path d="m228 135.5h112c15.164 0 27.5-12.337 27.5-27.5 0-13.304-9.497-24.433-22.067-26.961-4.159-15.078-18.125-26.139-34.233-26.139-2.088 0-4.163.183-6.207.546-8.953-9.555-21.305-14.946-34.593-14.946-17.271 0-32.928 9.263-41.3 24.018-.367-.012-.733-.018-1.1-.018-19.575 0-35.5 15.925-35.5 35.5s15.925 35.5 35.5 35.5zm0-56c1.35 0 2.707.134 4.033.398l6.012 1.198 2.371-5.653c5.08-12.115 16.85-19.943 29.984-19.943 10.256 0 19.701 4.698 25.912 12.889l3.256 4.294 5.108-1.716c2.108-.707 4.303-1.066 6.524-1.066 10.565 0 19.534 8.236 20.418 18.752l.605 7.19 7.208-.327c.188-.009.377-.016.568-.016 6.893 0 12.5 5.607 12.5 12.5s-5.607 12.5-12.5 12.5h-111.999c-11.304 0-20.5-9.196-20.5-20.5s9.196-20.5 20.5-20.5z"/><path d="m302.642 257.342-74.632-59.296-9.331 11.744 74.928 59.531-35.475 47.033 11.976 9.033 122.665-162.632 20.448 29.21 12.288-8.602-32.282-46.118z"/><path d="m157.877 161.481 49.058 38.978 9.331-11.744-58.143-46.196-157.635 118.724 9.024 11.983z"/><path d="m478.118 434.687 6.867 3.888 3.534-7.055c4.485-8.957 13.483-14.52 23.481-14.52v-15c-13.352 0-25.566 6.31-33.257 16.836-2.594-.717-5.284-1.086-7.993-1.086-2.931 0-5.779.439-8.485 1.243-5.215-6.131-12.177-10.45-20.035-12.37-6.408-12.19-19.265-20.123-33.23-20.123-12.087 0-23.117 6.18-28.932 15.805-23.821 1.405-43.197 18.268-46.605 39.883-13.392 2.684-23.815 12.94-25.88 25.725-13.12 4.933-22.613 15.732-25.305 28.588h-48.778v-25h48.464l-21-54h13.53l-22-50h13.402l-54.896-114.898-35.001 73.258-34.999-73.259-34.999 73.259-35.001-73.258-54.896 114.897h13.402l-22 50h13.53l-21 54h48.464v25h-48.5v15h350v-15h-52.138c2.788-7.531 9.661-13.539 18.595-15.64l5.971-1.404-.206-6.525c-.005-.12-.012-.24-.012-.36 0-8.861 8.173-16.07 18.22-16.07h7.5v-7.501c0-17.529 15.862-31.79 35.36-31.79.365 0 .738.018 1.146.034l5.378.219 1.929-5.025c2.511-6.542 9.446-10.938 17.258-10.938 9.257 0 17.703 5.809 21.017 14.454l1.601 4.177 4.437.576c4.923.639 9.521 2.879 13.096 6.252-2.533 2.624-4.603 5.713-6.053 9.147-15.482 2.159-28.146 13.895-31.479 29.146-13.638 5.002-23.738 17.045-26.412 31.248h-20.208v15h147v-15h-111.364c2.692-8.879 9.997-16.01 19.341-18.104l5.441-1.22.399-5.562c.838-11.698 10.689-20.861 22.434-20.861h.003l6.554.131 1.242-6.133c1.408-6.953 7.59-12 14.7-12 2.582-.001 5.129.669 7.368 1.936zm-267.118-147.29 31.104 65.103h-62.209zm-25.106 80.103h50.212l15.4 35h-81.012zm-44.894-80.102 26.687 55.859-4.416 9.242h-44.542l-4.416-9.242zm28.506 80.102-15.4 35h-26.212l-15.4-35zm-98.506-80.103 31.104 65.103h-62.208zm-25.106 80.103h50.212l15.4 35h-81.012zm32.606 129h-15v-25h15zm40 0h-25v-25h25zm-96.536-40 15.167-39h67.738l15.167 39zm126.536 40h-15v-25h15zm-2.631-40h-9.739l-15.167-39h40.072zm31.262-39h67.738l15.167 39h-98.072zm11.369 79h-25v-25h25zm30 0h-15v-25h15z"/><path d="m78 155.5c30.623 0 58.437-18.104 70.861-46.12l6.147-13.862-14.748 3.528c-4.035.965-8.16 1.454-12.261 1.454-28.949 0-52.5-23.552-52.5-52.5 0-12.841 4.696-25.206 13.222-34.816l10.083-11.364-15.152-1.094c-2.13-.155-3.926-.226-5.652-.226-42.733 0-77.5 34.767-77.5 77.5s34.767 77.5 77.5 77.5zm-9.551-139.271c-5.184 9.704-7.949 20.597-7.949 31.771 0 37.218 30.273 67.496 67.49 67.5-11.651 15.515-30.085 25-49.99 25-34.462 0-62.5-28.037-62.5-62.5 0-31.215 23.005-57.159 52.949-61.771z"/><path d="m386 36.5h15v15h-15z"/><path d="m166 26.5h15v15h-15z"/><path d="m116 56.5h15v15h-15z"/><path d="m430 117.5h15v15h-15z"/><path d="m455 302.5h35.596l8.96 12.801 12.288-8.602-77.733-111.047-12.288 8.602 37.272 53.246h-26.095v15h36.595l10.5 15h-25.095z"/><path d="m452 466.5h15v15h-15z"/><path d="m470 67.5h15v15h-15z"/></g></g></svg>