<svg id="Capa_1" enable-background="new 0 0 512 512" height="512" viewBox="0 0 512 512" width="512" xmlns="http://www.w3.org/2000/svg"><g><g><path d="m191 437v40c0 19.33 15.67 35 35 35h60c19.33 0 35-15.67 35-35v-40z" fill="#00465f"/><path d="m256 512h30c19.33 0 35-15.67 35-35v-40h-65z" fill="#002c3c"/><g><path d="m497 180h-30c-8.284 0-15-6.716-15-15 0-8.284 6.716-15 15-15h30c8.284 0 15 6.716 15 15 0 8.284-6.716 15-15 15z" fill="#ffcd00"/></g><g><path d="m45 180h-30c-8.284 0-15-6.716-15-15 0-8.284 6.716-15 15-15h30c8.284 0 15 6.716 15 15 0 8.284-6.716 15-15 15z" fill="#fff261"/></g><g><path d="m440.241 98.306c-2.833-7.785 1.18-16.392 8.965-19.226l28.19-10.261c7.785-2.833 16.392 1.18 19.226 8.965 2.833 7.785-1.18 16.392-8.965 19.226l-28.19 10.261c-7.785 2.833-16.393-1.18-19.226-8.965z" fill="#ffcd00"/></g><g><path d="m15.378 252.215c-2.833-7.785 1.18-16.392 8.965-19.226l28.19-10.261c7.785-2.833 16.392 1.18 19.226 8.965 2.833 7.785-1.18 16.392-8.965 19.226l-28.19 10.261c-7.785 2.834-16.392-1.18-19.226-8.965z" fill="#fff261"/></g><g><path d="m477.396 261.18-28.19-10.261c-7.785-2.833-11.798-11.441-8.965-19.226 2.833-7.785 11.441-11.798 19.226-8.965l28.19 10.261c7.785 2.833 11.798 11.441 8.965 19.226-2.834 7.785-11.441 11.799-19.226 8.965z" fill="#ffcd00"/></g><g><path d="m52.534 107.271-28.191-10.261c-7.785-2.833-11.798-11.441-8.965-19.226 2.834-7.784 11.441-11.798 19.226-8.964l28.19 10.261c7.785 2.833 11.798 11.441 8.965 19.226-2.833 7.784-11.441 11.797-19.225 8.964z" fill="#fff261"/></g></g><g><path d="m161 407c0 24.813 20.187 45 45 45h100c24.813 0 45-20.187 45-45v-42l-95-26-95 26z" fill="#0a617d"/><path d="m306 452c24.813 0 45-20.187 45-45v-42l-95-26v113z" fill="#00465f"/><path d="m421 165c0-90.981-74.019-165-165-165s-165 74.019-165 165c0 37.367 12.888 73.975 36.29 103.081 21.738 27.035 33.71 61.455 33.71 96.919h190c0-35.464 11.972-69.884 33.711-96.919 23.401-29.106 36.289-65.714 36.289-103.081z" fill="#fff261"/><path d="m351 365c0-35.464 11.972-69.884 33.711-96.919 23.401-29.106 36.289-65.714 36.289-103.081 0-90.981-74.019-165-165-165v365z" fill="#ffcd00"/></g><g><path d="m256 80c-24.813 0-45 20.187-45 45 0 8.284 6.716 15 15 15s15-6.716 15-15c0-8.271 6.729-15 15-15s15 6.729 15 15c0 5.307-2.851 10.273-7.44 12.961-14.126 8.275-22.56 22.287-22.56 37.481v9.558c0 8.284 6.716 15 15 15s15-6.716 15-15v-9.557c0-6.383 5.401-10.235 7.724-11.596 13.74-8.049 22.276-22.934 22.276-38.847 0-24.813-20.187-45-45-45z" fill="#0a617d"/><path d="m271 125c0 5.307-2.851 10.273-7.44 12.961-2.744 1.607-5.266 3.436-7.56 5.443v56.596c8.284 0 15-6.716 15-15v-9.557c0-6.383 5.401-10.235 7.724-11.596 13.74-8.049 22.276-22.934 22.276-38.847 0-24.813-20.187-45-45-45v30c8.271 0 15 6.729 15 15z" fill="#00465f"/><circle cx="256" cy="245" fill="#0a617d" r="15"/><path d="m271 245c0-8.284-6.716-15-15-15v30c8.284 0 15-6.716 15-15z" fill="#00465f"/></g></g></svg>