<svg id="Capa_1" enable-background="new 0 0 512 512" height="512" viewBox="0 0 512 512" width="512" xmlns="http://www.w3.org/2000/svg"><g><g><path d="m424.85 26.33v406.17s-353.12 71.47-372.71 71.99c-.32.01-.64.01-.96.01h-.02c-9.94-.01-18.94-4.03-25.45-10.54-6.52-6.52-10.55-15.52-10.55-25.46v-442.17c0-10.4 8.43-18.83 18.83-18.83h372.03c10.4 0 18.83 8.43 18.83 18.83z" fill="#faf7f7"/><path d="m424.85 399.96v32.54s-353.12 71.47-372.71 71.99c-.32.01-.64.01-.96.01h-.02c-9.94-.01-18.94-4.03-25.45-10.54-6.52-6.52-10.55-15.52-10.55-25.46v-68.54z" fill="#dedbee"/><g><path d="m455.26 365.753-12.79-7.39c1.11-5.11 1.71-10.41 1.71-15.85s-.6-10.74-1.71-15.85l12.79-7.39c6.47-3.74 8.69-12.01 4.95-18.49l-9.07-15.72c-3.74-6.48-12.02-8.69-18.49-4.96l-12.8 7.39c-7.81-7.12-17.15-12.58-27.46-15.87v-14.76c0-7.47-6.06-13.53-13.53-13.53h-18.16c-7.47 0-13.53 6.06-13.53 13.53v14.76c-10.31 3.29-19.65 8.75-27.46 15.87l-12.79-7.39c-6.48-3.73-14.75-1.52-18.49 4.96l-9.08 15.72c-3.74 6.48-1.52 14.75 4.95 18.49l12.8 7.39c-1.11 5.11-1.71 10.41-1.71 15.85s.6 10.74 1.71 15.85l-12.8 7.39c-6.47 3.74-8.69 12.02-4.95 18.49l9.08 15.72c3.74 6.48 12.01 8.69 18.49 4.96l12.79-7.39c7.81 7.12 17.15 12.58 27.46 15.87v14.76c0 7.47 6.06 13.53 13.53 13.53h18.16c7.47 0 13.53-6.06 13.53-13.53v-14.76c10.31-3.29 19.65-8.75 27.46-15.87l12.8 7.39c6.47 3.73 14.75 1.52 18.49-4.96l9.07-15.72c3.74-6.47 1.52-14.75-4.95-18.49zm-85.48 8.19c-17.35 0-31.42-14.07-31.42-31.43s14.07-31.42 31.42-31.42c17.36 0 31.43 14.06 31.43 31.42s-14.07 31.43-31.43 31.43z" fill="#7a6d79"/></g><path d="m478.017 432.5c10.401 0 18.833 8.432 18.833 18.833v17.167c0 9.94-4.03 18.94-10.54 25.46-6.52 6.51-15.52 10.54-25.46 10.54h-409.69c19.88 0 35.99-16.12 35.99-36v-17.167c0-10.401 8.432-18.833 18.833-18.833z" fill="#faf7f7"/><path d="m195.895 281.198h-125.415c-11.649 0-21.093-9.443-21.093-21.093v-67.553c0-11.649 9.443-21.093 21.093-21.093h125.416c11.649 0 21.093 9.443 21.093 21.093v67.553c-.001 11.65-9.444 21.093-21.094 21.093z" fill="#ffd15b"/><g><path d="m75.067 227.327h46.779v29.929h-46.779z" fill="#fe646f"/><path d="m144.53 199.726h46.779v57.53h-46.779z" fill="#bbec6c"/></g></g><g><path d="m15.155 93.96c4.143 0 7.5-3.358 7.5-7.5v-60.13c0-6.247 5.083-11.33 11.33-11.33h372.039c6.247 0 11.33 5.083 11.33 11.33v183.84c0 4.142 3.357 7.5 7.5 7.5s7.5-3.358 7.5-7.5v-183.84c0-14.519-11.812-26.33-26.33-26.33h-372.039c-14.518 0-26.33 11.812-26.33 26.33v60.13c0 4.142 3.358 7.5 7.5 7.5z"/><path d="m408.71 342.513c0-21.461-17.464-38.92-38.93-38.92-21.461 0-38.92 17.459-38.92 38.92 0 21.466 17.459 38.93 38.92 38.93 21.466 0 38.93-17.464 38.93-38.93zm-62.85 0c0-13.19 10.73-23.92 23.92-23.92 13.195 0 23.93 10.73 23.93 23.92 0 13.195-10.734 23.93-23.93 23.93-13.189 0-23.92-10.735-23.92-23.93z"/><path d="m478.015 425h-45.665v-12.009c9.382 3.349 20.134-.357 25.286-9.283l9.067-15.715c2.812-4.864 3.56-10.533 2.105-15.963-1.454-5.426-4.933-9.963-9.797-12.774l-8.22-4.749c.59-3.982.888-7.998.888-11.997s-.298-8.015-.888-11.997l8.222-4.75c10.037-5.802 13.487-18.691 7.692-28.731l-9.07-15.721c-5.151-8.923-15.896-12.631-25.281-9.284v-26.877c0-4.142-3.357-7.5-7.5-7.5s-7.5 3.358-7.5 7.5v30.702c-5.411-3.876-11.245-7.066-17.465-9.518v-9.474c0-11.596-9.434-21.03-21.029-21.03h-18.16c-11.596 0-21.03 9.434-21.03 21.03v9.474c-7.514 2.962-14.474 6.984-20.791 12.014l-8.218-4.748c-10.051-5.784-22.936-2.323-28.726 7.709l-9.082 15.723c-5.794 10.041-2.343 22.93 7.696 28.734l8.228 4.75c-.59 3.983-.888 8-.888 11.995s.298 8.011.888 11.995l-8.231 4.752c-10.042 5.805-13.492 18.696-7.69 28.734l9.078 15.718c5.793 10.035 18.68 13.495 28.738 7.705l8.207-4.742c6.316 5.029 13.278 9.052 20.791 12.014v6.313h-233.685c-14.524 0-26.341 11.812-26.341 26.335l.011 16.585c0 15.625-12.435 28.667-27.755 29.074-.241.008-.484.006-.737.006-7.616-.008-14.775-2.972-20.155-8.344-5.386-5.386-8.353-12.544-8.353-20.156v-347.06c0-4.142-3.357-7.5-7.5-7.5s-7.5 3.358-7.5 7.5v347.06c0 11.619 4.527 22.544 12.75 30.767 8.212 8.199 19.129 12.721 30.77 12.733h170.25c4.143 0 7.5-3.358 7.5-7.5s-3.357-7.5-7.5-7.5h-137.718c6.8-7.803 10.948-18.016 10.948-29.085l-.011-16.585c0-6.248 5.088-11.33 11.341-11.33h372.029c6.247 0 11.33 5.083 11.33 11.33v17.17c0 7.609-2.965 14.769-8.34 20.153-5.391 5.383-12.55 8.347-20.16 8.347h-204.42c-4.143 0-7.5 3.358-7.5 7.5s3.357 7.5 7.5 7.5h204.42c11.612 0 22.536-4.522 30.768-12.741 8.211-8.224 12.732-19.147 12.732-30.759v-17.17c.001-14.518-11.811-26.33-26.329-26.33zm-60.665 0h-17.46v-6.314c6.218-2.451 12.051-5.64 17.46-9.514zm-67.9-18.745c-9.227-2.944-17.532-7.744-24.688-14.267-2.412-2.2-5.975-2.587-8.805-.951l-12.779 7.384c-2.889 1.662-6.59.671-8.255-2.211l-9.081-15.722c-1.664-2.879-.672-6.577 2.207-8.242l12.8-7.39c2.824-1.63 4.271-4.899 3.579-8.086-1.021-4.705-1.539-9.502-1.539-14.259s.518-9.554 1.539-14.259c.692-3.187-.755-6.456-3.579-8.086l-12.796-7.388c-2.881-1.665-3.871-5.365-2.21-8.246l9.082-15.722c1.662-2.88 5.365-3.871 8.242-2.215l12.79 7.39c2.827 1.635 6.391 1.249 8.805-.951 7.155-6.523 15.461-11.323 24.688-14.267 3.109-.992 5.22-3.881 5.22-7.145v-14.76c0-3.325 2.705-6.03 6.03-6.03h18.16c3.324 0 6.029 2.705 6.029 6.03v14.76c0 3.264 2.11 6.153 5.22 7.145 9.227 2.944 17.532 7.744 24.688 14.267 2.413 2.201 5.977 2.586 8.806.951l12.792-7.385c2.888-1.663 6.586-.671 8.249 2.21l9.071 15.721c1.663 2.882.673 6.582-2.207 8.247l-12.79 7.39c-2.823 1.631-4.27 4.9-3.577 8.086 1.021 4.7 1.539 9.497 1.539 14.258s-.518 9.558-1.539 14.258c-.692 3.187.754 6.455 3.577 8.086l12.788 7.389c1.396.807 2.396 2.11 2.813 3.669.417 1.557.203 3.181-.605 4.58l-9.07 15.719c-1.662 2.882-5.362 3.875-8.246 2.213l-12.795-7.387c-2.829-1.636-6.393-1.25-8.806.951-7.155 6.523-15.461 11.323-24.688 14.267-3.109.992-5.22 3.881-5.22 7.145v11.598h-30.22v-11.6c.001-3.264-2.109-6.153-5.219-7.145z"/><path d="m237.771 112.818c5.855-3.251 9.493-9.492 9.493-16.288v-43.77c0-4.142-3.357-7.5-7.5-7.5s-7.5 3.358-7.5 7.5v43.77c0 1.35-.68 2.566-1.773 3.173-1.947 1.08-4.477-1.156-4.758-1.415-3.056-2.797-7.8-2.588-10.597.468-2.797 3.055-2.587 7.799.468 10.596 3.312 3.031 8.336 5.657 13.83 5.657 2.713.001 5.544-.641 8.337-2.191z"/><path d="m288.855 60.76c4.143 0 7.5-3.358 7.5-7.5s-3.357-7.5-7.5-7.5h-22.865c-4.143 0-7.5 3.358-7.5 7.5v54.265c0 4.142 3.357 7.5 7.5 7.5h22.865c4.143 0 7.5-3.358 7.5-7.5s-3.357-7.5-7.5-7.5h-15.365v-12.133h13.679c4.143 0 7.5-3.358 7.5-7.5s-3.357-7.5-7.5-7.5h-13.679v-12.132z"/><path d="m334.646 60.26c3.985 0 7.827 1.173 11.111 3.391 3.432 2.319 8.094 1.416 10.413-2.016 2.318-3.432 1.416-8.094-2.017-10.413-5.772-3.9-12.519-5.962-19.508-5.962-19.234 0-34.883 15.648-34.883 34.883s15.648 34.883 34.883 34.883c7.705 0 14.626-2.537 20.018-7.337 1.057-.941 2.06-1.976 2.98-3.075 2.661-3.175 2.244-7.905-.931-10.566-3.174-2.66-7.905-2.244-10.565.931-.455.543-.947 1.052-1.461 1.509-2.637 2.348-6.016 3.538-10.041 3.538-10.964 0-19.883-8.919-19.883-19.883s8.921-19.883 19.884-19.883z"/><path d="m408.938 52.76c0-4.142-3.357-7.5-7.5-7.5h-30.244c-4.143 0-7.5 3.358-7.5 7.5s3.357 7.5 7.5 7.5h7.562v47.265c0 4.142 3.357 7.5 7.5 7.5s7.5-3.358 7.5-7.5v-47.265h7.683c4.142 0 7.499-3.358 7.499-7.5z"/><path d="m92.741 107.525c0 4.142 3.357 7.5 7.5 7.5s7.5-3.358 7.5-7.5v-13.768l16.479 18.723c1.482 1.685 3.553 2.545 5.633 2.545 1.76 0 3.527-.616 4.952-1.87 3.109-2.737 3.411-7.476.675-10.585l-13.253-15.058c8.795-2.964 15.124-11.04 15.124-20.519 0-11.984-10.11-21.733-22.538-21.733h-14.553c-1.993 0-3.905.793-5.312 2.205s-2.194 3.326-2.188 5.319c-.001.001-.019 54.741-.019 54.741zm22.071-47.265c4.086 0 7.538 3.083 7.538 6.733s-3.452 6.733-7.538 6.733c-1.65 0-4.36.01-6.993.023-.013-2.557-.029-10.804-.037-13.489z"/><path d="m39.071 107.525c0 4.142 3.357 7.5 7.5 7.5s7.5-3.358 7.5-7.5v-16.329c2.884-.014 5.933-.027 7.749-.027 12.824 0 23.257-10.298 23.257-22.955s-10.432-22.954-23.257-22.954h-15.249c-1.993 0-3.904.793-5.312 2.205-1.407 1.411-2.194 3.325-2.188 5.318zm22.749-47.265c4.476 0 8.257 3.643 8.257 7.955s-3.781 7.955-8.257 7.955c-1.804 0-4.816.012-7.685.027-.015-2.975-.035-12.817-.043-15.936h7.728z"/><path d="m211.712 80.142c0-19.234-15.648-34.883-34.883-34.883s-34.883 15.648-34.883 34.883 15.648 34.883 34.883 34.883 34.883-15.648 34.883-34.883zm-54.766 0c0-10.963 8.919-19.883 19.883-19.883s19.883 8.919 19.883 19.883-8.919 19.883-19.883 19.883-19.883-8.919-19.883-19.883z"/><path d="m55.878 137.541c0 4.142 3.357 7.5 7.5 7.5h313.254c4.143 0 7.5-3.358 7.5-7.5s-3.357-7.5-7.5-7.5h-313.254c-4.143 0-7.5 3.357-7.5 7.5z"/><path d="m195.896 163.96h-125.417c-15.766 0-28.592 12.827-28.592 28.593v67.553c0 15.766 12.826 28.593 28.592 28.593h125.416c15.767 0 28.593-12.827 28.593-28.593v-67.553c0-15.767-12.826-28.593-28.592-28.593zm13.592 96.146c0 7.495-6.098 13.593-13.593 13.593h-125.416c-7.494 0-13.592-6.098-13.592-13.593v-67.553c0-7.495 6.098-13.593 13.592-13.593h125.416c7.495 0 13.593 6.098 13.593 13.593z"/><path d="m398.074 200.391c0-4.142-3.357-7.5-7.5-7.5h-139.667c-4.143 0-7.5 3.358-7.5 7.5s3.357 7.5 7.5 7.5h139.667c4.143 0 7.5-3.358 7.5-7.5z"/><path d="m344.203 229.322c0-4.142-3.357-7.5-7.5-7.5h-85.796c-4.143 0-7.5 3.358-7.5 7.5s3.357 7.5 7.5 7.5h85.796c4.143 0 7.5-3.358 7.5-7.5z"/><path d="m41.888 315.117c0 4.142 3.357 7.5 7.5 7.5h201.52c4.143 0 7.5-3.358 7.5-7.5s-3.357-7.5-7.5-7.5h-201.52c-4.143 0-7.5 3.358-7.5 7.5z"/><path d="m258.407 372.98c0-4.142-3.357-7.5-7.5-7.5h-201.519c-4.143 0-7.5 3.358-7.5 7.5s3.357 7.5 7.5 7.5h201.52c4.142 0 7.499-3.358 7.499-7.5z"/><path d="m49.388 395.24c-4.143 0-7.5 3.358-7.5 7.5s3.357 7.5 7.5 7.5h96.77c4.143 0 7.5-3.358 7.5-7.5s-3.357-7.5-7.5-7.5z"/><path d="m271.376 344.049c0-4.142-3.357-7.5-7.5-7.5h-214.488c-4.143 0-7.5 3.358-7.5 7.5s3.357 7.5 7.5 7.5h214.488c4.143 0 7.5-3.358 7.5-7.5z"/><path d="m121.846 219.827h-46.78c-4.143 0-7.5 3.358-7.5 7.5v29.929c0 4.142 3.357 7.5 7.5 7.5h46.779c4.143 0 7.5-3.358 7.5-7.5v-29.929c.001-4.142-3.357-7.5-7.499-7.5zm-7.5 29.928h-31.78v-14.929h31.779v14.929z"/><path d="m191.309 192.226h-46.779c-4.143 0-7.5 3.358-7.5 7.5v57.53c0 4.142 3.357 7.5 7.5 7.5h46.779c4.143 0 7.5-3.358 7.5-7.5v-57.53c0-4.142-3.358-7.5-7.5-7.5zm-7.5 57.529h-31.779v-42.53h31.779z"/></g></g></svg>