<svg version="1.1" id="Capa_1" xmlns="http://www.w3.org/2000/svg" xmlns:xlink="http://www.w3.org/1999/xlink" x="0px" y="0px" viewBox="0 0 512 512" style="enable-background:new 0 0 512 512;" xml:space="preserve" width="300" height="300" xmlns:svgjs="http://svgjs.dev/svgjs"><g transform="matrix(1,0,0,1,0,0)"><path style="" d="M512,256c0,77.657-34.586,147.247-89.192,194.194c-6.635,5.705-13.563,11.076-20.762,16.081&#10;&#9;c-2.069,1.442-4.159,2.853-6.269,4.232c-1.567,1.024-3.156,2.038-4.744,3.02h-0.01c-9.55,5.945-19.519,11.264-29.853,15.924&#10;&#9;c-12.267,5.538-25.046,10.146-38.243,13.709c-2.706,0.731-5.423,1.421-8.161,2.058c-8.631,2.027-17.429,3.626-26.373,4.744&#10;&#9;C277.786,511.31,266.971,512,256,512c-10.982,0-21.797-0.69-32.402-2.038c-6.332-0.794-12.581-1.818-18.756-3.072&#10;&#9;c-1.818-0.376-3.636-0.763-5.444-1.17c-16.886-3.814-33.134-9.3-48.577-16.269c-10.334-4.66-20.302-9.989-29.853-15.924&#10;&#9;c-1.588-0.982-3.176-1.996-4.744-3.02c-2.111-1.379-4.2-2.79-6.269-4.232c-7.21-5.005-14.137-10.386-20.773-16.081&#10;&#9;C34.576,403.237,0,333.657,0,256C0,114.615,114.615,0,256,0S512,114.615,512,256z" fill="#ebebed00" data-original-color="#ebebedff" stroke="none"/><path style="" d="M255.999,158.12h11.1c0,0,24.008,23.621,66.989,23.621s62.343-23.621,62.343-23.621h6.97&#10;&#9;c0,0,4.259,86.738-9.293,147.919c-13.552,61.181-43.563,124.88-75.121,156.438l-62.989,36.011l-62.989-36.011&#10;&#9;c-31.559-31.559-61.569-95.257-75.121-156.438s-9.293-147.919-9.293-147.919h6.971c0,0,19.361,23.621,62.343,23.621&#10;&#9;s66.989-23.621,66.989-23.621H255.999z" fill="#de0029ff" data-original-color="#de0029ff" stroke="none"/><path style="" d="M255.083,483.517l-50.157-20.526l-0.721-0.82c-23.547-26.802-42.792-58.216-57.198-93.374&#10;&#9;c-11.503-28.071-19.963-58.577-25.147-90.67c-8.824-54.637-5.142-94.393-4.981-96.06l0.628-6.498l5.934,2.722&#10;&#9;c19.124,8.77,38.271,13.216,56.912,13.216c44.511-0.001,72.184-25.537,72.457-25.795l3.194-3.004l3.189,3.01&#10;&#9;c0.269,0.253,27.93,25.79,72.444,25.79c0.003,0,0.004,0,0.007,0c18.645-0.001,37.793-4.447,56.912-13.216l5.934-2.722l0.628,6.498&#10;&#9;c0.16,1.666,3.843,41.423-4.982,96.06c-5.184,32.093-13.644,62.599-25.147,90.67c-14.407,35.158-33.651,66.573-57.198,93.374&#10;&#9;l-0.721,0.82l-50.157,20.526h-1.833V483.517z" fill="#ffffffff" data-original-color="#ffffffff" stroke="none"/><path style="" d="M256.002,478.87l48.301-19.766c101.741-115.798,86.193-276.59,86.193-276.59&#10;&#9;C309.437,219.688,256,169.091,256,169.091s-53.437,50.597-134.496,13.424c0,0-15.548,160.792,86.193,276.59l48.301,19.766H256.002z" fill="#de0029ff" data-original-color="#de0029ff" stroke="none"/><path style="" d="M383.207,254.376c-0.79,7.148-1.789,14.66-3.059,22.459c-5.08,31.296-13.336,61.011-24.55,88.325&#10;&#9;c-13.801,33.634-32.147,63.706-54.536,89.41l-45.065,41.983L210.93,454.57c-22.389-25.703-40.736-55.776-54.536-89.41&#10;&#9;c-11.207-27.315-19.47-57.031-24.543-88.325c-1.27-7.799-2.27-15.311-3.059-22.459c-3.244-29.383-2.881-52.546-2.363-63.83&#10;&#9;c18.067,7.326,36.174,11.028,53.925,11.028c39.373,0,66.192-17.928,75.64-25.387c9.456,7.457,36.267,25.387,75.64,25.387h0.007&#10;&#9;c17.751,0,35.857-3.709,53.925-11.028C386.089,201.829,386.452,224.994,383.207,254.376z" fill="#ffffffff" data-original-color="#ffffffff" stroke="none"/><g>
	<path style="" d="M258.32,118.491V74.093c0,0,12.655-9.549,19.361-22.978c6.715-13.421,4.647-30.459,4.647-30.459&#10;&#9;&#9;c-6.971,9.813-22.715,6.451-24.264,2.324s-0.519-7.489,3.872-7.489s1.944,5.956,1.944,5.956c2.447-1.185,4.089-2.982,3.477-5.693&#10;&#9;&#9;c-1.805-8.008-10.324-3.616-10.324-3.616c2.579-6.971-1.038-12.135-1.038-12.135s-3.609,5.166-1.03,12.135&#10;&#9;&#9;c0,0-8.519-4.391-10.324,3.616c-0.612,2.71,1.03,4.508,3.469,5.693c0,0-2.44-5.956,1.952-5.956c4.383,0,5.421,3.361,3.872,7.489&#10;&#9;&#9;c-1.549,4.127-17.301,7.489-24.271-2.324c0,0-2.061,17.038,4.647,30.459c6.715,13.429,19.361,22.978,19.361,22.978v44.399H82.265&#10;&#9;&#9;v37.437h347.471v-37.437H258.32z M234.575,30.723c20.135,3.872,21.421-3.872,21.421-3.872s1.294,7.745,21.429,3.872&#10;&#9;&#9;c0,0,1.549,23.233-21.429,38.204C233.027,53.956,234.575,30.723,234.575,30.723z" fill="#00a398ff" data-original-color="#00a398ff" stroke="none"/>
	<path style="" d="M234.314,51.117c-1.149-2.532-5.585-2.275-5.585-2.275c-2.511,0-4.546,1.579-4.546,3.525&#10;&#9;&#9;s2.035,3.525,4.546,3.525c0.597,0,1.165-0.092,1.686-0.253c0,0,1.511,3.351-4.684,6.256c-6.195,2.904-9.874-3.098-9.874-3.098&#10;&#9;&#9;s-2.227,3.775,0,6.002c0,0-6.195,3.872-12.778,0s-1.743-11.23-1.743-11.23l0.424,0.02c-0.05,0.94,0.174,1.972,0.73,2.934&#10;&#9;&#9;c1.256,2.174,3.64,3.148,5.327,2.175c1.686-0.974,2.035-3.525,0.779-5.7c-0.776-1.346-1.985-2.23-3.194-2.479v-0.001&#10;&#9;&#9;c0,0-11.23-2.757-9.1,11.376c0,0-8.131-1.936-16.844-0.968c-2.517,0-6.776-0.774-6.776-4.84c0,0-3.872,4.066,0,7.938&#10;&#9;&#9;c0,0-8.81,2.42-14.133,7.745c-5.325,5.325-11.23,8.906-17.038,6.39c0,0-1.355,3.291,2.324,4.647h-10.068h-4.453&#10;&#9;&#9;c0,0-2.904-1.549-1.936-9.1c0.968-7.55,10.262-2.904,7.938-0.581c-1.043,1.043-2.223,1.013-3.205,0.664&#10;&#9;&#9;c0,0,2.276,4.215,5.916,2.047c4.727-2.815-0.968-14.328-9.874-7.938c0,0,2.71-6.195-1.936-12.778&#10;&#9;&#9;c-4.647,6.583-1.936,12.778-1.936,12.778c-8.906-6.39-14.601,5.123-9.874,7.938c3.64,2.168,5.916-2.047,5.916-2.047&#10;&#9;&#9;c-0.983,0.349-2.163,0.379-3.205-0.664c-2.324-2.324,6.971-6.971,7.938,0.581c0.968,7.55-1.936,9.1-1.936,9.1h-21.881&#10;&#9;&#9;c0,0,7.357,4.453,6.002,16.069c-1.355,11.617-7.802,14.871-10.842,10.649c-3.485-4.84,3.485-6.39,3.485-6.39&#10;&#9;&#9;s-8.131-2.324-8.131,4.84s8.81,9.39,13.747,4.453s7.745-12.197,3.485-25.75c0,0,30.785,0,35.818,0s8.712-3.291,8.712-3.291&#10;&#9;&#9;s-0.388,3.872,1.162,7.164c0,0,5.034-2.904,6.099-6.099c0,0,1.065,7.067,7.454,9.39c0,0-2.517-10.842,2.324-15.683&#10;&#9;&#9;c0,0,0,6.002,9.874,7.55c0,0-6.002-10.262,4.84-14.328c10.842-4.066,19.845,4.937,19.845,4.937s-6.68,1.258-5.325,10.551&#10;&#9;&#9;c0,0,7.745-7.164,11.617,5.034c3.872,12.197-6.195,14.328-6.195,14.328s-0.581-4.066-3.485-5.228c0,0,0.581,8.906-8.906,8.906&#10;&#9;&#9;c-9.487,0-9.487-8.131-9.487-11.81s4.259-7.55,8.906-6.583c0,0-3.389,3.001,0,6.39c3.389,3.389,9.1-2.13,6.971-6.002&#10;&#9;&#9;c-2.129-3.872-8.712-5.228-14.328-2.517c-5.614,2.71-6.971,12.197-3.872,17.619c0,0-17.176-3.65-15.295-11.036&#10;&#9;&#9;c0,0-4.453-0.581-3.291,5.228c0,0-15.683-11.617-29.623-10.068c-13.94,1.549-18.199,9.681-16.069,16.457&#10;&#9;&#9;c2.13,6.776,12.585,10.842,20.33,3.098c4.066-4.066,0-8.906-4.259-7.745c-4.259,1.161-1.162,6.583-1.162,6.583&#10;&#9;&#9;s-4.549,4.163-8.712,0c-4.163-4.163-1.936-11.617,3.291-13.166c5.228-1.549,19.168-2.517,32.14,6.39c0,0-8.035,2.13-8.035,8.035&#10;&#9;&#9;c0,0,8.422-4.549,15.392-2.808s39.884,16.069,50.727-4.84c10.842-20.91-3.291-31.752-3.291-31.752l7.164-1.549&#10;&#9;&#9;c0,0-1.162,4.647,3.679,4.647c0,0-1.355-3.485,2.517-7.357C230.378,63.25,237.452,59.757,234.314,51.117z" fill="#00a398ff" data-original-color="#00a398ff" stroke="none"/>
	<path style="" d="M238.579,73.318c-8.34,0-15.094,9.146-15.094,20.43c0,11.275,6.753,20.423,15.094,20.423&#10;&#9;&#9;s15.094-9.146,15.094-20.423C253.673,82.464,246.92,73.318,238.579,73.318z M238.579,77.307c3.299,0,6.288,1.773,8.48,4.67&#10;&#9;&#9;l-8.48,8.48l-8.48-8.48C232.291,79.08,235.281,77.307,238.579,77.307z M227.776,101.267c-0.86-2.254-1.348-4.81-1.348-7.52&#10;&#9;&#9;c0-2.71,0.488-5.266,1.348-7.52l7.52,7.52L227.776,101.267z M238.579,110.181c-3.299,0-6.288-1.782-8.48-4.67l8.48-8.48l8.48,8.48&#10;&#9;&#9;C244.868,108.401,241.878,110.181,238.579,110.181z M241.863,93.748l7.52-7.52c0.86,2.254,1.348,4.81,1.348,7.52&#10;&#9;&#9;c0,2.71-0.488,5.266-1.348,7.52L241.863,93.748z" fill="#00a398ff" data-original-color="#00a398ff" stroke="none"/>
	<path style="" d="M277.684,51.117c1.149-2.532,5.585-2.275,5.585-2.275c2.511,0,4.546,1.579,4.546,3.525&#10;&#9;&#9;s-2.035,3.525-4.546,3.525c-0.597,0-1.165-0.092-1.686-0.253c0,0-1.511,3.351,4.684,6.256c6.195,2.905,9.874-3.098,9.874-3.098&#10;&#9;&#9;s2.227,3.775,0,6.002c0,0,6.195,3.872,12.778,0c6.583-3.872,1.743-11.23,1.743-11.23l-0.424,0.02c0.05,0.94-0.174,1.972-0.73,2.934&#10;&#9;&#9;c-1.256,2.174-3.64,3.148-5.327,2.175c-1.686-0.974-2.035-3.525-0.78-5.7c0.776-1.346,1.985-2.23,3.194-2.479v-0.001&#10;&#9;&#9;c0,0,11.23-2.757,9.1,11.376c0,0,8.131-1.936,16.844-0.968c2.517,0,6.776-0.774,6.776-4.84c0,0,3.872,4.066,0,7.938&#10;&#9;&#9;c0,0,8.81,2.42,14.133,7.745c5.325,5.325,11.23,8.906,17.038,6.39c0,0,1.355,3.291-2.324,4.647h10.068h4.453&#10;&#9;&#9;c0,0,2.904-1.549,1.936-9.1c-0.968-7.55-10.261-2.904-7.938-0.581c1.043,1.043,2.221,1.013,3.205,0.664&#10;&#9;&#9;c0,0-2.276,4.215-5.916,2.047c-4.727-2.815,0.968-14.328,9.874-7.938c0,0-2.71-6.195,1.936-12.778&#10;&#9;&#9;c4.647,6.583,1.936,12.778,1.936,12.778c8.906-6.39,14.601,5.123,9.874,7.938c-3.64,2.168-5.916-2.047-5.916-2.047&#10;&#9;&#9;c0.983,0.349,2.163,0.379,3.205-0.664c2.324-2.324-6.97-6.971-7.938,0.581c-0.968,7.55,1.936,9.1,1.936,9.1h21.878&#10;&#9;&#9;c0,0-7.357,4.453-6.002,16.069s7.802,14.871,10.842,10.649c3.485-4.84-3.485-6.39-3.485-6.39s8.131-2.324,8.131,4.84&#10;&#9;&#9;s-8.81,9.39-13.747,4.453c-4.937-4.937-7.745-12.197-3.485-25.75c0,0-30.785,0-35.818,0c-5.033,0-8.712-3.291-8.712-3.291&#10;&#9;&#9;s0.388,3.872-1.162,7.164c0,0-5.034-2.904-6.099-6.099c0,0-1.065,7.067-7.454,9.39c0,0,2.517-10.842-2.324-15.683&#10;&#9;&#9;c0,0,0,6.002-9.874,7.55c0,0,6.002-10.262-4.84-14.328c-10.842-4.066-19.841,4.936-19.841,4.936s6.68,1.258,5.325,10.551&#10;&#9;&#9;c0,0-7.745-7.164-11.617,5.034c-3.872,12.198,6.195,14.328,6.195,14.328s0.581-4.066,3.485-5.228c0,0-0.581,8.906,8.906,8.906&#10;&#9;&#9;s9.487-8.131,9.487-11.81s-4.259-7.55-8.906-6.583c0,0,3.389,3.001,0,6.39c-3.389,3.389-9.1-2.13-6.97-6.002&#10;&#9;&#9;c2.129-3.872,8.712-5.228,14.328-2.517s6.97,12.197,3.872,17.619c0,0,17.176-3.65,15.295-11.036c0,0,4.453-0.581,3.291,5.228&#10;&#9;&#9;c0,0,15.683-11.617,29.623-10.068c13.94,1.549,18.2,9.681,16.069,16.457c-2.129,6.776-12.585,10.842-20.33,3.098&#10;&#9;&#9;c-4.066-4.066,0-8.906,4.259-7.745c4.259,1.162,1.162,6.583,1.162,6.583s4.549,4.163,8.712,0&#10;&#9;&#9;c4.163-4.163,1.936-11.617-3.291-13.166c-5.228-1.549-19.168-2.517-32.14,6.39c0,0,8.035,2.13,8.035,8.035&#10;&#9;&#9;c0,0-8.422-4.549-15.392-2.808c-6.971,1.742-39.884,16.069-50.727-4.84c-10.843-20.909,3.291-31.752,3.291-31.752l-7.164-1.549&#10;&#9;&#9;c0,0,1.162,4.647-3.679,4.647c0,0,1.355-3.485-2.517-7.357C281.621,63.25,274.547,59.757,277.684,51.117z" fill="#00a398ff" data-original-color="#00a398ff" stroke="none"/>
</g><path style="" d="M82.072,377.675c0,0,13.288,2.025,18.393-0.388s8.519-21.685,8.519-21.685l-11.423-21.878&#10;&#9;l-12.004,4.453l-10.842,26.525L82.072,377.675z" fill="#ffe75cff" data-original-color="#ffe75cff" stroke="none"/><path style="" d="M258.325,93.748c0,11.275,6.753,20.423,15.094,20.423c8.34,0,15.094-9.146,15.094-20.423&#10;&#9;c0-11.284-6.753-20.43-15.094-20.43C265.078,73.318,258.325,82.464,258.325,93.748z M281.899,81.976l-8.48,8.48l-8.48-8.48&#10;&#9;c2.192-2.896,5.181-4.67,8.48-4.67S279.708,79.08,281.899,81.976z M276.703,93.748l7.52-7.52c0.86,2.254,1.348,4.81,1.348,7.52&#10;&#9;c0,2.71-0.488,5.266-1.348,7.52L276.703,93.748z M264.939,105.512l8.48-8.48l8.48,8.48c-2.191,2.889-5.181,4.67-8.48,4.67&#10;&#9;S267.13,108.401,264.939,105.512z M262.615,101.267c-0.86-2.254-1.348-4.81-1.348-7.52c0-2.71,0.488-5.266,1.348-7.52l7.52,7.52&#10;&#9;L262.615,101.267z" fill="#00a398ff" data-original-color="#00a398ff" stroke="none"/><path style="" d="M100.465,377.289c0,0,14.328-2.71,14.328-24.782c0-22.071-11.617-20.523-5.809-40.271&#10;&#9;c0,0-2.517-1.743-6.39,2.129c0,0,0.968-24.395-11.617-32.72c0,0,0.388,14.714-7.164,24.589c-7.551,9.874-9.293,25.557-9.293,29.816&#10;&#9;c0,0-4.259-6.97-10.649-6.97c0,0,2.904,6.002,2.904,12.197s-5.034,29.623,15.295,36.399c0,0-2.13-4.453-2.13-11.423&#10;&#9;s12.778-20.523,12.778-28.654c0,0,9.1,10.649,10.455,17.231C104.53,361.412,104.724,370.706,100.465,377.289z" fill="#de0029ff" data-original-color="#de0029ff" stroke="none"/><path style="" d="M107.048,369.544c0,0,3.679-7.745,3.679-17.038s-10.068-21.297-12.004-30.204&#10;&#9;c-1.936-8.906-3.291-17.619-5.034-21.104c0,0-3.291,11.23-7.164,18.393c-3.872,7.164-9.487,21.104-9.487,28.461&#10;&#9;c0,0-0.193-3.679-5.228-5.228c0,0-4.163,19.458,4.647,28.268c0,0-1.355-8.131,1.355-14.521c2.71-6.39,4.84-10.261,7.745-18.393&#10;&#9;c2.905-8.132,2.684-14.302,7.164-18.78c0,0,0.29,9.777,4.84,14.328C102.111,338.275,110.919,353.474,107.048,369.544z" fill="#ffe75cff" data-original-color="#ffe75cff" stroke="none"/><path style="" d="M94.656,377.289c0,0,6.583-4.066,5.614-15.295c-0.968-11.23-6.971-13.166-6.971-13.166&#10;&#9;s0.871,3.389-3.679,7.938c-4.549,4.549-7.648,14.618-0.968,21.297c0,0-1.646-6.68,1.355-9.681s3.001-7.55,3.001-7.55&#10;&#9;S97.948,370.318,94.656,377.289z" fill="#d2001fff" data-original-color="#d2001fff" stroke="none"/><path style="" d="M84.348,297.234v0.007c-0.899,2.695-2.091,4.933-3.082,6.521c-1.069,1.704-1.905,2.664-1.905,2.664&#10;&#9;c-9.681-7.838-4.066-18.393-2.324-24.395c1.743-6.002,0-11.617,0-11.617C86.989,280.366,86.648,290.318,84.348,297.234z" fill="#de0029ff" data-original-color="#de0029ff" stroke="none"/><path style="" d="M84.348,297.234v0.007c-0.899,2.695-2.091,4.933-3.082,6.521c-2.556-2.463-1.518-16.31-1.518-16.31&#10;&#9;S84.348,290.38,84.348,297.234z" fill="#ffe75cff" data-original-color="#ffe75cff" stroke="none"/><g>
	<path style="" d="M106.467,382.516c0,0-12.197-5.421-29.429,0c0,0,7.55,2.324,9.487,7.938h13.166&#10;&#9;&#9;C99.69,390.454,99.884,384.258,106.467,382.516z" fill="#00a398ff" data-original-color="#00a398ff" stroke="none"/>
	<path style="" d="M103.659,399.36h-5.711v-5.614H86.525v5.614H81.2c-2.299,0-4.163,1.864-4.163,4.163&#10;&#9;&#9;c0,2.299,1.864,4.163,4.163,4.163h5.325v8.131h11.423v-8.131h5.711c2.299,0,4.163-1.864,4.163-4.163&#10;&#9;&#9;C107.822,401.224,105.958,399.36,103.659,399.36z" fill="#00a398ff" data-original-color="#00a398ff" stroke="none"/>
	<path style="" d="M169.189,439.082c0.751,1.139,1.51,2.254,2.27,3.361c5.344,7.752,10.835,14.737,16.395,20.747&#10;&#9;&#9;c1.216,1.317,2.431,2.586,3.655,3.802l1.262,0.72l-41.41,3.514l-12.684-15.074l21.537-11.995L169.189,439.082z" fill="#00a398ff" data-original-color="#00a398ff" stroke="none"/>
	<path style="" d="M171.457,442.441c-6.886,4.66-15.569,10.606-26.091,17.93c-1.484,1.034-3.009,2.1-4.566,3.187&#10;&#9;&#9;c-0.408,0.282-0.815,0.564-1.223,0.857c-0.742,0.522-1.484,1.014-2.226,1.484c-0.805,0.522-1.62,1.014-2.435,1.484&#10;&#9;&#9;c-4.587,2.675-9.268,4.681-13.949,6.144c-1.588-0.982-3.176-1.996-4.744-3.02c-2.111-1.379-4.2-2.79-6.269-4.232&#10;&#9;&#9;c-7.21-5.005-14.137-10.386-20.773-16.081c1.818-1.964,2.759-3.208,2.759-3.208c-10.292-5.831-16.781-14.096-20.699-20.887&#10;&#9;&#9;c-1.536-2.644-2.664-5.068-3.48-7.032c-1.264-3.041-1.755-4.995-1.755-4.995c22.006,15.851,62.485-4.336,80.781-15.036&#10;&#9;&#9;c0.512,1.066,1.024,2.132,1.536,3.187c0.805,1.651,1.609,3.291,2.445,4.911C157.247,420.007,164.216,431.929,171.457,442.441z" fill="#00a398ff" data-original-color="#00a398ff" stroke="none"/>
</g><g>
	<path style="" d="M150.765,407.136c-5.986,3.95-15.752,9.766-27.478,14.397c-12.097,4.778-23.543,7.164-34.075,7.164&#10;&#9;&#9;c-6.343,0-12.353-0.86-17.975-2.594c-1.533-2.649-2.664-5.073-3.477-7.039c30.242,13.119,66.919-7.806,80.566-16.844&#10;&#9;&#9;C149.123,403.875,149.936,405.509,150.765,407.136z" fill="#ffffffff" data-original-color="#ffffffff" stroke="none"/>
	<path style="" d="M144.896,459.003c-1.63,0.899-3.239,1.735-4.827,2.518c-8.547,4.274-16.52,7.147-23.845,8.986&#10;&#9;&#9;c-2.111-1.379-4.2-2.79-6.269-4.232c8.997-1.724,19.383-5.12,30.856-11.233c0.481-0.251,0.982-0.522,1.473-0.794L144.896,459.003z" fill="#ffffffff" data-original-color="#ffffffff" stroke="none"/>
</g><path style="" d="M429.922,377.675c0,0-13.288,2.025-18.393-0.388c-5.105-2.413-8.519-21.685-8.519-21.685&#10;&#9;l11.423-21.878l12.004,4.453l10.842,26.525L429.922,377.675z" fill="#ffe75cff" data-original-color="#ffe75cff" stroke="none"/><path style="" d="M411.529,377.289c0,0-14.328-2.71-14.328-24.782c0-22.071,11.617-20.523,5.809-40.271&#10;&#9;c0,0,2.517-1.743,6.39,2.129c0,0-0.968-24.395,11.617-32.72c0,0-0.388,14.714,7.164,24.589c7.551,9.874,9.293,25.557,9.293,29.816&#10;&#9;c0,0,4.259-6.97,10.649-6.97c0,0-2.904,6.002-2.904,12.197s5.034,29.623-15.295,36.399c0,0,2.129-4.453,2.129-11.423&#10;&#9;s-12.778-20.523-12.778-28.654c0,0-9.1,10.649-10.455,17.231C407.463,361.412,407.27,370.706,411.529,377.289z" fill="#de0029ff" data-original-color="#de0029ff" stroke="none"/><path style="" d="M404.946,369.544c0,0-3.679-7.745-3.679-17.038s10.068-21.297,12.004-30.204&#10;&#9;c1.936-8.906,3.291-17.619,5.034-21.104c0,0,3.291,11.23,7.164,18.393c3.872,7.164,9.487,21.104,9.487,28.461&#10;&#9;c0,0,0.193-3.679,5.228-5.228c0,0,4.163,19.458-4.647,28.268c0,0,1.355-8.131-1.355-14.521c-2.71-6.39-4.84-10.261-7.745-18.393&#10;&#9;c-2.905-8.132-2.684-14.302-7.164-18.78c0,0-0.29,9.777-4.84,14.328C409.883,338.275,401.074,353.474,404.946,369.544z" fill="#ffe75cff" data-original-color="#ffe75cff" stroke="none"/><path style="" d="M417.337,377.289c0,0-6.583-4.066-5.614-15.295c0.968-11.23,6.971-13.166,6.971-13.166&#10;&#9;s-0.871,3.389,3.679,7.938c4.549,4.549,7.648,14.618,0.968,21.297c0,0,1.646-6.68-1.355-9.681s-3.001-7.55-3.001-7.55&#10;&#9;S414.046,370.318,417.337,377.289z" fill="#d2001fff" data-original-color="#d2001fff" stroke="none"/><path style="" d="M427.645,297.234v0.007c0.899,2.695,2.091,4.933,3.082,6.521c1.069,1.704,1.905,2.664,1.905,2.664&#10;&#9;c9.681-7.838,4.066-18.393,2.324-24.395c-1.743-6.002,0-11.617,0-11.617C425.004,280.366,425.346,290.318,427.645,297.234z" fill="#de0029ff" data-original-color="#de0029ff" stroke="none"/><path style="" d="M427.645,297.234v0.007c0.899,2.695,2.091,4.933,3.082,6.521c2.556-2.463,1.518-16.31,1.518-16.31&#10;&#9;S427.645,290.38,427.645,297.234z" fill="#ffe75cff" data-original-color="#ffe75cff" stroke="none"/><g>
	<path style="" d="M405.527,382.516c0,0,12.197-5.421,29.428,0c0,0-7.55,2.324-9.487,7.938h-13.166&#10;&#9;&#9;C412.303,390.454,412.11,384.258,405.527,382.516z" fill="#00a398ff" data-original-color="#00a398ff" stroke="none"/>
	<path style="" d="M408.335,399.36h5.711v-5.614h11.423v5.614h5.325c2.299,0,4.163,1.864,4.163,4.163&#10;&#9;&#9;c0,2.299-1.864,4.163-4.163,4.163h-5.325v8.131h-11.423v-8.131h-5.711c-2.299,0-4.163-1.864-4.163-4.163&#10;&#9;&#9;C404.172,401.224,406.036,399.36,408.335,399.36z" fill="#00a398ff" data-original-color="#00a398ff" stroke="none"/>
	<path style="" d="M351.78,444.158l21.537,11.995l-12.684,15.074l-41.41-3.514l1.262-0.72&#10;&#9;&#9;c1.224-1.216,2.44-2.486,3.655-3.802c5.561-6.009,11.052-12.995,16.396-20.747c0.759-1.108,1.518-2.223,2.27-3.361L351.78,444.158z&#10;&#9;&#9;" fill="#00a398ff" data-original-color="#00a398ff" stroke="none"/>
	<path style="" d="M445.994,414.072c0,0-0.502,1.954-1.755,4.995c-0.815,1.964-1.944,4.389-3.48,7.032&#10;&#9;&#9;c-3.918,6.792-10.407,15.057-20.71,20.887c0,0,0.94,1.243,2.759,3.208c-6.635,5.705-13.563,11.076-20.762,16.081&#10;&#9;&#9;c-2.069,1.442-4.159,2.853-6.269,4.232c-1.567,1.024-3.156,2.038-4.744,3.02c0,0,0,0.01-0.01,0&#10;&#9;&#9;c-4.681-1.463-9.362-3.469-13.949-6.144c-0.815-0.47-1.63-0.961-2.435-1.484c-0.742-0.47-1.484-0.961-2.215-1.484&#10;&#9;&#9;c-0.418-0.293-0.825-0.575-1.223-0.857c-1.557-1.087-3.082-2.152-4.577-3.187c-10.512-7.325-19.205-13.27-26.091-17.93&#10;&#9;&#9;c7.241-10.512,14.211-22.434,20.699-35.307c0.825-1.62,1.641-3.26,2.435-4.911c0.522-1.055,1.024-2.121,1.536-3.187&#10;&#9;&#9;C383.498,409.736,423.978,429.923,445.994,414.072z" fill="#00a398ff" data-original-color="#00a398ff" stroke="none"/>
	<path style="" d="M372.412,465.408c-0.125,1.787-0.825,5.966-4.347,12.769c-1.254,2.435-2.863,5.193-4.942,8.307&#10;&#9;&#9;c-0.627,0.94-1.275,1.933-1.954,2.967C329.091,503.944,293.491,512,256,512s-73.091-8.056-105.179-22.549&#10;&#9;&#9;c-0.679-1.034-1.327-2.027-1.954-2.967c-2.079-3.114-3.688-5.872-4.942-8.307c-3.511-6.802-4.221-10.982-4.347-12.769&#10;&#9;&#9;c-0.042-0.658,0-0.993,0-0.993l0.711-2.132l4.221-12.675c5.444-6.008,14.608-11.452,21.703-15.109&#10;&#9;&#9;c0.982,1.557,1.975,3.082,2.978,4.577c-10.595,5.465-22.298,13.187-23.792,19.195c-0.376,1.463-0.073,2.675,0.93,3.918&#10;&#9;&#9;c5.799,7.147,21.922,4.932,41.524,1.003c3.051-0.627,6.196-1.275,9.394-1.944c18.171-3.783,38.755-8.067,58.755-8.067&#10;&#9;&#9;c19.989,0,40.573,4.284,58.744,8.067c3.197,0.669,6.343,1.317,9.394,1.944c19.602,3.929,35.725,6.144,41.524-1.003&#10;&#9;&#9;c1.014-1.243,1.306-2.456,0.93-3.918c-1.494-6.008-13.197-13.73-23.792-19.195c1.003-1.494,1.996-3.02,2.988-4.577&#10;&#9;&#9;c7.084,3.657,16.259,9.101,21.703,15.109l4.221,12.675l0.711,2.132C372.423,464.415,372.454,464.75,372.412,465.408z" fill="#00a398ff" data-original-color="#00a398ff" stroke="none"/>
</g><g>
	<path style="" d="M361.229,407.136c5.986,3.95,15.752,9.766,27.478,14.397c12.097,4.778,23.543,7.164,34.075,7.164&#10;&#9;&#9;c6.343,0,12.353-0.86,17.975-2.594c1.534-2.649,2.664-5.073,3.477-7.039c-30.242,13.119-66.919-7.806-80.566-16.844&#10;&#9;&#9;C362.87,403.875,362.057,405.509,361.229,407.136z" fill="#ffffffff" data-original-color="#ffffffff" stroke="none"/>
	<path style="" d="M371.854,456.956c-0.62-2.486-2.2-4.964-4.368-7.35c-5.444-6.002-14.614-11.447-21.7-15.102&#10;&#9;&#9;c-0.992,1.549-1.982,3.074-2.981,4.577c10.594,5.46,22.296,13.181,23.791,19.191c0.372,1.464,0.077,2.672-0.929,3.918&#10;&#9;&#9;c-5.8,7.148-21.925,4.926-41.526,0.999c-3.051-0.62-6.195-1.27-9.394-1.936c-18.169-3.787-38.753-8.07-58.749-8.07&#10;&#9;&#9;s-40.581,4.283-58.749,8.07c-3.198,0.666-6.343,1.317-9.394,1.936c-19.601,3.927-35.725,6.149-41.526-0.999&#10;&#9;&#9;c-1.007-1.247-1.301-2.456-0.929-3.918c1.494-6.009,13.197-13.731,23.791-19.191c-0.999-1.503-1.991-3.028-2.981-4.577&#10;&#9;&#9;c-7.086,3.655-16.255,9.1-21.7,15.102c-2.168,2.385-3.748,4.863-4.368,7.35c-0.465,1.836-0.411,3.632,0.147,5.328&#10;&#9;&#9;c0.372,1.162,0.983,2.277,1.828,3.323c3.957,4.871,10.37,6.676,18.648,6.676c8.805-0.007,19.717-2.036,32.008-4.569&#10;&#9;&#9;c1.828-0.372,3.694-0.759,5.584-1.154c17.905-3.725,38.204-7.954,57.642-7.954s39.736,4.229,57.642,7.954&#10;&#9;&#9;c1.889,0.395,3.756,0.783,5.584,1.154c12.29,2.533,23.202,4.561,32.008,4.569c8.279,0,14.691-1.805,18.648-6.676&#10;&#9;&#9;c0.844-1.046,1.456-2.161,1.828-3.323C372.265,460.588,372.319,458.792,371.854,456.956z" fill="#ffffffff" data-original-color="#ffffffff" stroke="none"/>
	<path style="" d="M402.045,466.275c-2.069,1.442-4.159,2.853-6.269,4.232c-7.335-1.839-15.308-4.712-23.855-8.986&#10;&#9;&#9;c-1.588-0.784-3.197-1.62-4.817-2.518l2.602-4.754c0.502,0.272,0.993,0.543,1.484,0.794&#10;&#9;&#9;C382.652,461.155,393.038,464.551,402.045,466.275z" fill="#ffffffff" data-original-color="#ffffffff" stroke="none"/>
	<path style="" d="M372.032,465.328c-0.123,0.527-3.268,12.918-23.899,11.098c-8.526-0.743-17.224-2.919-27.299-5.429&#10;&#9;&#9;c-16.604-4.143-37.266-9.293-64.837-9.293s-48.232,5.15-64.837,9.293c-10.075,2.509-18.773,4.685-27.299,5.429&#10;&#9;&#9;c-20.632,1.82-23.776-10.571-23.899-11.098l-0.379,0.086c0.124,1.782,0.829,5.963,4.345,12.762&#10;&#9;&#9;c3.601,2.129,8.758,3.849,16.008,3.849c1.387,0,2.858-0.062,4.399-0.193c8.953-0.79,17.844-3.005,28.143-5.576&#10;&#9;&#9;c17.161-4.283,36.616-9.13,63.52-9.13s46.359,4.848,63.52,9.13c10.301,2.572,19.191,4.786,28.143,5.576&#10;&#9;&#9;c1.541,0.132,3.012,0.193,4.399,0.193c7.248,0,12.407-1.719,16.008-3.849c3.516-6.8,4.221-10.982,4.345-12.762L372.032,465.328z" fill="#ffffffff" data-original-color="#ffffffff" stroke="none"/>
	<path style="" d="M288.392,509.962C277.786,511.31,266.971,512,256,512c-10.982,0-21.797-0.69-32.402-2.038&#10;&#9;&#9;c7.617-1.076,17.659-1.797,32.402-1.797C270.733,508.165,280.785,508.886,288.392,509.962z" fill="#ffffffff" data-original-color="#ffffffff" stroke="none"/>
</g><g>
	<path style="" d="M268.584,344.439c0,0,7.938-8.584,14.133-13.101c6.195-4.518,19.619-15.23,20.523-31.752&#10;&#9;&#9;c0,0,4.187,3.198,1.162,12.004s-14.972,18.199-21.169,22.717C277.038,338.824,268.584,344.439,268.584,344.439z" fill="#cf000fff" data-original-color="#cf000fff" stroke="none"/>
	<path style="" d="M302.207,328.24c0,0,17.941-19.619,20.265-30.332c0,0,3.356,5.421-1.29,12.262&#10;&#9;&#9;C316.535,317.011,302.207,328.24,302.207,328.24z" fill="#cf000fff" data-original-color="#cf000fff" stroke="none"/>
	<path style="" d="M287.235,342.696c0,0,1.194,1.839-0.774,5.679c0,0,29.3-14.07,35.592-35.367&#10;&#9;&#9;C322.053,313.01,301.175,335.855,287.235,342.696z" fill="#cf000fff" data-original-color="#cf000fff" stroke="none"/>
	<path style="" d="M286.849,350.829c0,0,0.581,4.582-1.29,6.453c0,0,25.815-10.713,29.428-26.718&#10;&#9;&#9;C314.987,330.564,299.497,345.278,286.849,350.829z" fill="#cf000fff" data-original-color="#cf000fff" stroke="none"/>
	<path style="" d="M285.557,359.347c0,0,0.484,4.549-2.324,6.453c0,0,20.288-6.008,25.686-19.49&#10;&#9;&#9;C308.92,346.311,296.658,355.475,285.557,359.347z" fill="#cf000fff" data-original-color="#cf000fff" stroke="none"/>
	<path style="" d="M282.589,367.995c0,0-0.193,3.55-4.389,6.067c0,0,20.135-3.227,25.428-15.489&#10;&#9;&#9;C303.628,358.572,294.076,365.543,282.589,367.995z" fill="#cf000fff" data-original-color="#cf000fff" stroke="none"/>
	<path style="" d="M281.814,375.998c0,0,6.711,1.29,10.326,0.646c0,0,4.001-4.13,4.517-6.453&#10;&#9;&#9;C296.658,370.19,287.191,375.345,281.814,375.998z" fill="#cf000fff" data-original-color="#cf000fff" stroke="none"/>
	<path style="" d="M270.585,383.484c3.958,6.119,18.2,9.681,23.75,26.331c5.549,16.65-1.807,24.008-1.807,24.008&#10;&#9;&#9;s12.391-10.127,9.81-25.815C298.981,387.614,277.596,387.928,270.585,383.484z" fill="#cf000fff" data-original-color="#cf000fff" stroke="none"/>
</g><g>
	<path style="" d="M243.091,404.007c0,0-0.13,10.197-3.227,14.586c0,0,5.55-0.646,6.583-3.227&#10;&#9;&#9;c0,0-6.453,20.91-13.94,28.396c0,0-3.985,1.533-5.518,0s-7.357-1.516-7.357,1.097c0,0-6.131-1.13-4.889,4.889&#10;&#9;&#9;c0,0,1.888-3.404,6.535-2.372c0,0-4.38,3.149,0,5.809c0,0-0.193-4.163,5.421-4.163c5.614,0,18.587-1.936,20.135,2.808&#10;&#9;&#9;c0,0,2.71-1.355,1.807-4.453s-11.488-2.065-11.488-2.065s10.455-14.07,12.65-17.554c2.194-3.485,4.001-9.681,4.001-9.681&#10;&#9;&#9;s0.388,1.678,5.292,2.582c0,0-3.614-6.841-3.614-13.424C255.483,407.233,246.706,406.072,243.091,404.007z" fill="#de0029ff" data-original-color="#de0029ff" stroke="none"/>
	<path style="" d="M317.248,283.859c0,0-1.231,13.917-7.039,23.86c-5.809,9.936-18.455,26.586-36.399,36.399&#10;&#9;&#9;c-17.928,9.804-6.134,21.994-21.537,25.417c0.309-0.232,5.305-4.011,6.181-8.511c0.906-4.647,2.454-12.91,9.936-20.391&#10;&#9;&#9;c7.489-7.489,31.365-25.17,32.016-36.662c0.627-11.23-6.513-12.344-6.838-12.383c0.147,0.179,2.447,3.114,2.447,7.613&#10;&#9;&#9;c0,4.647-10.455,22.459-22.203,30.59c-11.74,8.131-16.65,16.001-19.098,27.88c-2.454,11.872-6.971,9.03-6.459,2.71&#10;&#9;&#9;c0.519-6.327,6.715-16.264,12.778-23.497c6.072-7.225,5.809-13.552,1.68-16.519c0,0,13.684,0.906,12.004-6.39&#10;&#9;&#9;c-4.941,6.483-21.104-3.485-26.525-2.517c-5.421,0.968-4.066,4.259-4.066,4.259s-2.339-0.279-5.119-0.062&#10;&#9;&#9;c-0.193-1.038-0.535-2.06-1.076-3.035l-2.454-0.256c0,0,0.704,1.387,1.045,3.616c-3.067,0.597-6.002,2.006-6.529,5.158&#10;&#9;&#9;c0,0,3.276-0.945,6.66-1.494c-0.093,1.092-0.302,2.277-0.69,3.508c-1.835,0.116-3.26,0.116-3.26,0.116s0.875,0.681,2.788,1.185&#10;&#9;&#9;c-0.558,1.394-1.355,2.835-2.463,4.298c0,0-0.65-1.805-3.616-1.805c-2.966,0-4.778,2.71-7.876,2.71c0,0,1.68,2.192,4.778,2.192&#10;&#9;&#9;s4.391-2.579,5.677-1.285c0,0-7.094,3.485-7.094,7.094c0,3.616,5.421,4.136,5.421,4.136s-3.098-2.068-1.549-3.616&#10;&#9;&#9;c1.549-1.549,3.221-2.71,3.221-5.166c0,0,0.968-1.743,2.324-0.388c1.355,1.355,1.162,2.974,4.647,2.456&#10;&#9;&#9;c3.485-0.519,4.259-4.903,4.259-4.903s-1.417,1.549-3.485,1.549c-2.061,0-2.061-1.68-4.383-2.324c0,0,1.271-1.851,2.354-4.538&#10;&#9;&#9;c1.758,0.209,4.004,0.216,6.808-0.24c8.326-1.355,9.774,5.127,3.485,11.423c-6.288,6.297-52.082,33.689-11.23,62.924&#10;&#9;&#9;c6.39,4.647,25.557,7.357,25.557,7.357s1.743,9.874,0,14.328l4.647-3.291c0,0,2.517,19.361,7.745,27.493c0,0-12.778-3.485-12.778,0&#10;&#9;&#9;c0,0-6.195,1.355-4.941,4.933c0,0,2.23-2.029,5.716-2.029c0,0-2.517,3.098,0,5.615c0,0,0.906-4.197,9.549-4.197&#10;&#9;&#9;c8.651,0,14.397-1.092,18.2,2.71c0,0,3.81-2.254,0.774-5.289c-3.028-3.035-9.293-0.906-9.293-0.906s-8.387-13.166-6.839-26.842&#10;&#9;&#9;c0,0,1.549,2.192,7.357,1.417c0,0-10.587-10.068-8-20.779c0,0-17.944-13.297-16.65-24.395c0,0,4.647,11.486,12.646,17.293&#10;&#9;&#9;s14.328,14.714,13.166,24.395c0,0,4.554-11.137-1.355-19.454c-5.909-8.333-18.873-13.754-20.863-23.288&#10;&#9;&#9;c0,0,16.317,19.702,30.257,4.887c0,0-15.249,0.054-20.724-5.421c0,0,9.348-1.982,9.495-5.809h-9.007c0,0,11.516-2.997,11.516-6.97&#10;&#9;&#9;l-11.803,0.295c0,0,12.678-3.578,13.352-8.814l-13.018,2.873c1.433-0.457,13.018-4.259,13.018-10.71l-10.161,2.904&#10;&#9;&#9;c0,0,35.625-22.521,43.238-42.657C322.042,292.78,319.834,286.787,317.248,283.859z M238.393,322.946&#10;&#9;&#9;c0.348-1.139,0.627-2.362,0.751-3.625c2.354-0.202,4.36-0.023,4.786,1.046C244.534,321.877,241.468,322.605,238.393,322.946z&#10;&#9;&#9; M247.478,318.431v-2.71c3.361,0,6.327,1.549,6.327,1.549C252.449,318.624,247.478,318.431,247.478,318.431z M233.801,372.642&#10;&#9;&#9;c-1.936-17.293,9.681-22.715,9.681-22.715s-5.166,9.03-4.522,21.553c0.65,12.523,15.365,21.042,15.365,21.042&#10;&#9;&#9;S235.737,389.935,233.801,372.642z" fill="#de0029ff" data-original-color="#de0029ff" stroke="none"/>
</g><g>
	<path style="" d="M213.608,500.893c-3.26,0.69-6.52,1.442-9.759,2.257v-7.001c1.745-0.439,3.49-0.867,5.235-1.264&#10;&#9;&#9;c0.972-0.219,1.421-1.264,1.411-2.058c0.01-0.94-0.512-1.703-1.411-1.494c-1.745,0.397-3.49,0.825-5.235,1.264v-6.969&#10;&#9;&#9;c3.239-0.825,6.499-1.578,9.759-2.257c0.899-0.188,1.421-1.233,1.421-2.32c0-0.94-0.449-1.86-1.421-1.661&#10;&#9;&#9;c-4.106,0.867-8.192,1.839-12.257,2.915c-1.003,0.261-1.954,1.014-1.954,1.954v21.462c1.808,0.408,3.626,0.794,5.444,1.17&#10;&#9;&#9;c2.915-0.731,5.831-1.411,8.767-2.027c0.972-0.199,1.421-1.296,1.421-2.236C215.03,501.541,214.507,500.705,213.608,500.893z" fill="#ffffffff" data-original-color="#ffffffff" stroke="none"/>
	<path style="" d="M229.949,495.225c-0.01-5.305-11.187-1.88-11.175-10.061c0.001-5.196,4.444-7.804,8.454-8.398&#10;&#9;&#9;c2.055-0.326,6.632-0.429,6.634,1.882c0,0.802-0.559,2.471-1.817,2.634c-1.081,0.145-1.888-1.084-4.817-0.648&#10;&#9;&#9;c-2.512,0.38-3.934,1.639-3.936,3.31c-0.009,4.243,11.191,1.137,11.2,10.239c0,4.987-3.501,7.959-8.309,8.705&#10;&#9;&#9;c-4.565,0.708-8.032-0.911-8.033-2.935c0.002-0.976,0.904-2.612,1.978-2.807c1.424-0.252,2.361,2.25,5.915,1.686&#10;&#9;&#9;C228.132,498.506,229.95,497.316,229.949,495.225z" fill="#ffffffff" data-original-color="#ffffffff" stroke="none"/>
	<path style="" d="M253.957,474.414c0.982-0.038,1.44,0.995,1.441,1.97c0,1.08-0.528,2.073-1.441,2.108&#10;&#9;&#9;c-1.71,0.067-3.42,0.151-5.128,0.254c0,6.656,0,13.312,0,19.968c0,0.941-1.158,1.498-2.282,1.577&#10;&#9;&#9;c-1.161,0.08-2.281-0.319-2.281-1.259c0-6.656,0-13.312,0-19.968c-1.719,0.136-3.438,0.29-5.154,0.463&#10;&#9;&#9;c-0.91,0.092-1.433-0.792-1.435-1.907c-0.001-0.976,0.456-2.07,1.435-2.17C244.052,474.952,249.002,474.606,253.957,474.414z" fill="#ffffffff" data-original-color="#ffffffff" stroke="none"/>
	<path style="" d="M261.095,479.678c-0.375,0.375-0.75,0.751-1.125,1.128c-0.281,0.248-0.6,0.323-0.843,0.327&#10;&#9;&#9;c-0.88,0.015-1.479-0.876-1.477-1.782c0-0.627,0.316-1.297,0.879-1.657c1.382-1.073,2.766-2.135,4.149-3.184&#10;&#9;&#9;c0.247-0.21,0.563-0.349,0.95-0.349c0.95,0,2.038,0.568,2.039,1.474c0,7.55,0,15.101,0,22.651c0,0.94-1.16,1.417-2.285,1.418&#10;&#9;&#9;c-1.16,0-2.285-0.476-2.285-1.418C261.095,492.084,261.095,485.881,261.095,479.678z" fill="#ffffffff" data-original-color="#ffffffff" stroke="none"/>
	<path style="" d="M286.211,481.476c0,2.928-1.369,4.537-3.366,5.072c2.524,1.111,4.171,3.336,4.171,6.924&#10;&#9;&#9;c0,0.139,0,0.279,0,0.418c0.001,5.196-3.575,6.811-8.207,6.515c-4.635-0.297-8.257-2.368-8.256-7.564c0-0.139,0-0.279,0-0.418&#10;&#9;&#9;c0-3.588,1.686-5.601,4.182-6.392c-2.002-0.791-3.376-2.573-3.374-5.501c0.001-4.422,3.127-6.082,7.449-5.808&#10;&#9;&#9;C283.094,474.996,286.212,477.053,286.211,481.476z M282.46,492.267c-0.001-2.647-1.369-3.947-3.65-4.094&#10;&#9;&#9;c-2.317-0.146-3.687,0.98-3.689,3.627c0,0.232,0,0.465,0,0.697c0,2.756,1.407,4.07,3.689,4.214c2.318,0.148,3.65-1.027,3.65-3.747&#10;&#9;&#9;C282.46,492.732,282.46,492.5,282.46,492.267z M275.789,481.275c0.001,2.162,1.089,3.085,3.021,3.206&#10;&#9;&#9;c1.895,0.121,3.018-0.658,3.019-2.82c0-2.16-1.125-3.122-3.019-3.243C276.877,478.294,275.79,479.114,275.789,481.275z" fill="#ffffffff" data-original-color="#ffffffff" stroke="none"/>
	<path style="" d="M291.079,484.286c0-0.163,0-0.325,0-0.488c-0.001-5.817,3.604-7.585,8.174-6.899&#10;&#9;&#9;c4.606,0.688,8.211,3.536,8.212,9.353c0,3.241,0,6.482,0,9.723c0.001,5.823-3.681,7.281-8.421,6.577&#10;&#9;&#9;c-5.546-0.811-7.964-4.489-7.964-7.427c0.001-1.427,0.698-1.805,2.133-1.627c1.26,0.155,2.375,0.656,2.377,2.015&#10;&#9;&#9;c0,1.637,1.644,2.796,3.595,3.088c2.337,0.35,3.762-0.661,3.763-3.416c0-1.266,0-2.532,0-3.798&#10;&#9;&#9;c-1.147,1.168-2.823,1.321-4.634,1.056C294.369,491.866,291.081,489.795,291.079,484.286z M302.946,485.182&#10;&#9;&#9;c0-2.751-1.39-4.244-3.693-4.589c-2.266-0.338-3.632,0.742-3.63,3.493c0,0.15,0,0.302,0,0.453c0.001,2.893,1.363,4.149,3.664,4.493&#10;&#9;&#9;c2.233,0.334,3.657-0.433,3.658-3.082C302.946,485.694,302.946,485.438,302.946,485.182z" fill="#ffffffff" data-original-color="#ffffffff" stroke="none"/>
	<path style="" d="M327.293,489.879c0-4.42-3.688-8.098-7.69-9.038c-3.824-0.92-7.419,0.794-7.419,4.765&#10;&#9;&#9;c0,1.881,0.857,2.612,2.038,2.863c1.484,0.324,2.351-0.313,2.351-1.149c0-2.163,1.379-2.759,3.062-2.361&#10;&#9;&#9;c2.278,0.543,3.197,2.466,3.208,3.887c0.01,4.838-11.097,5.266-11.107,10.919v3.385c0,0.867,1.17,1.661,1.964,1.839&#10;&#9;&#9;c0.355,0.073,0.711,0.146,1.066,0.23c2.738-0.637,5.454-1.327,8.161-2.058c-2.173-0.554-4.347-1.076-6.531-1.557v-0.836&#10;&#9;&#9;C316.406,497.068,327.314,497.33,327.293,489.879z" fill="#ffffffff" data-original-color="#ffffffff" stroke="none"/>
	<circle style="" cx="254.966" cy="489.712" r="2.452" fill="#ffffffff" data-original-color="#ffffffff" stroke="none"/>
</g><path style="" d="M383.207,254.376H128.794c-3.244-29.383-2.881-52.546-2.363-63.83&#10;&#9;c18.067,7.326,36.174,11.028,53.925,11.028c39.373,0,66.192-17.928,75.64-25.387c9.456,7.457,36.267,25.387,75.64,25.387h0.007&#10;&#9;c17.751,0,35.857-3.709,53.925-11.028C386.089,201.829,386.452,224.994,383.207,254.376z" fill="#de0029ff" data-original-color="#de0029ff" stroke="none"/><g>
	<path style="" d="M137.712,245.081c-1.46,0-2.869-0.705-2.869-2.064v-32.721c0-1.41,1.611-2.014,3.272-2.014&#10;&#9;&#9;c1.611,0,3.273,0.604,3.273,2.014v29.047h12.283c1.309,0,1.963,1.41,1.963,2.869c0,1.41-0.654,2.869-1.963,2.869h-15.958V245.081z" fill="#ffffffff" data-original-color="#ffffffff" stroke="none"/>
	<path style="" d="M161.724,210.296c0-1.41,1.611-2.014,3.272-2.014c1.611,0,3.273,0.604,3.273,2.014v32.722&#10;&#9;&#9;c0,1.359-1.661,2.064-3.273,2.064c-1.66,0-3.272-0.705-3.272-2.064V210.296z" fill="#ffffffff" data-original-color="#ffffffff" stroke="none"/>
	<path style="" d="M174.358,211.504c-0.05-0.202-0.1-0.402-0.1-0.504c0-1.611,2.366-2.718,4.127-2.718&#10;&#9;&#9;c1.108,0,1.963,0.352,2.215,1.309l7.702,27.285l7.652-27.285c0.252-0.957,1.108-1.309,2.215-1.309c1.762,0,4.127,1.158,4.127,2.718&#10;&#9;&#9;c0,0.152-0.05,0.302-0.1,0.504l-9.665,31.665c-0.453,1.51-2.315,2.215-4.229,2.215c-1.913,0-3.725-0.705-4.229-2.215&#10;&#9;&#9;L174.358,211.504z" fill="#ffffffff" data-original-color="#ffffffff" stroke="none"/>
	<path style="" d="M214.831,224.089h7.652c1.309,0,2.064,1.258,2.064,2.617c0,1.158-0.654,2.517-2.064,2.517h-7.652&#10;&#9;&#9;v10.119h14.246c1.309,0,2.064,1.359,2.064,2.919c0,1.359-0.654,2.819-2.064,2.819h-17.921c-1.46,0-2.869-0.705-2.869-2.064v-32.671&#10;&#9;&#9;c0-1.359,1.41-2.064,2.869-2.064h17.921c1.41,0,2.064,1.46,2.064,2.819c0,1.56-0.754,2.919-2.064,2.919h-14.246V224.089z" fill="#ffffffff" data-original-color="#ffffffff" stroke="none"/>
	<path style="" d="M237.483,210.296c0-1.057,0.856-2.014,2.114-2.014h9.968c6.594,0,11.931,2.517,11.931,10.521&#10;&#9;&#9;c0,5.789-2.819,8.91-6.595,10.069l6.595,12.233c0.202,0.252,0.252,0.604,0.252,0.806c0,1.661-2.165,3.423-4.078,3.423&#10;&#9;&#9;c-0.906,0-1.762-0.554-2.265-1.561l-7.148-13.894h-4.229v13.14c0,1.359-1.611,2.064-3.273,2.064c-1.611,0-3.272-0.705-3.272-2.064&#10;&#9;&#9;L237.483,210.296L237.483,210.296z M244.028,214.021v10.723h5.538c3.272,0,5.386-1.359,5.386-5.336s-2.115-5.386-5.386-5.386&#10;&#9;&#9;H244.028z" fill="#ffffffff" data-original-color="#ffffffff" stroke="none"/>
	<path style="" d="M268.693,210.296c0-1.057,0.956-2.014,2.466-2.014h10.119c6.394,0,11.428,3.071,11.428,11.327v0.302&#10;&#9;&#9;c0,8.256-5.185,11.428-11.83,11.428h-5.638v11.679c0,1.359-1.661,2.064-3.273,2.064c-1.66,0-3.272-0.705-3.272-2.064V210.296z&#10;&#9;&#9; M275.238,214.021v12.182h5.638c3.272,0,5.286-1.862,5.286-5.789v-0.604c0-3.927-2.014-5.789-5.286-5.789h-5.638V214.021z" fill="#ffffffff" data-original-color="#ffffffff" stroke="none"/>
	<path style="" d="M298.845,233.855V219.81c0-8.407,5.136-11.528,11.78-11.528c6.645,0,11.83,3.121,11.83,11.528&#10;&#9;&#9;v14.046c0,8.407-5.185,11.528-11.83,11.528C303.981,245.384,298.845,242.262,298.845,233.855z M315.911,219.81&#10;&#9;&#9;c0-3.977-2.014-5.789-5.286-5.789c-3.323,0-5.236,1.812-5.236,5.789v14.046c0,3.977,1.913,5.79,5.236,5.79&#10;&#9;&#9;c3.272,0,5.286-1.813,5.286-5.79V219.81z" fill="#ffffffff" data-original-color="#ffffffff" stroke="none"/>
	<path style="" d="M330.156,233.855V219.81c0-8.407,5.136-11.528,11.78-11.528s11.83,3.121,11.83,11.528v14.046&#10;&#9;&#9;c0,8.407-5.185,11.528-11.83,11.528C335.291,245.384,330.156,242.262,330.156,233.855z M347.222,219.81&#10;&#9;&#9;c0-3.977-2.014-5.789-5.286-5.789c-3.323,0-5.236,1.812-5.236,5.789v14.046c0,3.977,1.913,5.79,5.236,5.79&#10;&#9;&#9;c3.272,0,5.286-1.813,5.286-5.79V219.81z" fill="#ffffffff" data-original-color="#ffffffff" stroke="none"/>
	<path style="" d="M364.739,245.081c-1.461,0-2.869-0.705-2.869-2.064v-32.721c0-1.41,1.611-2.014,3.272-2.014&#10;&#9;&#9;c1.611,0,3.273,0.604,3.273,2.014v29.047h12.283c1.309,0,1.963,1.41,1.963,2.869c0,1.41-0.654,2.869-1.963,2.869h-15.958V245.081z" fill="#ffffffff" data-original-color="#ffffffff" stroke="none"/>
</g><g>
	<path style="" d="M144.236,261.692c0-0.94,0.976-1.428,1.986-1.428h12.162c0.976,0,1.395,1.01,1.395,1.952&#10;&#9;&#9;c0,1.08-0.489,2.021-1.395,2.021h-9.618v6.971h5.332c0.906,0,1.394,0.871,1.394,1.812c0,0.801-0.418,1.743-1.394,1.743h-5.332&#10;&#9;&#9;v9.548c0,0.94-1.15,1.428-2.265,1.428c-1.15,0-2.265-0.488-2.265-1.428v-22.618H144.236z" fill="#de0029ff" data-original-color="#de0029ff" stroke="none"/>
	<path style="" d="M161.451,277.967v-9.723c0-5.82,3.555-7.981,8.154-7.981c4.601,0,8.19,2.161,8.19,7.981v9.723&#10;&#9;&#9;c0,5.82-3.589,7.981-8.19,7.981C165.005,285.947,161.451,283.786,161.451,277.967z M173.265,268.243&#10;&#9;&#9;c0-2.753-1.395-4.007-3.659-4.007c-2.3,0-3.624,1.255-3.624,4.007v9.723c0,2.753,1.324,4.007,3.624,4.007&#10;&#9;&#9;c2.265,0,3.659-1.255,3.659-4.007V268.243z" fill="#de0029ff" data-original-color="#de0029ff" stroke="none"/>
	<path style="" d="M181.455,277.967v-9.723c0-5.82,3.555-7.981,8.154-7.981c4.601,0,8.19,2.161,8.19,7.981v9.723&#10;&#9;&#9;c0,5.82-3.589,7.981-8.19,7.981C185.01,285.947,181.455,283.786,181.455,277.967z M193.27,268.243c0-2.753-1.395-4.007-3.659-4.007&#10;&#9;&#9;c-2.3,0-3.624,1.255-3.624,4.007v9.723c0,2.753,1.324,4.007,3.624,4.007c2.265,0,3.659-1.255,3.659-4.007V268.243z" fill="#de0029ff" data-original-color="#de0029ff" stroke="none"/>
	<path style="" d="M215.816,260.263c0.976,0,1.428,1.045,1.428,2.022c0,1.08-0.522,2.055-1.428,2.055h-5.088v19.968&#10;&#9;&#9;c0,0.94-1.15,1.428-2.265,1.428c-1.15,0-2.265-0.488-2.265-1.428V264.34h-5.123c-0.906,0-1.428-0.94-1.428-2.055&#10;&#9;&#9;c0-0.976,0.453-2.022,1.428-2.022L215.816,260.263L215.816,260.263z" fill="#de0029ff" data-original-color="#de0029ff" stroke="none"/>
	<path style="" d="M219.79,261.692c0-0.94,0.976-1.428,1.986-1.428h6.726c3.624,0,7.005,1.185,7.005,6.134&#10;&#9;&#9;c0,2.858-1.116,4.74-2.962,5.541c2.126,0.837,3.589,2.195,3.589,5.68v0.732c0,5.437-3.031,7.387-6.969,7.387h-7.388&#10;&#9;&#9;c-1.219,0-1.986-0.661-1.986-1.394L219.79,261.692L219.79,261.692z M224.285,270.16h3.904c1.882,0,2.788-1.219,2.788-2.997&#10;&#9;&#9;c0-1.812-1.046-2.928-2.823-2.928h-3.868L224.285,270.16L224.285,270.16z M228.223,281.765c2.125,0,3.38-1.149,3.38-3.798v-0.557&#10;&#9;&#9;c0-2.719-1.255-3.695-3.38-3.695h-3.938v8.05H228.223z" fill="#de0029ff" data-original-color="#de0029ff" stroke="none"/>
	<path style="" d="M237.668,283.856c0-0.07,0.034-0.209,0.07-0.349l6.726-21.92c0.313-1.045,1.603-1.533,2.892-1.533&#10;&#9;&#9;c1.324,0,2.613,0.488,2.928,1.533l6.726,21.92c0.034,0.14,0.07,0.245,0.07,0.349c0,1.08-1.637,1.882-2.858,1.882&#10;&#9;&#9;c-0.767,0-1.359-0.243-1.534-0.906l-1.324-4.634h-7.98l-1.324,4.634c-0.174,0.662-0.767,0.906-1.534,0.906&#10;&#9;&#9;C239.306,285.738,237.668,284.971,237.668,283.856z M250.388,276.642l-3.032-10.699l-3.031,10.699H250.388z" fill="#de0029ff" data-original-color="#de0029ff" stroke="none"/>
	<path style="" d="M261.54,285.738c-1.01,0-1.986-0.488-1.986-1.428v-22.651c0-0.976,1.115-1.394,2.265-1.394&#10;&#9;&#9;c1.115,0,2.265,0.418,2.265,1.394v20.108h8.503c0.906,0,1.359,0.976,1.359,1.986c0,0.976-0.453,1.986-1.359,1.986H261.54V285.738z" fill="#de0029ff" data-original-color="#de0029ff" stroke="none"/>
	<path style="" d="M278.477,285.738c-1.01,0-1.986-0.488-1.986-1.428v-22.651c0-0.976,1.115-1.394,2.265-1.394&#10;&#9;&#9;c1.115,0,2.265,0.418,2.265,1.394v20.108h8.503c0.906,0,1.359,0.976,1.359,1.986c0,0.976-0.453,1.986-1.359,1.986h-11.048V285.738z&#10;&#9;&#9;" fill="#de0029ff" data-original-color="#de0029ff" stroke="none"/>
	<path style="" d="M308.413,264.236c-2.335,0-3.659,1.289-3.659,4.007v9.723c0,2.718,1.324,4.007,3.729,4.007&#10;&#9;&#9;c3.171,0,3.449-2.265,3.555-3.729c0.07-1.08,1.045-1.428,2.23-1.428c1.567,0,2.3,0.453,2.3,2.23c0,4.217-3.45,6.901-8.329,6.901&#10;&#9;&#9;c-4.391,0-8.015-2.161-8.015-7.981v-9.723c0-5.82,3.659-7.981,8.05-7.981c4.844,0,8.294,2.579,8.294,6.622&#10;&#9;&#9;c0,1.812-0.732,2.23-2.265,2.23c-1.289,0-2.23-0.383-2.265-1.428C311.967,266.606,311.723,264.236,308.413,264.236z" fill="#de0029ff" data-original-color="#de0029ff" stroke="none"/>
	<path style="" d="M321.691,285.738c-1.01,0-1.986-0.488-1.986-1.428v-22.651c0-0.976,1.115-1.394,2.265-1.394&#10;&#9;&#9;c1.115,0,2.265,0.418,2.265,1.394v20.108h8.503c0.906,0,1.359,0.976,1.359,1.986c0,0.976-0.453,1.986-1.359,1.986h-11.048V285.738z&#10;&#9;&#9;" fill="#de0029ff" data-original-color="#de0029ff" stroke="none"/>
	<path style="" d="M348.246,261.657c0-0.976,1.115-1.394,2.265-1.394c1.115,0,2.265,0.418,2.265,1.394v16.31&#10;&#9;&#9;c0,5.82-3.694,7.981-8.363,7.981c-4.704,0-8.364-2.161-8.364-7.981v-16.31c0-0.976,1.116-1.394,2.266-1.394&#10;&#9;&#9;c1.115,0,2.265,0.418,2.265,1.394v16.31c0,2.718,1.428,4.007,3.833,4.007c2.405,0,3.834-1.289,3.834-4.007v-16.31H348.246z" fill="#de0029ff" data-original-color="#de0029ff" stroke="none"/>
	<path style="" d="M356.924,261.692c0-0.94,0.976-1.428,1.986-1.428h6.726c3.624,0,7.005,1.185,7.005,6.134&#10;&#9;&#9;c0,2.858-1.116,4.74-2.962,5.541c2.126,0.837,3.589,2.195,3.589,5.68v0.732c0,5.437-3.031,7.387-6.969,7.387h-7.388&#10;&#9;&#9;c-1.219,0-1.986-0.661-1.986-1.394V261.692z M361.42,270.16h3.904c1.882,0,2.788-1.219,2.788-2.997&#10;&#9;&#9;c0-1.812-1.046-2.928-2.823-2.928h-3.868V270.16z M365.358,281.765c2.125,0,3.38-1.149,3.38-3.798v-0.557&#10;&#9;&#9;c0-2.719-1.255-3.695-3.38-3.695h-3.938v8.05H365.358z" fill="#de0029ff" data-original-color="#de0029ff" stroke="none"/>
</g><g>
	<path style="" d="M99.272,139.46c0-0.13-0.032-0.228-0.097-0.325l-6.734-12.558c-0.097-0.228-0.13-0.423-0.13-0.553&#10;&#9;&#9;c0-0.683,0.944-1.139,1.627-1.139c0.456,0,0.716,0.228,0.976,0.716l5.725,11.158l5.694-11.158c0.26-0.488,0.553-0.716,0.976-0.716&#10;&#9;&#9;c0.716,0,1.627,0.456,1.627,1.139c0,0.131-0.032,0.325-0.13,0.553l-6.734,12.558c-0.065,0.097-0.065,0.195-0.065,0.325v8.231&#10;&#9;&#9;c0,0.65-0.683,0.976-1.367,0.976c-0.683,0-1.366-0.326-1.366-0.976v-8.231H99.272z" fill="#ffffffff" data-original-color="#ffffffff" stroke="none"/>
	<path style="" d="M109.776,141.771v-9.793c0-5.172,3.057-7.092,6.995-7.092c3.936,0,7.028,1.919,7.028,7.092v9.793&#10;&#9;&#9;c0,5.172-3.091,7.092-7.028,7.092C112.834,148.862,109.776,146.943,109.776,141.771z M121.065,131.978&#10;&#9;&#9;c0-3.156-1.626-4.619-4.295-4.619c-2.668,0-4.262,1.464-4.262,4.619v9.793c0,3.156,1.595,4.619,4.262,4.619&#10;&#9;&#9;c2.669,0,4.295-1.464,4.295-4.619V131.978z" fill="#ffffffff" data-original-color="#ffffffff" stroke="none"/>
	<path style="" d="M138.174,125.83c0-0.651,0.65-0.944,1.366-0.944c0.651,0,1.367,0.293,1.367,0.944v15.941&#10;&#9;&#9;c0,5.172-3.123,7.092-7.125,7.092c-4.001,0-7.092-1.919-7.092-7.092V125.83c0-0.651,0.683-0.944,1.367-0.944&#10;&#9;&#9;c0.683,0,1.366,0.293,1.366,0.944v15.941c0,3.156,1.627,4.619,4.359,4.619c2.733,0,4.393-1.464,4.393-4.619V125.83z" fill="#ffffffff" data-original-color="#ffffffff" stroke="none"/>
	<path style="" d="M146.206,126.252c0,0.456-0.39,1.561-1.464,3.97c-0.13,0.293-0.423,0.423-0.65,0.423&#10;&#9;&#9;c-0.456,0-0.976-0.293-0.976-0.781c0-0.097,0-0.228,0.065-0.325l0.683-1.692c-0.618-0.26-1.041-0.879-1.041-1.595&#10;&#9;&#9;c0-0.911,0.716-1.692,1.691-1.692C145.426,124.56,146.206,125.342,146.206,126.252z" fill="#ffffffff" data-original-color="#ffffffff" stroke="none"/>
	<path style="" d="M149.231,148.667c-0.619,0-1.236-0.326-1.236-0.976v-21.862c0-0.651,0.683-0.944,1.367-0.944&#10;&#9;&#9;s1.366,0.293,1.366,0.944v20.365h8.882c0.585,0,0.878,0.619,0.878,1.236s-0.293,1.236-0.878,1.236h-10.378V148.667z" fill="#ffffffff" data-original-color="#ffffffff" stroke="none"/>
	<path style="" d="M163.055,148.667c-0.619,0-1.236-0.326-1.236-0.976v-21.862c0-0.651,0.683-0.944,1.367-0.944&#10;&#9;&#9;c0.683,0,1.366,0.293,1.366,0.944v20.365h8.882c0.585,0,0.878,0.619,0.878,1.236s-0.293,1.236-0.878,1.236h-10.378V148.667z" fill="#ffffffff" data-original-color="#ffffffff" stroke="none"/>
	<path style="" d="M191.939,147.431l-8.458-16.364v16.624c0,0.65-0.683,0.976-1.366,0.976&#10;&#9;&#9;c-0.683,0-1.367-0.326-1.367-0.976v-21.862c0-0.683,0.65-0.944,1.367-0.944c0.976,0,1.496,0.585,2.082,1.724l8.101,15.844v-16.624&#10;&#9;&#9;c0-0.651,0.683-0.944,1.366-0.944c0.683,0,1.367,0.293,1.367,0.944v21.862c0,0.65-0.683,0.976-1.367,0.976&#10;&#9;&#9;C192.915,148.667,192.33,148.147,191.939,147.431z" fill="#ffffffff" data-original-color="#ffffffff" stroke="none"/>
	<path style="" d="M200.98,135.621h5.075c0.585,0,0.944,0.553,0.944,1.171c0,0.52-0.293,1.107-0.944,1.107h-5.075&#10;&#9;&#9;v8.295h10.085c0.586,0,0.944,0.586,0.944,1.27c0,0.585-0.293,1.204-0.944,1.204h-11.582c-0.619,0-1.236-0.326-1.236-0.976v-21.83&#10;&#9;&#9;c0-0.651,0.618-0.976,1.236-0.976h11.582c0.651,0,0.944,0.619,0.944,1.204c0,0.683-0.357,1.269-0.944,1.269H200.98V135.621z" fill="#ffffffff" data-original-color="#ffffffff" stroke="none"/>
	<path style="" d="M211.875,126.285c-0.032-0.097-0.065-0.163-0.065-0.26c0-0.683,0.944-1.139,1.659-1.139&#10;&#9;&#9;c0.488,0,0.878,0.195,1.009,0.619l5.725,19.324l5.694-19.324c0.163-0.423,0.52-0.619,0.976-0.619c0.781,0,1.691,0.52,1.691,1.171&#10;&#9;&#9;c0,0.065-0.032,0.13-0.032,0.228l-6.604,21.635c-0.228,0.619-0.944,0.944-1.724,0.944c-0.748,0-1.464-0.293-1.658-0.944&#10;&#9;&#9;L211.875,126.285z" fill="#ffffffff" data-original-color="#ffffffff" stroke="none"/>
	<path style="" d="M232.758,135.621h5.075c0.585,0,0.944,0.553,0.944,1.171c0,0.52-0.293,1.107-0.944,1.107h-5.075&#10;&#9;&#9;v8.295h10.085c0.586,0,0.944,0.586,0.944,1.27c0,0.585-0.293,1.204-0.944,1.204h-11.582c-0.619,0-1.236-0.326-1.236-0.976v-21.83&#10;&#9;&#9;c0-0.651,0.618-0.976,1.236-0.976h11.582c0.651,0,0.944,0.619,0.944,1.204c0,0.683-0.357,1.269-0.944,1.269h-10.085&#10;&#9;&#9;L232.758,135.621L232.758,135.621z" fill="#ffffffff" data-original-color="#ffffffff" stroke="none"/>
	<path style="" d="M245.345,125.83c0-0.488,0.39-0.911,0.976-0.944h5.953c3.936,0,7.222,1.561,7.222,6.507&#10;&#9;&#9;c0,3.97-2.115,5.791-4.847,6.344l4.815,9.142c0.097,0.163,0.13,0.325,0.13,0.456c0,0.716-0.845,1.399-1.627,1.399&#10;&#9;&#9;c-0.553,0-0.944-0.52-1.236-1.073l-4.913-9.532h-3.742v9.565c0,0.65-0.683,0.976-1.366,0.976c-0.683,0-1.367-0.326-1.367-0.976&#10;&#9;&#9;V125.83H245.345z M248.078,127.358v8.491h4.196c2.701,0,4.49-1.171,4.49-4.262c0-3.058-1.79-4.229-4.49-4.229&#10;&#9;&#9;C252.274,127.358,248.078,127.358,248.078,127.358z" fill="#ffffffff" data-original-color="#ffffffff" stroke="none"/>
	<path style="" d="M283.827,147.919c-0.195,0.619-0.944,0.944-1.691,0.944c-0.749,0-1.53-0.293-1.692-0.944&#10;&#9;&#9;l-2.798-10.735l-2.83,10.735c-0.163,0.619-0.91,0.944-1.659,0.944c-0.781,0-1.496-0.293-1.692-0.944l-6.442-21.635&#10;&#9;&#9;c-0.032-0.097-0.065-0.163-0.065-0.293c0-0.651,0.911-1.107,1.659-1.107c0.456,0,0.878,0.195,1.009,0.619l5.497,19.324&#10;&#9;&#9;l3.091-11.907c0.163-0.619,0.781-0.846,1.43-0.846c0.619,0,1.204,0.228,1.367,0.846l3.123,11.907l5.465-19.324&#10;&#9;&#9;c0.13-0.423,0.553-0.619,1.042-0.619c0.748,0,1.626,0.456,1.626,1.107c0,0.131,0,0.195-0.032,0.293L283.827,147.919z" fill="#ffffffff" data-original-color="#ffffffff" stroke="none"/>
	<path style="" d="M288.8,147.529c0-0.097,0.032-0.163,0.065-0.26l6.636-21.634c0.195-0.651,0.944-0.944,1.692-0.944&#10;&#9;&#9;c0.749,0,1.496,0.325,1.692,0.944l6.636,21.634c0,0.098,0.032,0.163,0.032,0.228c0,0.65-0.91,1.171-1.692,1.171&#10;&#9;&#9;c-0.456,0-0.845-0.195-0.976-0.619l-1.431-4.847h-8.556l-1.43,4.847c-0.131,0.423-0.521,0.619-1.009,0.619&#10;&#9;&#9;C289.744,148.667,288.8,148.211,288.8,147.529z M300.805,140.957l-3.611-12.233l-3.676,12.233H300.805z" fill="#ffffffff" data-original-color="#ffffffff" stroke="none"/>
	<path style="" d="M308.285,148.667c-0.619,0-1.236-0.326-1.236-0.976v-21.862c0-0.651,0.683-0.944,1.367-0.944&#10;&#9;&#9;c0.683,0,1.366,0.293,1.366,0.944v20.365h8.882c0.585,0,0.878,0.619,0.878,1.236s-0.293,1.236-0.878,1.236h-10.378V148.667z" fill="#ffffffff" data-original-color="#ffffffff" stroke="none"/>
	<path style="" d="M320.872,125.83c0-0.651,0.683-0.944,1.367-0.944c0.683,0,1.366,0.293,1.366,0.944v10.769&#10;&#9;&#9;l8.72-11.321c0.195-0.26,0.52-0.391,0.813-0.391c0.683,0,1.562,0.716,1.562,1.399c0,0.163-0.065,0.391-0.228,0.585l-6.637,8.296&#10;&#9;&#9;l7.743,11.711c0.097,0.163,0.163,0.325,0.163,0.488c0,0.716-0.813,1.367-1.595,1.367c-0.39,0-0.748-0.163-1.008-0.553&#10;&#9;&#9;l-7.124-10.703l-2.408,3.026v7.19c0,0.65-0.683,0.976-1.366,0.976c-0.683,0-1.367-0.326-1.367-0.976L320.872,125.83L320.872,125.83&#10;&#9;&#9;z" fill="#ffffffff" data-original-color="#ffffffff" stroke="none"/>
	<path style="" d="M340.029,147.529c0-0.097,0.032-0.163,0.065-0.26l6.636-21.634c0.195-0.651,0.944-0.944,1.692-0.944&#10;&#9;&#9;c0.749,0,1.496,0.325,1.692,0.944l6.636,21.634c0,0.098,0.032,0.163,0.032,0.228c0,0.65-0.91,1.171-1.692,1.171&#10;&#9;&#9;c-0.456,0-0.845-0.195-0.976-0.619l-1.431-4.847h-8.556l-1.43,4.847c-0.131,0.423-0.521,0.619-1.009,0.619&#10;&#9;&#9;C340.973,148.667,340.029,148.211,340.029,147.529z M352.033,140.957l-3.611-12.233l-3.676,12.233H352.033z" fill="#ffffffff" data-original-color="#ffffffff" stroke="none"/>
	<path style="" d="M359.514,148.667c-0.619,0-1.236-0.326-1.236-0.976v-21.862c0-0.651,0.683-0.944,1.367-0.944&#10;&#9;&#9;s1.366,0.293,1.366,0.944v20.365h8.882c0.585,0,0.878,0.619,0.878,1.236s-0.293,1.236-0.878,1.236h-10.378V148.667z" fill="#ffffffff" data-original-color="#ffffffff" stroke="none"/>
	<path style="" d="M371.417,141.771v-9.793c0-5.172,3.057-7.092,6.995-7.092c3.937,0,7.028,1.919,7.028,7.092v9.793&#10;&#9;&#9;c0,5.172-3.091,7.092-7.028,7.092C374.475,148.862,371.417,146.943,371.417,141.771z M382.706,131.978&#10;&#9;&#9;c0-3.156-1.626-4.619-4.295-4.619c-2.668,0-4.262,1.464-4.262,4.619v9.793c0,3.156,1.595,4.619,4.262,4.619&#10;&#9;&#9;c2.669,0,4.295-1.464,4.295-4.619V131.978z" fill="#ffffffff" data-original-color="#ffffffff" stroke="none"/>
	<path style="" d="M399.62,147.431l-8.458-16.364v16.624c0,0.65-0.683,0.976-1.366,0.976&#10;&#9;&#9;c-0.683,0-1.367-0.326-1.367-0.976v-21.862c0-0.683,0.65-0.944,1.367-0.944c0.976,0,1.496,0.585,2.082,1.724l8.101,15.844v-16.624&#10;&#9;&#9;c0-0.651,0.683-0.944,1.366-0.944c0.683,0,1.367,0.293,1.367,0.944v21.862c0,0.65-0.683,0.976-1.367,0.976&#10;&#9;&#9;C400.596,148.667,400.011,148.147,399.62,147.431z" fill="#ffffffff" data-original-color="#ffffffff" stroke="none"/>
	<path style="" d="M408.661,135.621h5.075c0.585,0,0.944,0.553,0.944,1.171c0,0.52-0.293,1.107-0.944,1.107h-5.075&#10;&#9;&#9;v8.295h10.085c0.586,0,0.944,0.586,0.944,1.27c0,0.585-0.293,1.204-0.944,1.204h-11.582c-0.619,0-1.236-0.326-1.236-0.976v-21.83&#10;&#9;&#9;c0-0.651,0.618-0.976,1.236-0.976h11.582c0.651,0,0.944,0.619,0.944,1.204c0,0.683-0.357,1.269-0.944,1.269h-10.085&#10;&#9;&#9;L408.661,135.621L408.661,135.621z" fill="#ffffffff" data-original-color="#ffffffff" stroke="none"/>
</g><g>
</g><g>
</g><g>
</g><g>
</g><g>
</g><g>
</g><g>
</g><g>
</g><g>
</g><g>
</g><g>
</g><g>
</g><g>
</g><g>
</g><g>
</g></g></svg>