<svg id="Capa_1" enable-background="new 0 0 512 512" height="512" viewBox="0 0 512 512" width="512" xmlns="http://www.w3.org/2000/svg"><g><g><g clip-rule="evenodd" fill-rule="evenodd"><path d="m7.5 284.898c0 15.66 2.432 30.78 6.937 45h483.125c4.505-14.22 6.937-29.34 6.937-45v-30h-496.999zm476.769 74.999h-456.539c26.034 44.75 74.541 75.001 129.77 75.001h197c55.228 0 103.735-30.251 129.769-75.001z" fill="#b6efbb"/><path d="m497.563 329.898h-483.125c3.34 10.543 7.82 20.592 13.293 30h456.538c5.473-9.409 9.953-19.457 13.294-30z" fill="#e08ea2"/><path d="m157.5 434.898h197v30h-197z" fill="#71e4bf"/><path d="m128.126 254.899h127.596c0-17.63-16.253-32.808-39.61-39.627-7.563-7.11-17.199-11.373-27.696-11.373-10.456 0-20.106 4.237-27.696 11.373-8.067 2.355-15.285 5.707-21.279 9.813.038.702.058 1.408.058 2.118 0 10.496-4.263 20.133-11.373 27.696z" fill="#ffc464"/><path d="m128.126 254.899h127.596c0-8.236-3.548-15.936-9.709-22.5h-106.866c-1.156 8.47-5.101 16.204-11.021 22.5z" fill="#ff8d4c"/><path d="m128.126 254.899c7.648-8.135 11.931-18.597 11.315-29.814-.532-9.673-4.686-18.527-11.315-25.578-5.228-17.908-18.598-39.61-39.627-39.61-17.63 0-32.808 16.253-39.627 39.61-7.11 7.563-11.373 17.199-11.373 27.696s4.263 20.133 11.373 27.696z" fill="#ffc464"/><path d="m128.126 254.899c5.956-6.335 9.871-14.083 11.021-22.5h-101.294c1.156 8.47 5.101 16.204 11.021 22.5z" fill="#ff8d4c"/><path d="m139.441 225.085c5.994-4.106 13.212-7.458 21.279-9.813 6.539-6.148 14.628-10.167 23.483-11.142-2.498-12.555-.422-24.123 6.899-32.211 3.029-3.347 6.741-5.859 10.955-7.564-1.261-8.227-5.157-15.736-10.931-21.877-3.492-11.962-9.177-22.061-16.261-29.068-6.748-6.674-14.765-10.542-23.366-10.542-17.63 0-32.808 16.253-39.627 39.61-5.413 5.757-9.175 12.717-10.663 20.342 12.008 5.677 21.807 19.188 26.916 36.686 6.63 7.052 10.785 15.906 11.316 25.579z" fill="#ffc464"/><path d="m191.127 142.478c5.774 6.141 9.67 13.65 10.93 21.875 12.241-4.961 28.718-3.129 45.005 4.772-4.362-9.547-4.49-20.084-1.165-29.917-3.505-24.079 3.547-45.169 19.582-52.495-6.819-23.357-21.997-39.61-39.627-39.61s-32.808 16.253-39.627 39.61c-6.885 7.323-11.1 16.59-11.359 26.699 7.084 7.005 12.768 17.104 16.261 29.066z" fill="#ffc464"/><path d="m247.061 169.125c-16.287-7.901-32.763-9.733-45.005-4.772-16.453 6.669-21.139 23.26-17.853 39.776 11.904-1.31 23.227 2.98 31.909 11.143 23.357 6.819 39.61 21.997 39.61 39.627h40.015c6.049-13.164 2.975-31.375-7.611-48.6-.839-10.388-5.15-20.002-12.9-27.019-7.781-7.044-17.786-10.351-28.165-10.155z" fill="#ffc464"/><path d="m246.014 232.399c6.161 6.564 9.709 14.264 9.709 22.5h40.015c2.991-6.509 3.75-14.252 2.475-22.5z" fill="#ff8d4c"/><path d="m245.896 139.207c-3.324 9.834-3.197 20.37 1.165 29.917 14.163-.267 27.256 6.084 34.854 18.106 7.638-15.997 19.742-26.568 33.462-27.292 4.384-11.445 13.675-19.641 25.252-23.488.604-.612 1.214-1.211 1.829-1.796-2.819-13.168-12.057-23.312-24.477-28.383-15.909-18.411-36.468-26.886-52.504-19.56-16.034 7.327-23.086 28.418-19.581 52.496z" fill="#ffc464"/><path d="m315.377 159.937c-13.719.726-25.824 11.297-33.461 27.293 3.592 5.68 5.657 12.216 6.21 19.069 10.586 17.225 13.66 35.436 7.611 48.6h44.151c0-14.332 10.741-27.043 27.307-34.961-1.476-7.66-5.247-14.651-10.681-20.431-5.341-18.298-19.318-40.73-41.137-39.57z" fill="#ffc464"/><path d="m298.212 232.399c1.275 8.247.516 15.991-2.475 22.5h44.151c0-8.236 3.548-15.936 9.709-22.5z" fill="#ff8d4c"/><path d="m356.515 199.507c5.434 5.78 9.204 12.771 10.68 20.431 3.813-1.822 7.933-3.39 12.303-4.666 7.563-7.11 17.199-11.373 27.696-11.373 4.99-9.235 5.82-19.739 3.16-29.773 5.105-23.791-.522-45.305-16.033-53.686-14.962-8.085-35.107-1.779-51.865 14.214-.614.586-1.224 1.185-1.828 1.797-11.577 3.848-20.868 12.043-25.252 23.487 21.82-1.161 35.797 21.271 41.139 39.569z" fill="#ffc464"/><path d="m407.194 203.899c-10.497 0-20.133 4.263-27.696 11.373-18.054 5.27-39.61 18.675-39.61 39.627h134.612c0-17.63-16.253-32.808-39.61-39.627-7.563-7.11-17.199-11.373-27.696-11.373z" fill="#ffc464"/><path d="m349.571 232.399c-5.822 6.119-9.683 13.633-9.683 22.5h134.612c0-8.236-3.548-15.936-9.709-22.5z" fill="#ff8d4c"/><path d="m7.5 284.898c0 15.66 2.432 30.78 6.937 45h22.5c-4.505-14.22-6.937-29.34-6.937-45v-30h-22.5zm42.73 74.999h-22.5c26.034 44.75 74.541 75.001 129.77 75.001 0 0-58.31 9.158-107.27-75.001z" fill="#71e4bf"/><path d="m36.937 329.898h-22.5c3.34 10.543 7.82 20.592 13.293 30h22.5c-5.473-9.408-9.952-19.457-13.293-30z" fill="#d15573"/></g><g><path d="m480.48 292.398h-15v-15h15zm-30.001 0h-15v-15h15z" fill="#fff"/></g></g><g><path d="m481.198 247.398c-3.642-16.951-19.481-31.625-42.52-38.816-6.18-5.419-13.373-9.151-20.974-10.95 2.03-7.542 2.167-15.644.337-23.657 5.296-27.123-2.522-50.605-20.153-60.133-14.933-8.068-34.383-4.758-52.006 8.163-4.823-9.573-12.929-17.269-23.389-21.96-15.89-17.715-35.485-26.028-52.26-22.682-8.917-23.174-25.788-37.76-44.381-37.76-20.04 0-38.083 16.943-46.317 43.323-4.52 5.157-7.865 11.043-9.897 17.277-5.683-3.142-11.81-4.834-18.137-4.834-20.04 0-38.082 16.942-46.317 43.323-3.865 4.405-6.864 9.337-8.929 14.568-2.539-.565-5.128-.863-7.754-.863-20.041 0-38.083 16.942-46.317 43.323-7.871 8.974-12.184 20.086-12.184 31.483 0 6.982 1.63 13.853 4.693 20.195h-34.693v37.5c0 41.904 16.429 81.41 46.26 111.241 28.045 28.044 64.641 44.24 103.74 46.079v30.179h83.5v-15h-68.5v-14.999h182v14.999h-68.5v15h83.5v-30.179c39.1-1.84 75.696-18.035 103.74-46.08 29.831-29.831 46.26-69.337 46.26-111.24v-37.5zm-50.135-25.43 1.726.504c16.904 4.935 28.942 14.276 32.846 24.927h-116.882c3.905-10.65 15.942-19.992 32.846-24.927l1.726-.504 1.31-1.23c6.499-6.109 14.3-9.339 22.56-9.339s16.061 3.229 22.56 9.339zm-284.114 7.244c4.687-2.759 10.001-5.026 15.873-6.74l1.726-.503 1.311-1.232c6.497-6.108 14.298-9.338 22.558-9.338 8.261 0 16.062 3.229 22.559 9.338l1.311 1.231 1.726.504c16.905 4.935 28.943 14.276 32.847 24.927h-104.554c2.769-5.733 4.364-11.898 4.643-18.187zm115.472 18.186c-2.963-13.791-14.003-26.069-30.421-34.042 3.116-1.459 6.601-2.726 10.286-3.7l-3.832-14.502c-8.698 2.299-16.556 5.931-22.492 10.311-7.535-5.407-16.235-8.535-25.195-9.001-.438-7.951 1.579-14.743 5.896-19.511 9.147-10.105 27.645-10.53 47.125-1.08l1.617.784 1.798-.033c8.951-.181 16.866 2.672 22.99 8.217 6.123 5.542 9.739 13.171 10.458 22.062l.145 1.792.941 1.531c8.2 13.344 11.29 26.845 8.704 37.173h-28.02zm33.004-43.518c-.692-5.978-2.396-11.648-4.995-16.783 6.86-12.397 16.562-19.7 26.459-19.7 13.632 0 26.359 13.429 32.427 34.212l.504 1.727 1.231 1.31c2.476 2.633 5.799 7.281 7.235 11.558-13.47 7.906-22.465 18.955-25.095 31.196h-27.51c2.061-13.145-1.482-28.625-10.256-43.52zm95.332-76.841c11.992 6.479 16.807 24.345 12.265 45.514l-.377 1.758.46 1.737c1.912 7.211 1.609 14.263-.836 20.63-9.642 1.055-18.881 5.174-26.557 11.904-1.272.397-2.515.824-3.742 1.265-2.059-5.068-5.006-9.845-8.764-14.129-6.759-21.654-20.128-36.94-35.785-41.725 3.894-4.714 9.202-8.307 15.575-10.426l1.706-.566 1.264-1.279c15.217-15.402 32.799-21.164 44.791-14.683zm-78.45-15.864 1.175 1.36 1.665.68c8.708 3.556 15.195 9.95 18.415 17.94-10.365 4.566-18.443 12.141-23.318 21.877-11.21 2.132-21.584 9.602-29.479 21.167-.17-.158-.333-.323-.505-.479-7.598-6.878-17.368-11.004-27.938-11.905-1.875-6.396-1.657-13.297.679-20.206l.575-1.702-.259-1.779c-3.118-21.425 2.879-38.929 15.278-44.593 12.397-5.664 29.555 1.259 43.712 17.64zm-119.387-20.636.504-1.726c6.067-20.782 18.797-34.211 32.428-34.211 12.389 0 24.031 11.094 30.606 28.718-14.296 10.215-21.296 30.947-18.221 55.223-1.831 6.107-2.474 12.346-1.965 18.415-10.254-2.946-20.121-3.558-28.829-1.891-2.052-5.905-5.303-11.452-9.626-16.376-3.505-11.226-8.79-20.735-15.245-27.964.819-6.889 3.936-13.366 9.117-18.877zm-75.582 57.076 1.23-1.31.504-1.726c6.068-20.783 18.797-34.212 32.428-34.212s26.359 13.429 32.428 34.212l.504 1.726 1.23 1.31c3.583 3.812 6.2 8.161 7.738 12.777-2.91 1.788-5.552 3.948-7.857 6.494-7.245 8.003-10.575 18.927-9.691 31.281-6.841 1.953-13.298 5.485-18.918 10.413-4.274 1.332-8.313 2.929-12.105 4.765-2.016-6.361-5.397-12.363-10.013-17.627-5.114-16.384-14.012-29.123-24.821-36.428 1.577-4.206 4.056-8.179 7.343-11.675zm-102.338 114.783h66v-15h-28.708c-4.78-5.99-7.292-12.913-7.292-20.195 0-8.261 3.229-16.062 9.337-22.559l1.231-1.311.504-1.726c6.067-20.783 18.796-34.212 32.428-34.212s26.359 13.429 32.427 34.212l.504 1.726 1.231 1.311c6.108 6.497 9.337 14.298 9.337 22.559 0 7.283-2.512 14.206-7.292 20.195h-28.707v15h401v22.5c0 12.833-1.71 25.417-5.014 37.499h-471.972c-3.304-12.082-5.014-24.666-5.014-37.499zm10.043 74.999h461.913c-2.045 5.126-4.39 10.134-7.031 15h-447.851c-2.641-4.866-4.985-9.874-7.031-15zm430.091 48.135c-26.998 26.998-62.737 41.866-100.634 41.866h-197c-37.897 0-73.636-14.868-100.634-41.866-5.677-5.677-10.811-11.746-15.39-18.135h429.048c-4.579 6.39-9.713 12.458-15.39 18.135z"/><path d="m248.5 457.397h15v15h-15z"/><path d="m158.79 172.807c-6.076-12.306-4.654-20.296-.392-29.197l-13.529-6.479c-7.048 14.718-6.907 27.373.47 42.316z"/><path d="m229.234 90.645-11.51-9.617c-9.294 11.122-11.245 23.75-11.245 32.385h15c0-6.153 1.346-15.097 7.755-22.768z"/><path d="m296.706 138.936c-.971-10.257-4.772-19.613-10.995-27.06l-11.51 9.619c4.331 5.183 6.878 11.525 7.571 18.853z"/><path d="m388.56 146.948-14.938-1.375c-.618 6.726-3.318 13.006-8.022 18.666l11.535 9.588c6.585-7.922 10.535-17.217 11.425-26.879z"/><path d="m314.778 209.923 14.959 1.105c.555-7.507-.717-16.43-3.579-25.124l-14.248 4.691c2.23 6.772 3.276 13.817 2.868 19.328z"/><path d="m100.09 221.913c-6.075-12.306-4.654-20.295-.392-29.197l-13.529-6.479c-7.047 14.719-6.906 27.374.47 42.316z"/></g></g></svg>